<?xml version="1.0" encoding="utf-8"?>
<svg width="172px" height="104px" viewBox="0 0 172 104" version="1.1" xmlns:xlink="http://www.w3.org/1999/xlink" xmlns="http://www.w3.org/2000/svg">
  <desc>Created with Lunacy</desc>
  <g id="amazon-card">
    <path d="M162.533 0L8.4672 0Q8.25032 0 8.0349 0.00987064Q7.81948 0.0197413 7.60595 0.0394624Q7.39242 0.0591836 7.18122 0.088715Q6.97003 0.118246 6.76159 0.157528Q6.55315 0.196809 6.3479 0.245761Q6.14265 0.294712 5.94101 0.353233Q5.73936 0.411755 5.54173 0.479727Q5.3441 0.547699 5.15089 0.624983Q4.95768 0.702267 4.76929 0.788705Q4.58089 0.875143 4.39769 0.970559Q4.21449 1.06598 4.03687 1.17017Q3.85924 1.27437 3.68755 1.38714Q3.51586 1.49992 3.35045 1.62103Q3.18504 1.74214 3.02625 1.87134Q2.86747 2.00055 2.71563 2.13758Q2.56379 2.27462 2.4192 2.4192Q2.27462 2.56379 2.13758 2.71563Q2.00055 2.86747 1.87134 3.02625Q1.74214 3.18504 1.62103 3.35045Q1.49992 3.51586 1.38714 3.68755Q1.27437 3.85924 1.17017 4.03687Q1.06598 4.21449 0.970559 4.39769Q0.875143 4.58089 0.788705 4.76929Q0.702267 4.95768 0.624983 5.15089Q0.547699 5.3441 0.479727 5.54173Q0.411755 5.73936 0.353233 5.94101Q0.294712 6.14265 0.245761 6.3479Q0.196809 6.55315 0.157528 6.76159Q0.118246 6.97003 0.088715 7.18122Q0.0591836 7.39242 0.0394624 7.60595Q0.0197413 7.81948 0.00987064 8.0349Q0 8.25032 0 8.4672L0 95.5328Q0 95.7497 0.00987064 95.9651Q0.0197413 96.1805 0.0394624 96.3941Q0.0591836 96.6076 0.088715 96.8188Q0.118246 97.03 0.157528 97.2384Q0.196809 97.4469 0.245761 97.6521Q0.294712 97.8574 0.353233 98.059Q0.411755 98.2607 0.479727 98.4583Q0.547699 98.6559 0.624983 98.8491Q0.702267 99.0423 0.788705 99.2307Q0.875143 99.4191 0.970559 99.6023Q1.06598 99.7855 1.17017 99.9632Q1.27437 100.141 1.38714 100.312Q1.49992 100.484 1.62103 100.65Q1.74214 100.815 1.87134 100.974Q2.00055 101.133 2.13758 101.284Q2.27462 101.436 2.4192 101.581Q2.56379 101.725 2.71563 101.862Q2.86747 101.999 3.02625 102.129Q3.18504 102.258 3.35045 102.379Q3.51586 102.5 3.68755 102.613Q3.85924 102.726 4.03687 102.83Q4.21449 102.934 4.39769 103.029Q4.58089 103.125 4.76929 103.211Q4.95768 103.298 5.15089 103.375Q5.3441 103.452 5.54173 103.52Q5.73936 103.588 5.94101 103.647Q6.14265 103.705 6.3479 103.754Q6.55315 103.803 6.76159 103.842Q6.97003 103.882 7.18122 103.911Q7.39242 103.941 7.60595 103.961Q7.81948 103.98 8.0349 103.99Q8.25032 104 8.4672 104L162.533 104Q162.75 104 162.965 103.99Q163.181 103.98 163.394 103.961Q163.608 103.941 163.819 103.911Q164.03 103.882 164.238 103.842Q164.447 103.803 164.652 103.754Q164.857 103.705 165.059 103.647Q165.261 103.588 165.458 103.52Q165.656 103.452 165.849 103.375Q166.042 103.298 166.231 103.211Q166.419 103.125 166.602 103.029Q166.786 102.934 166.963 102.83Q167.141 102.726 167.312 102.613Q167.484 102.5 167.65 102.379Q167.815 102.258 167.974 102.129Q168.133 101.999 168.284 101.862Q168.436 101.725 168.581 101.581Q168.725 101.436 168.862 101.284Q168.999 101.133 169.129 100.974Q169.258 100.815 169.379 100.65Q169.5 100.484 169.613 100.312Q169.726 100.141 169.83 99.9632Q169.934 99.7855 170.029 99.6023Q170.125 99.4191 170.211 99.2307Q170.298 99.0423 170.375 98.8491Q170.452 98.6559 170.52 98.4583Q170.588 98.2607 170.647 98.059Q170.705 97.8574 170.754 97.6521Q170.803 97.4469 170.842 97.2384Q170.882 97.03 170.911 96.8188Q170.941 96.6076 170.961 96.3941Q170.98 96.1805 170.99 95.9651Q171 95.7497 171 95.5328L171 8.4672Q171 8.25032 170.99 8.0349Q170.98 7.81948 170.961 7.60595Q170.941 7.39242 170.911 7.18122Q170.882 6.97003 170.842 6.76159Q170.803 6.55315 170.754 6.3479Q170.705 6.14265 170.647 5.94101Q170.588 5.73936 170.52 5.54173Q170.452 5.3441 170.375 5.15089Q170.298 4.95768 170.211 4.76929Q170.125 4.58089 170.029 4.39769Q169.934 4.21449 169.83 4.03687Q169.726 3.85924 169.613 3.68755Q169.5 3.51586 169.379 3.35045Q169.258 3.18504 169.129 3.02625Q168.999 2.86747 168.862 2.71563Q168.725 2.56379 168.581 2.4192Q168.436 2.27462 168.284 2.13758Q168.133 2.00055 167.974 1.87134Q167.815 1.74214 167.65 1.62103Q167.484 1.49992 167.312 1.38714Q167.141 1.27437 166.963 1.17017Q166.786 1.06598 166.602 0.970559Q166.419 0.875143 166.231 0.788705Q166.042 0.702267 165.849 0.624983Q165.656 0.547699 165.458 0.479727Q165.261 0.411755 165.059 0.353233Q164.857 0.294712 164.652 0.245761Q164.447 0.196809 164.238 0.157528Q164.03 0.118246 163.819 0.088715Q163.608 0.0591836 163.394 0.0394624Q163.181 0.0197413 162.965 0.00987064Q162.75 0 162.533 0ZM103 6L69 6Q68.8975 6 68.7966 6.00932Q68.6956 6.01864 68.5971 6.03721Q68.4986 6.05578 68.4033 6.08344Q68.308 6.1111 68.2167 6.14762Q68.1254 6.18415 68.0388 6.22925Q67.9522 6.27435 67.871 6.32765Q67.7899 6.38095 67.7148 6.44202Q67.6398 6.50309 67.5714 6.57143Q67.5031 6.63977 67.442 6.71482Q67.381 6.78987 67.3277 6.87102Q67.2744 6.95217 67.2293 7.03876Q67.1842 7.12535 67.1476 7.21667Q67.1111 7.30799 67.0834 7.4033Q67.0558 7.49861 67.0372 7.59713Q67.0186 7.69564 67.0093 7.79657Q67 7.89749 67 8Q67 8.10251 67.0093 8.20343Q67.0186 8.30436 67.0372 8.40287Q67.0558 8.50139 67.0834 8.5967Q67.1111 8.69201 67.1476 8.78333Q67.1842 8.87465 67.2293 8.96124Q67.2744 9.04783 67.3277 9.12898Q67.381 9.21013 67.442 9.28518Q67.5031 9.36023 67.5714 9.42857Q67.6398 9.49691 67.7148 9.55798Q67.7899 9.61905 67.871 9.67235Q67.9522 9.72565 68.0388 9.77075Q68.1254 9.81585 68.2167 9.85238Q68.308 9.8889 68.4033 9.91656Q68.4986 9.94423 68.5971 9.96279Q68.6956 9.98136 68.7966 9.99068Q68.8975 10 69 10L103 10Q103.103 10 103.203 9.99068Q103.304 9.98136 103.403 9.96279Q103.501 9.94423 103.597 9.91656Q103.692 9.8889 103.783 9.85238Q103.875 9.81585 103.961 9.77075Q104.048 9.72565 104.129 9.67235Q104.21 9.61905 104.285 9.55798Q104.36 9.49691 104.429 9.42857Q104.497 9.36023 104.558 9.28518Q104.619 9.21013 104.672 9.12898Q104.726 9.04783 104.771 8.96124Q104.816 8.87465 104.852 8.78333Q104.889 8.69201 104.917 8.5967Q104.944 8.50139 104.963 8.40287Q104.981 8.30436 104.991 8.20343Q105 8.10251 105 8Q105 7.89749 104.991 7.79657Q104.981 7.69564 104.963 7.59713Q104.944 7.49861 104.917 7.4033Q104.889 7.30799 104.852 7.21667Q104.816 7.12535 104.771 7.03876Q104.726 6.95217 104.672 6.87102Q104.619 6.78987 104.558 6.71482Q104.497 6.63977 104.429 6.57143Q104.36 6.50309 104.285 6.44202Q104.21 6.38095 104.129 6.32765Q104.048 6.27435 103.961 6.22925Q103.875 6.18415 103.783 6.14762Q103.692 6.1111 103.597 6.08344Q103.501 6.05578 103.403 6.03721Q103.304 6.01864 103.203 6.00932Q103.103 6 103 6Z" transform="translate(-3.18473E-12 -0.2621112)" id="Combined-Shape-Copy-2" fill="#080607" fill-rule="evenodd" stroke="none" />
    <path d="M1 0L35.4324 0Q35.5351 0 35.6339 0.0186045Q35.7326 0.037209 35.8241 0.0738122Q35.9156 0.110415 35.9969 0.163826Q36.0782 0.217236 36.1467 0.285714Q36.2152 0.354193 36.2686 0.43551Q36.322 0.516827 36.3586 0.608335Q36.3952 0.699843 36.4138 0.798563Q36.4324 0.897283 36.4324 1L36.4324 1.46849Q36.4324 1.5712 36.4138 1.66992Q36.3952 1.76864 36.3586 1.86015Q36.322 1.95166 36.2686 2.03298Q36.2152 2.11429 36.1467 2.18277Q36.0782 2.25125 35.9969 2.30466Q35.9156 2.35807 35.8241 2.39467Q35.7326 2.43128 35.6339 2.44988Q35.5351 2.46849 35.4324 2.46849L1 2.46849Q0.897283 2.46849 0.798563 2.44988Q0.699843 2.43128 0.608335 2.39467Q0.516827 2.35807 0.43551 2.30466Q0.354193 2.25125 0.285714 2.18277Q0.217236 2.11429 0.163826 2.03298Q0.110415 1.95166 0.0738122 1.86015Q0.037209 1.76864 0.0186045 1.66992Q0 1.5712 0 1.46849L0 1Q0 0.897283 0.0186045 0.798563Q0.037209 0.699843 0.0738122 0.608335Q0.110415 0.516827 0.163826 0.43551Q0.217236 0.354193 0.285714 0.285714Q0.354193 0.217236 0.43551 0.163826Q0.516827 0.110415 0.608335 0.0738122Q0.699843 0.037209 0.798563 0.0186045Q0.897283 0 1 0Z" transform="translate(67.72216 7.192655)" id="Rectangle" fill="#EAEBF0" stroke="none" />
    <g id="amazon-logo" transform="translate(34.92583 43.15342)">
      <path d="M48.8508 5.48432C42.9328 9.84636 34.355 12.1737 26.9697 12.1737C16.6143 12.1737 7.29172 8.34359 0.238871 1.97341C-0.315249 1.47248 0.181241 0.789809 0.846188 1.17991C8.45759 5.60844 17.8688 8.27266 27.5903 8.27266C34.1466 8.27266 41.3591 6.91617 47.9908 4.10123C48.9926 3.67567 49.8305 4.75731 48.8508 5.48432M51.3111 2.66939C50.5575 1.703 46.3107 2.21279 44.4045 2.43887C43.8238 2.5098 43.7351 2.00444 44.2582 1.64094C47.6406 -0.739566 53.1907 -0.0524559 53.8379 0.745478C54.4851 1.54785 53.6694 7.11122 50.491 9.76656C50.0034 10.1744 49.5379 9.95718 49.7551 9.41636C50.4688 7.63431 52.0691 3.64021 51.3111 2.66939" transform="translate(14.66782 19.01988)" id="Combined-Shape" fill="#FFFFFF" stroke="none" />
      <path d="M58.8654 3.35132L58.8654 1.03731C58.8654 0.68711 59.1313 0.452163 59.4505 0.452163L69.8104 0.452163C70.1428 0.452163 70.4088 0.691543 70.4088 1.03731L70.4088 3.01885C70.4044 3.35132 70.1251 3.78575 69.6286 4.47286L64.2603 12.1375C66.2551 12.0887 68.3608 12.3857 70.1694 13.4053C70.5773 13.6358 70.6881 13.9727 70.7191 14.3052L70.7191 16.7743C70.7191 17.1113 70.3467 17.5058 69.9566 17.3019C66.7693 15.6306 62.5359 15.4489 59.0117 17.3196C58.6526 17.5147 58.2758 17.1246 58.2758 16.7876L58.2758 14.4426C58.2758 14.0658 58.2802 13.423 58.657 12.8512L64.8765 3.93204L59.4638 3.93204C59.1313 3.93204 58.8654 3.6971 58.8654 3.35132M21.0743 17.7895L17.9225 17.7895C17.621 17.7673 17.3817 17.5413 17.3595 17.2531L17.3595 1.07721C17.3595 0.753607 17.6299 0.496493 17.9668 0.496493L20.9059 0.496493C21.2117 0.509783 21.4556 0.744738 21.4777 1.03731L21.4777 3.15184L21.5354 3.15184C22.3023 1.10824 23.743 0.155154 25.6846 0.155154C27.6573 0.155154 28.8896 1.10824 29.7762 3.15184C30.5387 1.10824 32.272 0.155154 34.1294 0.155154C35.4504 0.155154 36.8956 0.700409 37.7777 1.92391C38.7752 3.28483 38.5712 5.26193 38.5712 6.99522L38.5668 17.2043C38.5668 17.528 38.2964 17.7895 37.9595 17.7895L34.8121 17.7895C34.4973 17.7673 34.2447 17.5147 34.2447 17.2043L34.2447 8.63099C34.2447 7.94831 34.3067 6.24605 34.156 5.59884C33.9211 4.51276 33.2162 4.20688 32.303 4.20688C31.5406 4.20688 30.7426 4.71668 30.419 5.53234C30.0954 6.34801 30.1264 7.71336 30.1264 8.63099L30.1264 17.2043C30.1264 17.528 29.856 17.7895 29.5191 17.7895L26.3717 17.7895C26.0525 17.7673 25.8043 17.5147 25.8043 17.2043L25.7999 8.63099C25.7999 6.82677 26.0969 4.17142 23.8582 4.17142C21.593 4.17142 21.6816 6.76027 21.6816 8.63099L21.6816 17.2043C21.6816 17.528 21.4112 17.7895 21.0743 17.7895M92.6002 17.7895L89.4617 17.7895C89.147 17.7673 88.8943 17.5147 88.8943 17.2043L88.8898 1.02402C88.9164 0.727006 89.178 0.496493 89.4972 0.496493L92.4185 0.496493C92.6933 0.509783 92.9194 0.695977 92.9815 0.948656L92.9815 3.42225L93.0391 3.42225C93.9213 1.2102 95.1581 0.155154 97.3346 0.155154C98.7488 0.155154 100.127 0.664946 101.014 2.06133C101.839 3.35576 101.839 5.53234 101.839 7.09718L101.839 17.2797C101.803 17.5634 101.542 17.7895 101.231 17.7895L98.0705 17.7895C97.7824 17.7673 97.543 17.5545 97.512 17.2797L97.512 8.49357C97.512 6.72481 97.7159 4.13596 95.5393 4.13596C94.7724 4.13596 94.0676 4.65018 93.7173 5.43038C93.274 6.41894 93.2164 7.40306 93.2164 8.49357L93.2164 17.2043C93.212 17.528 92.9371 17.7895 92.6002 17.7895" transform="translate(0.3399689 0.504123)" id="Combined-Shape" fill="#FFFFFF" stroke="none" />
    </g>
  </g>
</svg>