<svg xmlns="http://www.w3.org/2000/svg" xmlns:xlink="http://www.w3.org/1999/xlink" width="55" height="19" viewBox="0 0 55 19"><defs><path id="7g11a" d="M900.913 1524.081l-2.08-4.686v4.686h-2.906l-.545-1.337h-2.972l-.561 1.337h-1.569l2.56-5.99h2.13l2.427 5.66v-5.66h2.328l1.865 4.06 1.717-4.06h2.378v5.99h-1.47v-4.686l-2.08 4.686zm-8.009-2.564h1.947l-.974-2.402zm34.914-2.402l-.99 2.402h1.98zm-11.401 1.435c.181-.099.297-.314.297-.561 0-.264-.116-.446-.297-.528-.165-.099-.43-.116-.677-.116h-1.766v1.337h1.733c.28 0 .511 0 .71-.132zm-9.653-2.442h4.795v1.254h-3.356v1.072h3.273v1.221h-3.273v1.188h3.356v1.238h-4.795zm5.775 0h3.284c.726 0 1.27.017 1.732.28.446.265.726.66.726 1.32 0 .957-.643 1.452-1.006 1.601.313.116.577.33.709.511.198.298.231.562.231 1.106v1.171h-1.435v-.759c0-.363.033-.874-.231-1.171-.215-.214-.528-.264-1.04-.264h-1.534v2.178h-1.436zm6.567 0h1.452v5.99h-1.452zm2.937.693c.462-.478 1.188-.693 2.178-.693h1.386v1.287h-1.37c-.528 0-.808.083-1.105.346-.247.248-.412.727-.412 1.354 0 .643.131 1.105.395 1.402.215.231.627.314.99.314h.644l2.013-4.703h2.145l2.425 5.66v-5.66h2.178l2.508 4.175v-4.175h1.469v5.99h-2.03l-2.706-4.489v4.488h-2.904l-.56-1.336h-2.97l-.545 1.337h-1.667c-.693 0-1.567-.149-2.079-.66-.495-.512-.759-1.189-.759-2.278 0-.907.165-1.716.776-2.359zm-18.843 5.428v1.023h11.946v-2.178h.231c.165 0 .215.017.215.281v1.897h6.17v-.495c.496.264 1.271.512 2.294.512h2.607l.561-1.337h1.238l.544 1.337h5.016v-1.27l.759 1.27h4.01v-8.349h-3.993v.99l-.561-.99h-4.076v.99l-.511-.99h-5.511c-.924 0-1.733.132-2.393.495v-.495h-3.795v.495c-.412-.363-.99-.495-1.617-.495h-13.876l-.924 2.162-.957-2.162h-4.373v.99l-.478-.99h-3.73l-3.646 8.349h4.356l.545-1.337h1.237l.544 1.337h4.802v-1.023l.429 1.023h2.491z"/><path id="7g11b" d="M941.15 1533.617c-.346.51-1.024.758-1.95.758h-2.76v-1.285h2.76c.281 0 .463-.033.579-.149.099-.098.165-.23.165-.395 0-.181-.066-.313-.182-.395-.099-.083-.248-.132-.512-.132-1.34-.05-3.025.05-3.025-1.845 0-.873.545-1.779 2.05-1.779h2.86v2.965c.016.017.727.972.016 2.257zm-25.583-3.968h-1.865v1.518h1.848c.544 0 .891-.28.891-.792 0-.511-.363-.726-.875-.726zm-3.284 4.208v-4.802l-2.195 2.36zm10.246-4.109c-.165-.099-.429-.116-.676-.116h-1.766v1.337h1.733c.28 0 .511-.017.71-.116a.654.654 0 0 0 .297-.577.59.59 0 0 0-.297-.528zm-19.437-.099v1.089h3.135v1.221h-3.135v1.188h3.515l1.633-1.749-1.567-1.749zm34.865.149a.484.484 0 0 0-.214.428c0 .231.131.38.313.446.148.05.313.066.544.066l.776.017c.775.016 1.303.148 1.617.478.066.05.099.099.132.148v-1.699h-2.607c-.248 0-.429.017-.561.116zm-4.334 4.603h-2.794v-1.287h2.778c.264 0 .463-.033.578-.148a.546.546 0 0 0 .166-.396.503.503 0 0 0-.182-.396c-.116-.083-.265-.132-.513-.132-1.339-.05-3.025.049-3.025-1.848 0-.875.546-1.782 2.05-1.782h2.876v1.27h-2.628c-.265 0-.43.017-.579.116-.165.099-.215.247-.215.429 0 .23.133.379.314.445.15.05.315.066.563.066l.777.017c.777.016 1.306.148 1.636.478.281.28.43.644.43 1.27.017 1.288-.794 1.898-2.232 1.898zm-7.002-4.754v1.087h3.267v1.22h-3.267v1.185h3.35v1.236h-4.769v-5.98h4.769v1.252zm-2.533 2.454c.197.297.23.56.23 1.087v1.187h-1.433v-.742c0-.362.033-.89-.23-1.17-.215-.213-.528-.263-1.055-.263h-1.531v2.175h-1.433v-5.98h3.294c.725 0 1.252.033 1.713.28.445.28.741.642.741 1.334 0 .956-.642 1.433-1.005 1.582.313.131.577.346.709.51zm-8.604.287h-1.782v2.013h-2.788l-1.766-1.98-1.831 1.98h-5.66v-5.99h5.758l1.766 1.964 1.815-1.964h4.57c1.139 0 2.41.314 2.41 1.964 0 1.667-1.238 2.013-2.492 2.013zm26.796-1.221s-.181-.412-.478-.643h.478v-3.284h-3.795c-.792 0-1.386.198-1.798.495v-.495h-3.911c-.627 0-1.353.148-1.716.495v-.495h-6.996v.495c-.561-.396-1.501-.495-1.93-.495h-4.604v.495c-.446-.429-1.419-.495-2.013-.495h-5.148l-1.188 1.27-1.106-1.27h-7.705v8.349h7.557l1.221-1.304 1.138 1.304h4.653v-1.964h.462c.627.017 1.353-.016 1.997-.297v2.244h3.844v-2.178h.182c.231 0 .264.017.264.248v1.93h11.682c.743 0 1.518-.181 1.947-.528v.528h3.712c.776 0 1.518-.115 2.096-.379 0 0 .083-.05.165-.116.017 0 .017-.016.033-.016.017 0 .017-.017.033-.017.314-.28.825-.874.924-1.452 0-.016.346-1.023 0-2.425z"/></defs><g><g transform="translate(-888 -1517)"><g><use fill="#002663" xlink:href="#7g11a"/></g><g><use fill="#002663" xlink:href="#7g11b"/></g></g></g></svg>