<svg xmlns="http://www.w3.org/2000/svg" xmlns:xlink="http://www.w3.org/1999/xlink" width="94" height="32" viewBox="0 0 94 32"><defs><path id="axkqa" d="M1263.912 48.528c.015-.083.032-.158.05-.226l.162-.912c.116-.644.3-.804.957-.804h.23c.67 0 .786.16.67.804l-.323 1.791c-.286 1.627.504 2.257 2.218 2.257h20.254c1.71-.005 2.721-.63 3.012-2.257l.319-1.791c.115-.644.305-.804.956-.804h.25c.651 0 .78.169.665.804l-.319 1.791c-.485 2.746-2.384 3.989-5.193 3.989h-20.254c-1.093 0-1.952-.178-2.579-.534l-.156.876c-.37 2.061-1.663 3.094-3.894 3.094-.116.01-.232.01-.347 0-.573-.069-.707-.21-.596-.823l.042-.242c.101-.58.25-.7.85-.612.117.01.234.01.35 0 1.188 0 1.604-.457 1.798-1.54zm-5.442-1.129c.115-.63.3-.786.924-.786h.23c.638 0 .767.156.657.786l-1.077 6.113c-.37 2.063-1.668 3.094-3.895 3.094-.116.01-.234.01-.35 0-.569-.069-.703-.21-.597-.823l.047-.242c.101-.58.244-.7.85-.612.116.01.234.01.35 0 1.184 0 1.604-.457 1.793-1.54zm39.616 7.699c.633 0 .767.155.651.786l-.036.228c-.116.63-.3.786-.924.786h-.24c-.634 0-.768-.155-.652-.786l.037-.228c.115-.63.3-.786.924-.786zm-19.404 0c.633 0 .767.155.651.786l-.036.228c-.116.63-.3.786-.924.786h-.236c-.638 0-.772-.155-.656-.786l.041-.228c.111-.63.296-.786.924-.786zm-2.726 0c.638 0 .767.155.656.786l-.041.228c-.111.63-.3.786-.924.786h-.24c-.638 0-.767-.155-.657-.786l.042-.228c.11-.63.3-.786.924-.786zm-15.73-11.78c.637 0 .766.162.655.79l-.041.23c-.111.633-.3.789-.924.789h-.24c-.638 0-.768-.156-.657-.79l.042-.229c.11-.628.3-.79.924-.79zm35.518-.895c.115-.644.3-.804.956-.804h.231c.651 0 .78.16.67.804l-1.21 6.767c-.287 1.627.503 2.257 2.217 2.257s2.726-.63 3.017-2.257l.319-1.791c.115-.644.305-.804.956-.804h.25c.651 0 .785.16.67.804l-.32 1.791c-.489 2.741-2.392 3.989-5.201 3.989-2.99 0-4.237-1.33-3.761-3.989z"/><path id="axkqb" d="M1260.636 31.353a.742.742 0 0 0-.54.166.73.73 0 0 0-.263.498l-.586 3.286h2.888c1.5 0 2.113-.576 2.362-1.977.25-1.401-.161-1.973-1.66-1.973zm2.515-1.727c2.735 0 3.627 1.325 3.202 3.696-.462 2.458-1.945 3.696-4.519 3.696h-2.892l-.559 3.167c-.115.644-.305.8-.956.8h-.227c-.656 0-.785-.156-.67-.8l1.52-8.572c.25-1.37.957-1.987 2.366-1.987z"/><path id="axkqc" d="M1271.732 37.192h-1.94c-1.216 0-1.849.347-2.001 1.238-.153.891.462 1.202 1.515 1.202 1.322 0 2.038-.26 2.232-1.371zm1.589 1.165c-.342 1.937-1.645 2.792-4.25 2.792-2.384 0-3.424-.891-3.105-2.687.319-1.796 1.742-2.632 4.07-2.632h1.927l.152-.854c.18-1.028-.462-1.325-1.848-1.325-.63-.007-1.26.045-1.88.155-.527.087-.647 0-.55-.557l.042-.247c.092-.502.258-.662.771-.75.592-.091 1.19-.137 1.788-.136 2.555 0 3.844.786 3.474 2.86z"/><path id="axkqd" d="M1277.773 38.715c.037.694.236.854.8.854.425 0 .702-.173.984-.854l2.31-5.615c.254-.63.462-.786 1.127-.786h.226c.656 0 .749.155.462.786l-3.275 7.863c-1.007 2.39-2.393 3.628-4.459 3.838-.462.05-.651-.105-.679-.644v-.229c-.032-.489.13-.626.62-.699 1.228-.155 2.023-.873 2.674-2.248-.265.098-.548.14-.831.123-1.322 0-1.603-.699-1.733-2.234l-.462-5.77c-.046-.63.106-.786.758-.786h.23c.652 0 .819.155.865.786z"/><path id="axkqe" d="M1285.872 35.838h4.133l.079-.457c.204-1.147-.384-1.722-1.777-1.722-1.394 0-2.153.575-2.36 1.722zm5.706.662c-.185.645-.393.8-1.044.8h-4.902l-.07.388c-.226 1.27.426 1.778 2.204 1.778a10.529 10.529 0 0 0 2.343-.279c.59-.142.725 0 .614.608l-.037.228c-.106.576-.23.7-.878.855a9.263 9.263 0 0 1-2.342.278c-2.961 0-4.158-1.096-3.696-3.733l.273-1.517c.446-2.525 1.975-3.786 4.587-3.783 2.453 0 3.52 1.239 3.096 3.61-.047.26-.107.507-.171.767z"/><path id="axkqf" d="M1294.502 40.186c-.111.63-.3.786-.924.786h-.231c-.633 0-.763-.155-.652-.786l.887-4.966c.364-2.06 1.657-3.089 3.881-3.089.117-.01.234-.01.351 0 .568.069.702.21.592.818l-.042.247c-.102.571-.25.694-.85.608a1.9 1.9 0 0 0-.351 0c-1.178 0-1.599.456-1.788 1.535z"/><path id="axkqg" d="M1298.218 39.781c.11-.612.277-.754.817-.612a9.277 9.277 0 0 0 2.514.33c1.2 0 1.672-.193 1.774-.75.078-.457-.116-.644-.924-1.047l-1.793-.836c-1.109-.507-1.548-1.096-1.321-2.371.286-1.622 1.446-2.371 3.788-2.371.676-.007 1.35.08 2 .26.583.192.689.297.587.873l-.037.21c-.11.608-.295.75-.831.594a7.077 7.077 0 0 0-2.047-.283c-1.146 0-1.59.21-1.682.717-.073.42.107.612.67.891l1.89.868c1.192.544 1.686 1.151 1.45 2.463-.3 1.672-1.51 2.44-3.996 2.44a9.048 9.048 0 0 1-2.365-.297c-.555-.156-.652-.28-.55-.855z"/><path id="axkqh" d="M1248.294 29.222h-.24v-1.627h-.578v-.2h1.386v.2h-.568zm2.395 0l-.042-.809c0-.256-.032-.566-.032-.795-.065.215-.14.457-.237.7l-.33.913h-.185l-.306-.882a6.91 6.91 0 0 1-.232-.717c0 .228 0 .535-.037.813l-.037.777h-.232l.13-1.828h.31l.33.914c.079.224.14.425.19.617.051-.183.12-.384.204-.617l.325-.914h.306l.116 1.828z"/><path id="axkqi" d="M1238.743 27.394h-13.301l-1.774 1.344h14.839c6.122 0 10.224 4.925 9.148 10.965-1.077 6.04-6.93 10.966-13.066 10.966h-7.073l-.24 1.37h7.073c6.875 0 13.449-5.528 14.66-12.336 1.21-6.807-3.383-12.309-10.266-12.309z"/><path id="axkqj" d="M1228.877 50.696l-.905 5.145h-1.363l.906-5.145h1.362z"/><path id="axkqk" d="M1238.056 29.923h-15.948l-1.774 1.338h17.482c4.717 0 7.854 3.797 7.045 8.458-.808 4.66-5.345 8.461-10.062 8.461h-9.3l-.24 1.371h9.304c5.46 0 10.69-4.395 11.656-9.8.966-5.406-2.698-9.828-8.163-9.828z"/><path id="axkql" d="M1226.87 48.168l-1.27 6.995h-1.363l1.27-6.995h1.364z"/><path id="axkqm" d="M1237.358 32.481h-18.632l-1.742 1.334h20.134c3.29 0 5.493 2.646 4.916 5.899-.578 3.253-3.729 5.908-7.032 5.908h-11.624l-.24 1.343h11.638c4.037 0 7.9-3.249 8.611-7.242.712-3.993-1.99-7.242-6.029-7.242z"/><path id="axkqn" d="M1222.898 55.847l1.843-10.23h-1.363l-1.843 10.23h1.363z"/><path id="axkqo" d="M1220.364 55.846l2.26-12.666h-1.363L1219 55.846h1.363z"/><path id="axkqp" d="M1236.698 34.903h-21.179l-1.769 1.339h22.707c.894-.031 1.75.352 2.318 1.035.567.684.78 1.59.574 2.45-.396 1.966-2.105 3.404-4.13 3.478h-13.961l-.24 1.37h13.984c2.806-.116 5.165-2.121 5.701-4.847.476-2.669-1.326-4.825-4.005-4.825z"/><path id="axkqq" d="M1225.472 55.844l1.054-5.848-.097.045c-.462.188-.924.357-1.363.535l-.952 5.268z"/></defs><g><g transform="translate(-1213 -26)"><g><g><use fill="#0f2460" xlink:href="#axkqa"/></g><g><use fill="#0f2460" xlink:href="#axkqb"/></g><g><use fill="#0f2460" xlink:href="#axkqc"/></g><g><use fill="#0f2460" xlink:href="#axkqd"/></g><g><use fill="#0f2460" xlink:href="#axkqe"/></g><g><use fill="#0f2460" xlink:href="#axkqf"/></g><g><use fill="#0f2460" xlink:href="#axkqg"/></g><g><use fill="#1780f2" xlink:href="#axkqh"/></g><g><use fill="#1780f2" xlink:href="#axkqi"/></g><g><use fill="#1780f2" xlink:href="#axkqj"/></g><g><use fill="#08c4ff" xlink:href="#axkqk"/></g><g><use fill="#08c4ff" xlink:href="#axkql"/></g><g><use fill="#f5b00d" xlink:href="#axkqm"/></g><g><use fill="#f5b00d" xlink:href="#axkqn"/></g><g><use fill="#f58a0d" xlink:href="#axkqo"/></g><g><use fill="#f58a0d" xlink:href="#axkqp"/></g><g><use fill="#08c4ff" xlink:href="#axkqq"/></g></g></g></g></svg>