<svg xmlns="http://www.w3.org/2000/svg" xmlns:xlink="http://www.w3.org/1999/xlink" width="32" height="25" viewBox="0 0 32 25"><defs><path id="q866a" d="M831.52 1531.36v-15.25h9.33v15.25z"/><path id="q866b" d="M848.505 1537.587a.804.804 0 0 0 .602.25.773.773 0 0 0 .777-.864.795.795 0 0 0-.777-.864.803.803 0 0 0-.821.864.804.804 0 0 0 .219.614zm1.855.595h-.519v-.302a.95.95 0 0 1-.82.389 1.296 1.296 0 0 1-1.253-1.34 1.248 1.248 0 0 1 1.252-1.339c.318.002.619.144.821.39v-1.34h.519zm-7.04-.595a.804.804 0 0 0 .603.25.773.773 0 0 0 .777-.864.795.795 0 0 0-.777-.864.803.803 0 0 0-.821.864.804.804 0 0 0 .219.614zm1.856.595h-.519v-.302a.95.95 0 0 1-.82.389 1.296 1.296 0 0 1-1.253-1.34 1.248 1.248 0 0 1 1.252-1.339c.318.002.619.144.821.39v-.303h.519zm6.09-.13l.087.044v-.086zm.174.044a.043.043 0 0 0-.044.043l.087.087h-.043l-.087-.087h-.043v.087h-.043v-.216h-.043a.043.043 0 0 0-.044.043l-.043.043v.173c-.043 0-.043-.044-.043-.087v-.172c0-.044.044-.044.044-.087s.044-.043.089-.043h.177c.044 0 .044.043.088.043s.044.043.044.087v.172c0 .044-.044.044-.044.087 0 .03-.022.04-.051.042l.042-.042v-.173a.043.043 0 0 0-.043-.043zm0 .216c0 .024-.02.043-.044.043h-.172l-.044-.043a.043.043 0 0 1-.043-.043h.001c.045 0 .045.043.089.043h.177l.037-.001zm-3.888-2.549l-.173.475a.518.518 0 0 0-.346-.086c-.345 0-.561.26-.561.691v1.469h-.519v-2.592h.519v.302a.734.734 0 0 1 .69-.388.523.523 0 0 1 .39.13zm-20.304 1.21a.832.832 0 0 0 .226.606.822.822 0 0 0 .59.258.766.766 0 0 0 .58-.256.776.776 0 0 0 .192-.608.798.798 0 0 0-.2-.601.796.796 0 0 0-1.171-.013.806.806 0 0 0-.217.614zm2.106 1.21h-.516v-.303a.945.945 0 0 1-.818.389 1.289 1.289 0 0 1-.9-.41 1.299 1.299 0 0 1-.348-.93c-.025-.347.096-.689.333-.943.237-.254.569-.398.915-.396.317.002.616.144.818.39v-.303h.516zm6.966-2.074a.674.674 0 0 0-.692.648h1.383a.674.674 0 0 0-.691-.648zm1.252.864v.216h-1.944c.052.385.39.667.778.648.267 0 .526-.092.734-.26l.26.39c-.29.24-.66.364-1.037.345a1.235 1.235 0 0 1-1.296-1.34 1.248 1.248 0 0 1 1.253-1.338c.734 0 1.21.518 1.252 1.339zm2.376 0c-.02-.361.114-.714.369-.97.254-.255.605-.39.965-.37.328-.018.651.09.903.303l-.258.389a1.286 1.286 0 0 0-.688-.216.862.862 0 0 0-.86.864c0 .477.385.864.86.864.245-.005.483-.08.688-.216l.258.389c-.252.212-.575.32-.903.302-.36.02-.71-.114-.965-.37a1.273 1.273 0 0 1-.369-.97zm-7.992-.602a1.87 1.87 0 0 0-.82-.217c-.303 0-.519.13-.519.303 0 .174.216.217.475.26l.26.044c.561.087.864.303.864.78 0 .477-.432.824-1.167.824-.4-.005-.79-.126-1.123-.347l.26-.39c.256.17.556.26.863.26.389 0 .605-.173.605-.347 0-.173-.173-.26-.475-.303l-.26-.043c-.561-.044-.863-.304-.863-.738 0-.52.388-.823 1.036-.823.363-.013.723.078 1.037.26zm7.43-.737a.523.523 0 0 1 .39.13l-.173.474a.518.518 0 0 0-.346-.086c-.345 0-.561.26-.561.691v1.469h-.519v-2.592h.519v.302a.734.734 0 0 1 .69-.388zm-4.794.475h-.95v1.21c0 .259.129.431.388.431.166-.007.328-.052.475-.13l.173.476a1.197 1.197 0 0 1-.691.216c-.648 0-.864-.346-.864-.95v-1.21h-.562v-.475h.562v-.778h.518v.778h.95zm-8.943 2.16v-1.469c0-.432-.216-.691-.605-.691a.626.626 0 0 0-.648.691v1.469h-.518v-1.469c0-.432-.173-.691-.562-.691a.626.626 0 0 0-.648.691v1.469h-.518v-2.592h.518v.302a.92.92 0 0 1 .778-.389.946.946 0 0 1 .864.476c.188-.317.54-.501.907-.476a.963.963 0 0 1 .994 1.037v1.642z"/><path id="q866c" d="M832.515 1523.705a9.647 9.647 0 0 1 3.715-7.603 9.681 9.681 0 1 0-6.005 17.28 9.815 9.815 0 0 0 6.005-2.073 9.582 9.582 0 0 1-3.715-7.604"/><path id="q866d" d="M851.568 1529.709v-.389h-.087l-.13.26-.129-.26h-.086v.389h.086v-.303l.086.26h.087l.086-.26v.303zm-.605.008v-.31h.13v-.044h-.303v.044h.13l.043.31z"/><path id="q866e" d="M851.872 1523.708a9.66 9.66 0 0 1-9.677 9.677 9.815 9.815 0 0 1-6.005-2.074 9.638 9.638 0 0 0 0-15.206 9.69 9.69 0 0 1 15.682 7.603"/></defs><g><g transform="translate(-820 -1514)"><g><use fill="#ff5f00" xlink:href="#q866a"/></g><g><use fill="#211e1f" xlink:href="#q866b"/></g><g><use fill="#eb001b" xlink:href="#q866c"/></g><g><use fill="#f79e1b" xlink:href="#q866d"/></g><g><use fill="#f79e1b" xlink:href="#q866e"/></g></g></g></svg>