<?xml version="1.0" encoding="utf-8"?>
<svg width="171px" height="104px" viewBox="0 0 171 104" version="1.1" xmlns:xlink="http://www.w3.org/1999/xlink" xmlns="http://www.w3.org/2000/svg">
  <desc>Created with Lunacy</desc>
  <g id="payers-card">
    <path d="M162.533 0L8.4672 0Q8.25032 0 8.0349 0.00987064Q7.81948 0.0197413 7.60595 0.0394624Q7.39242 0.0591836 7.18122 0.088715Q6.97003 0.118246 6.76159 0.157528Q6.55315 0.196809 6.3479 0.245761Q6.14265 0.294712 5.94101 0.353233Q5.73936 0.411755 5.54173 0.479727Q5.3441 0.547699 5.15089 0.624983Q4.95768 0.702267 4.76929 0.788705Q4.58089 0.875143 4.39769 0.970559Q4.21449 1.06598 4.03687 1.17017Q3.85924 1.27437 3.68755 1.38714Q3.51586 1.49992 3.35045 1.62103Q3.18504 1.74214 3.02625 1.87134Q2.86747 2.00055 2.71563 2.13758Q2.56379 2.27462 2.4192 2.4192Q2.27462 2.56379 2.13758 2.71563Q2.00055 2.86747 1.87134 3.02625Q1.74214 3.18504 1.62103 3.35045Q1.49992 3.51586 1.38714 3.68755Q1.27437 3.85924 1.17017 4.03687Q1.06598 4.21449 0.970559 4.39769Q0.875143 4.58089 0.788705 4.76929Q0.702267 4.95768 0.624983 5.15089Q0.547699 5.3441 0.479727 5.54173Q0.411755 5.73936 0.353233 5.94101Q0.294712 6.14265 0.245761 6.3479Q0.196809 6.55315 0.157528 6.76159Q0.118246 6.97003 0.088715 7.18122Q0.0591836 7.39242 0.0394624 7.60595Q0.0197413 7.81948 0.00987064 8.0349Q0 8.25032 0 8.4672L0 95.5328Q0 95.7497 0.00987064 95.9651Q0.0197413 96.1805 0.0394624 96.3941Q0.0591836 96.6076 0.088715 96.8188Q0.118246 97.03 0.157528 97.2384Q0.196809 97.4469 0.245761 97.6521Q0.294712 97.8574 0.353233 98.059Q0.411755 98.2607 0.479727 98.4583Q0.547699 98.6559 0.624983 98.8491Q0.702267 99.0423 0.788705 99.2307Q0.875143 99.4191 0.970559 99.6023Q1.06598 99.7855 1.17017 99.9632Q1.27437 100.141 1.38714 100.312Q1.49992 100.484 1.62103 100.65Q1.74214 100.815 1.87134 100.974Q2.00055 101.133 2.13758 101.284Q2.27462 101.436 2.4192 101.581Q2.56379 101.725 2.71563 101.862Q2.86747 101.999 3.02625 102.129Q3.18504 102.258 3.35045 102.379Q3.51586 102.5 3.68755 102.613Q3.85924 102.726 4.03687 102.83Q4.21449 102.934 4.39769 103.029Q4.58089 103.125 4.76929 103.211Q4.95768 103.298 5.15089 103.375Q5.3441 103.452 5.54173 103.52Q5.73936 103.588 5.94101 103.647Q6.14265 103.705 6.3479 103.754Q6.55315 103.803 6.76159 103.842Q6.97003 103.882 7.18122 103.911Q7.39242 103.941 7.60595 103.961Q7.81948 103.98 8.0349 103.99Q8.25032 104 8.4672 104L162.533 104Q162.75 104 162.965 103.99Q163.181 103.98 163.394 103.961Q163.608 103.941 163.819 103.911Q164.03 103.882 164.238 103.842Q164.447 103.803 164.652 103.754Q164.857 103.705 165.059 103.647Q165.261 103.588 165.458 103.52Q165.656 103.452 165.849 103.375Q166.042 103.298 166.231 103.211Q166.419 103.125 166.602 103.029Q166.786 102.934 166.963 102.83Q167.141 102.726 167.312 102.613Q167.484 102.5 167.65 102.379Q167.815 102.258 167.974 102.129Q168.133 101.999 168.284 101.862Q168.436 101.725 168.581 101.581Q168.725 101.436 168.862 101.284Q168.999 101.133 169.129 100.974Q169.258 100.815 169.379 100.65Q169.5 100.484 169.613 100.312Q169.726 100.141 169.83 99.9632Q169.934 99.7855 170.029 99.6023Q170.125 99.4191 170.211 99.2307Q170.298 99.0423 170.375 98.8491Q170.452 98.6559 170.52 98.4583Q170.588 98.2607 170.647 98.059Q170.705 97.8574 170.754 97.6521Q170.803 97.4469 170.842 97.2384Q170.882 97.03 170.911 96.8188Q170.941 96.6076 170.961 96.3941Q170.98 96.1805 170.99 95.9651Q171 95.7497 171 95.5328L171 8.4672Q171 8.25032 170.99 8.0349Q170.98 7.81948 170.961 7.60595Q170.941 7.39242 170.911 7.18122Q170.882 6.97003 170.842 6.76159Q170.803 6.55315 170.754 6.3479Q170.705 6.14265 170.647 5.94101Q170.588 5.73936 170.52 5.54173Q170.452 5.3441 170.375 5.15089Q170.298 4.95768 170.211 4.76929Q170.125 4.58089 170.029 4.39769Q169.934 4.21449 169.83 4.03687Q169.726 3.85924 169.613 3.68755Q169.5 3.51586 169.379 3.35045Q169.258 3.18504 169.129 3.02625Q168.999 2.86747 168.862 2.71563Q168.725 2.56379 168.581 2.4192Q168.436 2.27462 168.284 2.13758Q168.133 2.00055 167.974 1.87134Q167.815 1.74214 167.65 1.62103Q167.484 1.49992 167.312 1.38714Q167.141 1.27437 166.963 1.17017Q166.786 1.06598 166.602 0.970559Q166.419 0.875143 166.231 0.788705Q166.042 0.702267 165.849 0.624983Q165.656 0.547699 165.458 0.479727Q165.261 0.411755 165.059 0.353233Q164.857 0.294712 164.652 0.245761Q164.447 0.196809 164.238 0.157528Q164.03 0.118246 163.819 0.088715Q163.608 0.0591836 163.394 0.0394624Q163.181 0.0197413 162.965 0.00987064Q162.75 0 162.533 0ZM103 6L69 6Q68.8975 6 68.7966 6.00932Q68.6956 6.01864 68.5971 6.03721Q68.4986 6.05578 68.4033 6.08344Q68.308 6.1111 68.2167 6.14762Q68.1254 6.18415 68.0388 6.22925Q67.9522 6.27435 67.871 6.32765Q67.7899 6.38095 67.7148 6.44202Q67.6398 6.50309 67.5714 6.57143Q67.5031 6.63977 67.442 6.71482Q67.381 6.78987 67.3277 6.87102Q67.2744 6.95217 67.2293 7.03876Q67.1842 7.12535 67.1476 7.21667Q67.1111 7.30799 67.0834 7.4033Q67.0558 7.49861 67.0372 7.59713Q67.0186 7.69564 67.0093 7.79657Q67 7.89749 67 8Q67 8.10251 67.0093 8.20343Q67.0186 8.30436 67.0372 8.40287Q67.0558 8.50139 67.0834 8.5967Q67.1111 8.69201 67.1476 8.78333Q67.1842 8.87465 67.2293 8.96124Q67.2744 9.04783 67.3277 9.12898Q67.381 9.21013 67.442 9.28518Q67.5031 9.36023 67.5714 9.42857Q67.6398 9.49691 67.7148 9.55798Q67.7899 9.61905 67.871 9.67235Q67.9522 9.72565 68.0388 9.77075Q68.1254 9.81585 68.2167 9.85238Q68.308 9.8889 68.4033 9.91656Q68.4986 9.94423 68.5971 9.96279Q68.6956 9.98136 68.7966 9.99068Q68.8975 10 69 10L103 10Q103.103 10 103.203 9.99068Q103.304 9.98136 103.403 9.96279Q103.501 9.94423 103.597 9.91656Q103.692 9.8889 103.783 9.85238Q103.875 9.81585 103.961 9.77075Q104.048 9.72565 104.129 9.67235Q104.21 9.61905 104.285 9.55798Q104.36 9.49691 104.429 9.42857Q104.497 9.36023 104.558 9.28518Q104.619 9.21013 104.672 9.12898Q104.726 9.04783 104.771 8.96124Q104.816 8.87465 104.852 8.78333Q104.889 8.69201 104.917 8.5967Q104.944 8.50139 104.963 8.40287Q104.981 8.30436 104.991 8.20343Q105 8.10251 105 8Q105 7.89749 104.991 7.79657Q104.981 7.69564 104.963 7.59713Q104.944 7.49861 104.917 7.4033Q104.889 7.30799 104.852 7.21667Q104.816 7.12535 104.771 7.03876Q104.726 6.95217 104.672 6.87102Q104.619 6.78987 104.558 6.71482Q104.497 6.63977 104.429 6.57143Q104.36 6.50309 104.285 6.44202Q104.21 6.38095 104.129 6.32765Q104.048 6.27435 103.961 6.22925Q103.875 6.18415 103.783 6.14762Q103.692 6.1111 103.597 6.08344Q103.501 6.05578 103.403 6.03721Q103.304 6.01864 103.203 6.00932Q103.103 6 103 6Z" id="Combined-Shape" fill="#001247" fill-rule="evenodd" stroke="none" />
    <path d="M1 0L35.4324 0Q35.5351 0 35.6339 0.0186045Q35.7326 0.037209 35.8241 0.0738122Q35.9156 0.110415 35.9969 0.163826Q36.0782 0.217236 36.1467 0.285714Q36.2152 0.354193 36.2686 0.43551Q36.322 0.516827 36.3586 0.608335Q36.3952 0.699843 36.4138 0.798563Q36.4324 0.897283 36.4324 1L36.4324 1.46849Q36.4324 1.5712 36.4138 1.66992Q36.3952 1.76864 36.3586 1.86015Q36.322 1.95166 36.2686 2.03298Q36.2152 2.11429 36.1467 2.18277Q36.0782 2.25125 35.9969 2.30466Q35.9156 2.35807 35.8241 2.39467Q35.7326 2.43128 35.6339 2.44988Q35.5351 2.46849 35.4324 2.46849L1 2.46849Q0.897283 2.46849 0.798563 2.44988Q0.699843 2.43128 0.608335 2.39467Q0.516827 2.35807 0.43551 2.30466Q0.354193 2.25125 0.285714 2.18277Q0.217236 2.11429 0.163826 2.03298Q0.110415 1.95166 0.0738122 1.86015Q0.037209 1.76864 0.0186045 1.66992Q0 1.5712 0 1.46849L0 1Q0 0.897283 0.0186045 0.798563Q0.037209 0.699843 0.0738122 0.608335Q0.110415 0.516827 0.163826 0.43551Q0.217236 0.354193 0.285714 0.285714Q0.354193 0.217236 0.43551 0.163826Q0.516827 0.110415 0.608335 0.0738122Q0.699843 0.037209 0.798563 0.0186045Q0.897283 0 1 0Z" transform="translate(67.43018 7.739624)" id="Rectangle" fill="#EAEBF0" stroke="none" />
    <g id="ps-logo" transform="translate(35.53662 36.15984)">
      <path d="M55.8242 12.7489C55.239 12.5956 55.0589 12.7489 54.9388 13.4119L54.8788 13.6543C54.7688 14.2776 54.8738 14.4112 55.4741 14.5794C56.3095 14.799 57.1708 14.9072 58.0352 14.901C60.7264 14.901 62.0369 14.0698 62.3621 12.2592C62.6172 10.8393 62.0819 10.1813 60.7914 9.59262L58.7455 8.65266C58.1352 8.35088 57.9401 8.14309 58.0202 7.68795C58.1202 7.13881 58.6004 6.91124 59.841 6.91124C60.5909 6.90455 61.3377 7.00792 62.0569 7.21797C62.6372 7.38617 62.8373 7.23281 62.9573 6.57483L62.9973 6.34726C63.1074 5.72391 62.9923 5.61013 62.3621 5.40234C61.6571 5.20798 60.9279 5.11304 60.1961 5.12035C57.66 5.12035 56.4045 5.93169 56.0943 7.68795C55.8492 9.06822 56.3244 9.70641 57.525 10.2555L59.4658 11.1609C60.3412 11.5962 60.5513 11.7991 60.4662 12.2938C60.3562 12.8974 59.846 13.1051 58.5454 13.1051C57.6261 13.1114 56.7103 12.9916 55.8242 12.7489ZM50.9121 13.8522C50.792 14.5349 50.587 14.7031 49.9117 14.7031L49.6615 14.7031C48.9762 14.7031 48.8362 14.5349 48.9562 13.8522L49.9167 8.47456Q50.5069 5.13025 54.1185 5.13025C54.2449 5.11883 54.3722 5.11883 54.4986 5.13025C55.1139 5.20446 55.259 5.35782 55.1389 6.0158L55.0939 6.28295C54.9839 6.90135 54.8238 7.03492 54.1735 6.94092C54.0471 6.9292 53.9198 6.9292 53.7933 6.94092C52.5178 6.94092 52.0626 7.43564 51.8575 8.60318L50.9121 13.8522ZM32.8042 12.2592C32.8443 13.0111 33.0593 13.1843 33.6696 13.1843C34.1298 13.1843 34.4299 12.9963 34.7351 12.2592L37.2362 6.17906C37.5113 5.49634 37.7364 5.32814 38.4567 5.32814L38.7018 5.32814C39.4121 5.32814 39.5121 5.49634 39.202 6.17906L35.6555 14.6932C34.565 17.2806 33.0643 18.6213 30.8284 18.8488C30.3282 18.9033 30.1231 18.7351 30.0931 18.1513L30.0931 17.9039C30.058 17.3746 30.2331 17.2262 30.7633 17.147C32.0939 16.9788 32.9543 16.2021 33.6596 14.713C33.372 14.8185 33.0655 14.864 32.7592 14.8466C31.3286 14.8466 31.0235 14.0896 30.8834 12.4274L30.3832 6.17906C30.3332 5.49634 30.4982 5.32814 31.2035 5.32814L31.4536 5.32814C32.159 5.32814 32.339 5.49634 32.3891 6.17906L32.8042 12.2592Z" transform="translate(36.90024 0.07440002)" id="Combined-Shape" fill="#FFFFFF" fill-rule="evenodd" stroke="none" />
      <path d="M16.3221 0L1.92083 0L0 1.45448L16.067 1.45448C22.6948 1.45448 27.1368 6.78756 25.9713 13.3278C24.8058 19.868 18.468 25.201 11.8251 25.201L4.16681 25.201L3.9067 26.6852L11.565 26.6852C19.0082 26.6852 26.1263 20.6991 27.4369 13.3278C28.7475 5.95643 23.7753 0 16.3221 0Z" transform="translate(11.12405 0.07440002)" id="Shape" fill="#FFFFFF" stroke="none" />
      <path d="M2.45607 0L1.47564 5.57055L0 5.57055L0.980425 0L2.45607 0Z" transform="translate(14.30543 25.31008)" id="Shape" fill="#FFFFFF" stroke="none" />
      <path d="M19.1883 0L1.92083 0L0 1.44953L18.9282 1.44953C24.0354 1.44953 27.4319 5.56065 26.5565 10.6068C25.6811 15.6529 20.769 19.769 15.6618 19.769L10.0944 19.769L5.59243 19.769L5.33231 21.2532L15.4067 21.2532C21.3193 21.2532 26.9817 16.494 28.0272 10.6414C29.0726 4.78889 25.1059 0 19.1883 0Z" transform="translate(7.512485 2.810203)" id="Shape" fill="#FFFFFF" stroke="none" />
      <path d="M2.85124 0L1.47564 7.57417L0 7.57417L1.3756 0L2.85124 0Z" transform="translate(11.73932 22.56933)" id="Shape" fill="#FFFFFF" stroke="none" />
      <path d="M22.0596 0L1.88582 0L0 1.44458L21.7995 1.44458C25.361 1.44458 27.747 4.30901 27.1218 7.83142C26.4965 11.3538 23.085 14.2282 19.5085 14.2282L6.923 14.2282L6.66289 15.6826L19.2634 15.6826C23.6353 15.6826 27.8171 12.1652 28.5874 7.84132C29.3577 3.51746 26.4315 0 22.0596 0Z" transform="translate(3.885911 5.580636)" id="Shape" fill="#FFFFFF" stroke="none" />
      <path d="M1.47564 11.0768L3.47151 0L1.99587 0L0 11.0768L1.47564 11.0768Z" transform="translate(8.813049 19.80384)" id="Shape" fill="#FFFFFF" stroke="none" />
      <path d="M1.47564 13.7136L3.9217 0L2.44606 0L0 13.7136L1.47564 13.7136Z" transform="translate(6.066858 17.16698)" id="Shape" fill="#FFFFFF" stroke="none" />
      <path d="M24.8458 0L1.91583 0L0 1.44953L24.5857 1.44953C25.5531 1.41632 26.4809 1.83107 27.0949 2.57123C27.7089 3.3114 27.939 4.29235 27.717 5.22424C27.2876 7.35189 25.4373 8.90961 23.2451 8.98906L18.5881 8.98906L18.5881 8.98906L8.12853 8.98906L7.86841 10.4732L23.01 10.4732C26.048 10.3477 28.6017 8.17613 29.1827 5.22424C29.6979 2.33508 27.747 0 24.8458 0Z" transform="translate(0.3843918 8.2076)" id="Shape" fill="#FFFFFF" stroke="none" />
      <path d="M1.47064 6.33242L2.61113 0L2.50609 0.0494721C2.00587 0.252307 1.50565 0.435354 1.03045 0.628295L0 6.33242L1.47064 6.33242Z" transform="translate(11.60926 24.54821)" id="Shape" fill="#FFFFFF" stroke="none" />
    </g>
  </g>
</svg>