<svg xmlns="http://www.w3.org/2000/svg" xmlns:xlink="http://www.w3.org/1999/xlink" width="52" height="14" viewBox="0 0 52 14"><defs><path id="o9lta" d="M772.047 1525.633c-.162.972-.891.972-1.62.972h-.486l.324-1.863c0-.081.081-.162.243-.162h.162c.486 0 .972 0 1.215.324.162.081.162.324.162.729m-.324-2.673h-2.754c-.162 0-.324.162-.405.324l-1.134 7.128c0 .162.081.243.243.243h1.458c.162 0 .243-.081.243-.243l.324-2.025c0-.162.162-.324.405-.324h.891c1.863 0 2.916-.891 3.159-2.673.162-.729 0-1.377-.324-1.782-.486-.405-1.215-.648-2.106-.648"/><path id="o9ltb" d="M752.197 1525.633c-.162.972-.891.972-1.62.972h-.405l.324-1.863c0-.081.081-.162.243-.162h.162c.486 0 .972 0 1.215.324.081.081.162.324.081.729m-.324-2.673h-2.754c-.162 0-.324.162-.405.324l-1.134 7.128c0 .162.081.243.243.243h1.296c.162 0 .324-.162.405-.324l.324-1.944c0-.162.162-.324.405-.324h.891c1.863 0 2.916-.891 3.159-2.673.162-.729 0-1.377-.324-1.782-.486-.405-1.134-.648-2.106-.648"/><path id="o9ltc" d="M758.355 1528.144c-.162.729-.73 1.296-1.54 1.296-.404 0-.728-.162-.89-.324-.162-.243-.243-.567-.243-.972a1.483 1.483 0 0 1 1.458-1.296c.405 0 .648.162.89.324.244.243.325.648.325.972m1.863-2.592h-1.296c-.081 0-.243.081-.243.162l-.081.405-.081-.162c-.324-.405-.891-.567-1.54-.567-1.457 0-2.753 1.134-2.996 2.673-.162.81.08 1.539.486 2.025.405.486.972.648 1.7.648 1.216 0 1.864-.729 1.864-.729l-.081.405c0 .162.08.243.243.243h1.215c.162 0 .324-.162.405-.324l.729-4.536c-.081-.081-.243-.243-.324-.243"/><path id="o9ltd" d="M778.125 1528.144c-.162.729-.73 1.296-1.54 1.296-.404 0-.728-.162-.89-.324-.162-.243-.243-.567-.243-.972a1.483 1.483 0 0 1 1.458-1.296c.405 0 .648.162.89.324.325.243.406.648.325.972m1.863-2.592h-1.296c-.081 0-.243.081-.243.162l-.081.405-.081-.162c-.324-.405-.891-.567-1.54-.567-1.457 0-2.753 1.134-2.996 2.673-.162.81.08 1.539.486 2.025.405.486.972.648 1.7.648 1.216 0 1.864-.729 1.864-.729l-.081.405c0 .162.08.243.243.243h1.215c.162 0 .324-.162.405-.324l.729-4.536c-.081-.081-.162-.243-.324-.243"/><path id="o9lte" d="M767.267 1525.55h-1.377c-.162 0-.243.081-.324.162l-1.782 2.754-.81-2.592c-.081-.162-.162-.243-.405-.243h-1.296c-.162 0-.243.162-.243.324l1.458 4.293-1.377 1.944c-.081.162 0 .405.162.405h1.296c.162 0 .243-.081.324-.162l4.455-6.399c.243-.243.081-.486-.081-.486"/><path id="o9ltf" d="M781.524 1523.204l-1.134 7.29c0 .162.081.243.243.243h1.134c.162 0 .324-.162.405-.324l1.134-7.128c0-.162-.081-.243-.243-.243h-1.296c-.081-.081-.162 0-.243.162"/><path id="o9ltg" d="M741.585 1520.532c-.567-.648-1.62-.972-3.078-.972h-4.05c-.243 0-.486.243-.567.486l-1.62 10.611c0 .243.162.405.324.405h2.511l.648-3.969v.162c.081-.243.324-.486.567-.486h1.215c2.349 0 4.131-.972 4.698-3.645v-.243c-.081 0-.081 0 0 0 .081-1.053-.081-1.701-.648-2.349"/><path id="o9lth" d="M742.16 1522.88v.243c-.567 2.754-2.349 3.645-4.698 3.645h-1.215c-.243 0-.486.243-.567.486l-.81 4.941c0 .162.081.324.324.324h2.106c.243 0 .486-.162.486-.405v-.081l.405-2.511v-.162c0-.243.243-.405.486-.405h.324c2.025 0 3.645-.81 4.05-3.24.162-.972.081-1.863-.405-2.43a.83.83 0 0 0-.486-.405"/><path id="o9lti" d="M741.592 1522.633c-.081 0-.162-.081-.243-.081-.081 0-.162 0-.243-.081-.324-.081-.648-.081-1.053-.081h-3.159c-.081 0-.162 0-.243.081a.445.445 0 0 0-.243.405l-.648 4.212v.162c.081-.243.324-.486.567-.486h1.215c2.349 0 4.131-.972 4.698-3.645 0-.081 0-.162.081-.243-.162-.081-.243-.162-.405-.162-.243-.081-.243-.081-.324-.081"/></defs><g><g transform="translate(-732 -1519)"><g><use fill="#139ad6" xlink:href="#o9lta"/></g><g><use fill="#263b80" xlink:href="#o9ltb"/></g><g><use fill="#263b80" xlink:href="#o9ltc"/></g><g><use fill="#139ad6" xlink:href="#o9ltd"/></g><g><g><use fill="#263b80" xlink:href="#o9lte"/></g><g><use fill="#139ad6" xlink:href="#o9ltf"/></g><g><use fill="#263b80" xlink:href="#o9ltg"/></g></g><g><use fill="#139ad6" xlink:href="#o9lth"/></g><g><use fill="#232c65" xlink:href="#o9lti"/></g></g></g></svg>