<?xml version="1.0" encoding="utf-8"?>
<svg width="171px" height="105px" viewBox="0 0 171 105" version="1.1" xmlns:xlink="http://www.w3.org/1999/xlink" xmlns="http://www.w3.org/2000/svg">
  <desc>Created with Lunacy</desc>
  <g id="ps-card">
    <g id="Group-4" transform="translate(0 0.9757776)">
      <path d="M162.533 0L8.4672 0Q8.25032 0 8.0349 0.00987064Q7.81948 0.0197413 7.60595 0.0394624Q7.39242 0.0591836 7.18122 0.088715Q6.97003 0.118246 6.76159 0.157528Q6.55315 0.196809 6.3479 0.245761Q6.14265 0.294712 5.94101 0.353233Q5.73936 0.411755 5.54173 0.479727Q5.3441 0.547699 5.15089 0.624983Q4.95768 0.702267 4.76929 0.788705Q4.58089 0.875143 4.39769 0.970559Q4.21449 1.06598 4.03687 1.17017Q3.85924 1.27437 3.68755 1.38714Q3.51586 1.49992 3.35045 1.62103Q3.18504 1.74214 3.02625 1.87134Q2.86747 2.00055 2.71563 2.13758Q2.56379 2.27462 2.4192 2.4192Q2.27462 2.56379 2.13758 2.71563Q2.00055 2.86747 1.87134 3.02625Q1.74214 3.18504 1.62103 3.35045Q1.49992 3.51586 1.38714 3.68755Q1.27437 3.85924 1.17017 4.03687Q1.06598 4.21449 0.970559 4.39769Q0.875143 4.58089 0.788705 4.76929Q0.702267 4.95768 0.624983 5.15089Q0.547699 5.3441 0.479727 5.54173Q0.411755 5.73936 0.353233 5.94101Q0.294712 6.14265 0.245761 6.3479Q0.196809 6.55315 0.157528 6.76159Q0.118246 6.97003 0.088715 7.18122Q0.0591836 7.39242 0.0394624 7.60595Q0.0197413 7.81948 0.00987064 8.0349Q0 8.25032 0 8.4672L0 95.5328Q0 95.7497 0.00987064 95.9651Q0.0197413 96.1805 0.0394624 96.3941Q0.0591836 96.6076 0.088715 96.8188Q0.118246 97.03 0.157528 97.2384Q0.196809 97.4469 0.245761 97.6521Q0.294712 97.8574 0.353233 98.059Q0.411755 98.2607 0.479727 98.4583Q0.547699 98.6559 0.624983 98.8491Q0.702267 99.0423 0.788705 99.2307Q0.875143 99.4191 0.970559 99.6023Q1.06598 99.7855 1.17017 99.9632Q1.27437 100.141 1.38714 100.312Q1.49992 100.484 1.62103 100.65Q1.74214 100.815 1.87134 100.974Q2.00055 101.133 2.13758 101.284Q2.27462 101.436 2.4192 101.581Q2.56379 101.725 2.71563 101.862Q2.86747 101.999 3.02625 102.129Q3.18504 102.258 3.35045 102.379Q3.51586 102.5 3.68755 102.613Q3.85924 102.726 4.03687 102.83Q4.21449 102.934 4.39769 103.029Q4.58089 103.125 4.76929 103.211Q4.95768 103.298 5.15089 103.375Q5.3441 103.452 5.54173 103.52Q5.73936 103.588 5.94101 103.647Q6.14265 103.705 6.3479 103.754Q6.55315 103.803 6.76159 103.842Q6.97003 103.882 7.18122 103.911Q7.39242 103.941 7.60595 103.961Q7.81948 103.98 8.0349 103.99Q8.25032 104 8.4672 104L162.533 104Q162.75 104 162.965 103.99Q163.181 103.98 163.394 103.961Q163.608 103.941 163.819 103.911Q164.03 103.882 164.238 103.842Q164.447 103.803 164.652 103.754Q164.857 103.705 165.059 103.647Q165.261 103.588 165.458 103.52Q165.656 103.452 165.849 103.375Q166.042 103.298 166.231 103.211Q166.419 103.125 166.602 103.029Q166.786 102.934 166.963 102.83Q167.141 102.726 167.312 102.613Q167.484 102.5 167.65 102.379Q167.815 102.258 167.974 102.129Q168.133 101.999 168.284 101.862Q168.436 101.725 168.581 101.581Q168.725 101.436 168.862 101.284Q168.999 101.133 169.129 100.974Q169.258 100.815 169.379 100.65Q169.5 100.484 169.613 100.312Q169.726 100.141 169.83 99.9632Q169.934 99.7855 170.029 99.6023Q170.125 99.4191 170.211 99.2307Q170.298 99.0423 170.375 98.8491Q170.452 98.6559 170.52 98.4583Q170.588 98.2607 170.647 98.059Q170.705 97.8574 170.754 97.6521Q170.803 97.4469 170.842 97.2384Q170.882 97.03 170.911 96.8188Q170.941 96.6076 170.961 96.3941Q170.98 96.1805 170.99 95.9651Q171 95.7497 171 95.5328L171 8.4672Q171 8.25032 170.99 8.0349Q170.98 7.81948 170.961 7.60595Q170.941 7.39242 170.911 7.18122Q170.882 6.97003 170.842 6.76159Q170.803 6.55315 170.754 6.3479Q170.705 6.14265 170.647 5.94101Q170.588 5.73936 170.52 5.54173Q170.452 5.3441 170.375 5.15089Q170.298 4.95768 170.211 4.76929Q170.125 4.58089 170.029 4.39769Q169.934 4.21449 169.83 4.03687Q169.726 3.85924 169.613 3.68755Q169.5 3.51586 169.379 3.35045Q169.258 3.18504 169.129 3.02625Q168.999 2.86747 168.862 2.71563Q168.725 2.56379 168.581 2.4192Q168.436 2.27462 168.284 2.13758Q168.133 2.00055 167.974 1.87134Q167.815 1.74214 167.65 1.62103Q167.484 1.49992 167.312 1.38714Q167.141 1.27437 166.963 1.17017Q166.786 1.06598 166.602 0.970559Q166.419 0.875143 166.231 0.788705Q166.042 0.702267 165.849 0.624983Q165.656 0.547699 165.458 0.479727Q165.261 0.411755 165.059 0.353233Q164.857 0.294712 164.652 0.245761Q164.447 0.196809 164.238 0.157528Q164.03 0.118246 163.819 0.088715Q163.608 0.0591836 163.394 0.0394624Q163.181 0.0197413 162.965 0.00987064Q162.75 0 162.533 0ZM103 6L69 6Q68.8975 6 68.7966 6.00932Q68.6956 6.01864 68.5971 6.03721Q68.4986 6.05578 68.4033 6.08344Q68.308 6.1111 68.2167 6.14762Q68.1254 6.18415 68.0388 6.22925Q67.9522 6.27435 67.871 6.32765Q67.7899 6.38095 67.7148 6.44202Q67.6398 6.50309 67.5714 6.57143Q67.5031 6.63977 67.442 6.71482Q67.381 6.78987 67.3277 6.87102Q67.2744 6.95217 67.2293 7.03876Q67.1842 7.12535 67.1476 7.21667Q67.1111 7.30799 67.0834 7.4033Q67.0558 7.49861 67.0372 7.59713Q67.0186 7.69564 67.0093 7.79657Q67 7.89749 67 8Q67 8.10251 67.0093 8.20343Q67.0186 8.30436 67.0372 8.40287Q67.0558 8.50139 67.0834 8.5967Q67.1111 8.69201 67.1476 8.78333Q67.1842 8.87465 67.2293 8.96124Q67.2744 9.04783 67.3277 9.12898Q67.381 9.21013 67.442 9.28518Q67.5031 9.36023 67.5714 9.42857Q67.6398 9.49691 67.7148 9.55798Q67.7899 9.61905 67.871 9.67235Q67.9522 9.72565 68.0388 9.77075Q68.1254 9.81585 68.2167 9.85238Q68.308 9.8889 68.4033 9.91656Q68.4986 9.94423 68.5971 9.96279Q68.6956 9.98136 68.7966 9.99068Q68.8975 10 69 10L103 10Q103.103 10 103.203 9.99068Q103.304 9.98136 103.403 9.96279Q103.501 9.94423 103.597 9.91656Q103.692 9.8889 103.783 9.85238Q103.875 9.81585 103.961 9.77075Q104.048 9.72565 104.129 9.67235Q104.21 9.61905 104.285 9.55798Q104.36 9.49691 104.429 9.42857Q104.497 9.36023 104.558 9.28518Q104.619 9.21013 104.672 9.12898Q104.726 9.04783 104.771 8.96124Q104.816 8.87465 104.852 8.78333Q104.889 8.69201 104.917 8.5967Q104.944 8.50139 104.963 8.40287Q104.981 8.30436 104.991 8.20343Q105 8.10251 105 8Q105 7.89749 104.991 7.79657Q104.981 7.69564 104.963 7.59713Q104.944 7.49861 104.917 7.4033Q104.889 7.30799 104.852 7.21667Q104.816 7.12535 104.771 7.03876Q104.726 6.95217 104.672 6.87102Q104.619 6.78987 104.558 6.71482Q104.497 6.63977 104.429 6.57143Q104.36 6.50309 104.285 6.44202Q104.21 6.38095 104.129 6.32765Q104.048 6.27435 103.961 6.22925Q103.875 6.18415 103.783 6.14762Q103.692 6.1111 103.597 6.08344Q103.501 6.05578 103.403 6.03721Q103.304 6.01864 103.203 6.00932Q103.103 6 103 6Z" id="Combined-Shape-Copy" fill="#1370B5" fill-rule="evenodd" stroke="none" />
      <path d="M52.53 31.3088C51.4947 32.615 48.9581 33.5468 48.9581 33.5468C48.9581 33.5468 30.0888 40.3245 30.0888 40.3245C30.0888 40.3245 30.0888 35.3261 30.0888 35.3261C30.0888 35.3261 43.9754 30.3782 43.9754 30.3782C45.5512 29.8136 45.7932 29.0154 44.5123 28.5965C43.2338 28.1763 40.9188 28.2967 39.3417 28.8638C39.3417 28.8638 30.0888 32.1226 30.0888 32.1226C30.0888 32.1226 30.0888 26.9352 30.0888 26.9352C30.0888 26.9352 30.6221 26.7546 30.6221 26.7546C30.6221 26.7546 33.2959 25.8084 37.0556 25.3918C40.8152 24.9777 45.4188 25.4484 49.0328 26.8184C53.1054 28.1053 53.5641 30.0026 52.53 31.3088ZM31.885 22.7975C31.885 22.7975 31.885 10.0149 31.885 10.0149C31.885 8.5137 31.6081 7.13167 30.1996 6.74041C29.1209 6.39491 28.4516 7.39652 28.4516 8.89653C28.4516 8.89653 28.4516 40.9072 28.4516 40.9072C28.4516 40.9072 19.8187 38.1672 19.8187 38.1672C19.8187 38.1672 19.8187 0 19.8187 0C23.4893 0.681386 28.8368 2.29215 31.7116 3.26126C39.0227 5.77131 41.5014 8.89532 41.5014 15.9343C41.5014 22.7951 37.2663 25.3954 31.885 22.7975L31.885 22.7975ZM3.97831 34.8036C-0.202692 33.6262 -0.898523 31.1728 1.00719 29.7594C2.76844 28.4544 5.76364 27.4721 5.76364 27.4721C5.76364 27.4721 18.1417 23.0708 18.1417 23.0708C18.1417 23.0708 18.1417 28.0885 18.1417 28.0885C18.1417 28.0885 9.23437 31.2763 9.23437 31.2763C7.66092 31.8409 7.41895 32.6403 8.69745 33.0592C9.97715 33.4781 12.2934 33.359 13.8692 32.7932C13.8692 32.7932 18.1417 31.2426 18.1417 31.2426C18.1417 31.2426 18.1417 35.7318 18.1417 35.7318C17.8709 35.7799 17.5687 35.8281 17.2894 35.875C13.0157 36.5733 8.4639 36.2819 3.97831 34.8036L3.97831 34.8036ZM49.7804 36.7912C50.3209 36.7912 50.8277 37.0006 51.2094 37.3871C51.591 37.7675 51.8017 38.2755 51.8017 38.8149C51.8017 39.3566 51.591 39.8622 51.2094 40.2426C50.8277 40.6267 50.3209 40.8361 49.7804 40.8361C49.2398 40.8361 48.7342 40.6267 48.3514 40.2426C47.9698 39.8622 47.7603 39.3566 47.7603 38.8149C47.7603 37.7001 48.6656 36.7912 49.7804 36.7912ZM48.0998 38.8149C48.0998 39.2639 48.2743 39.6865 48.5922 40.0019C48.9088 40.3221 49.3325 40.4954 49.7804 40.4954C50.7085 40.4954 51.461 39.7418 51.461 38.8149C51.461 38.3646 51.2876 37.9421 50.9686 37.6254C50.652 37.3052 50.2282 37.1331 49.7804 37.1331C49.3325 37.1331 48.9088 37.3052 48.5922 37.6254C48.2743 37.9421 48.0998 38.3646 48.0998 38.8149L48.0998 38.8149ZM50.3907 37.7254C50.6122 37.8229 50.7242 38.0107 50.7242 38.2779C50.7242 38.4152 50.6953 38.5308 50.6363 38.621C50.5942 38.6861 50.534 38.739 50.4666 38.7848C50.5195 38.8161 50.5665 38.8534 50.6014 38.8967C50.6496 38.9593 50.6773 39.0592 50.6809 39.1953C50.6809 39.1953 50.6917 39.483 50.6917 39.483C50.6953 39.5601 50.7001 39.619 50.7122 39.6552C50.7242 39.7081 50.7471 39.7418 50.776 39.7527C50.776 39.7527 50.8061 39.7671 50.8061 39.7671C50.8061 39.7671 50.8061 39.7996 50.8061 39.7996C50.8061 39.7996 50.8061 39.849 50.8061 39.849C50.8061 39.849 50.8061 39.8983 50.8061 39.8983C50.8061 39.8983 50.7567 39.8983 50.7567 39.8983C50.7567 39.8983 50.3992 39.8983 50.3992 39.8983C50.3992 39.8983 50.3703 39.8983 50.3703 39.8983C50.3703 39.8983 50.3558 39.8731 50.3558 39.8731C50.3438 39.849 50.3354 39.8213 50.3269 39.7852C50.3209 39.7527 50.3149 39.6961 50.3113 39.6094C50.3113 39.6094 50.2932 39.2519 50.2932 39.2519C50.2884 39.1279 50.2463 39.0508 50.1668 39.0099C50.1175 38.987 50.0356 38.9762 49.9248 38.9762C49.9248 38.9762 49.3121 38.9762 49.3121 38.9762C49.3121 38.9762 49.3121 39.849 49.3121 39.849C49.3121 39.849 49.3121 39.8984 49.3121 39.8984C49.3121 39.8984 49.2615 39.8984 49.2615 39.8984C49.2615 39.8984 48.9702 39.8984 48.9702 39.8984C48.9702 39.8984 48.9208 39.8984 48.9208 39.8984C48.9208 39.8984 48.9208 39.849 48.9208 39.849C48.9208 39.849 48.9208 37.6977 48.9208 37.6977C48.9208 37.6977 48.9208 37.6483 48.9208 37.6483C48.9208 37.6483 48.9702 37.6483 48.9702 37.6483C48.9702 37.6483 49.9658 37.6483 49.9658 37.6483C50.1367 37.6483 50.28 37.6736 50.3907 37.7254L50.3907 37.7254ZM49.3121 38.6319C49.3121 38.6319 49.9357 38.6319 49.9357 38.6319C50.0609 38.6319 50.1608 38.609 50.2318 38.562C50.2968 38.5151 50.3281 38.4296 50.3281 38.3056C50.3281 38.1708 50.2836 38.0829 50.1897 38.036C50.1379 38.0107 50.0657 37.9962 49.9742 37.9962C49.9742 37.9962 49.3121 37.9962 49.3121 37.9962C49.3121 37.9962 49.3121 38.6319 49.3121 38.6319Z" transform="translate(58.92549 31.44344)" id="path-1" fill="#FFFFFF" stroke="none" />
    </g>
    <path d="M1 0L35.4324 0Q35.5351 0 35.6339 0.0186045Q35.7326 0.037209 35.8241 0.0738122Q35.9156 0.110415 35.9969 0.163826Q36.0782 0.217236 36.1467 0.285714Q36.2152 0.354193 36.2686 0.43551Q36.322 0.516827 36.3586 0.608335Q36.3952 0.699843 36.4138 0.798563Q36.4324 0.897283 36.4324 1L36.4324 1.46849Q36.4324 1.5712 36.4138 1.66992Q36.3952 1.76864 36.3586 1.86015Q36.322 1.95166 36.2686 2.03298Q36.2152 2.11429 36.1467 2.18277Q36.0782 2.25125 35.9969 2.30466Q35.9156 2.35807 35.8241 2.39467Q35.7326 2.43128 35.6339 2.44988Q35.5351 2.46849 35.4324 2.46849L1 2.46849Q0.897283 2.46849 0.798563 2.44988Q0.699843 2.43128 0.608335 2.39467Q0.516827 2.35807 0.43551 2.30466Q0.354193 2.25125 0.285714 2.18277Q0.217236 2.11429 0.163826 2.03298Q0.110415 1.95166 0.0738122 1.86015Q0.037209 1.76864 0.0186045 1.66992Q0 1.5712 0 1.46849L0 1Q0 0.897283 0.0186045 0.798563Q0.037209 0.699843 0.0738122 0.608335Q0.110415 0.516827 0.163826 0.43551Q0.217236 0.354193 0.285714 0.285714Q0.354193 0.217236 0.43551 0.163826Q0.516827 0.110415 0.608335 0.0738122Q0.699843 0.037209 0.798563 0.0186045Q0.897283 0 1 0Z" transform="translate(67.02802 8.214701)" id="Rectangle" fill="#EAEBF0" stroke="none" />
  </g>
</svg>