<svg xmlns="http://www.w3.org/2000/svg" xmlns:xlink="http://www.w3.org/1999/xlink" width="37" height="13" viewBox="0 0 37 13"><defs><path id="zieja" d="M669.972 1520.762l-4.839 11.572h-3.185l-2.379-9.274a1.363 1.363 0 0 0-.685-1.008 12.297 12.297 0 0 0-2.984-.967l.08-.323h5.121c.695.004 1.28.52 1.371 1.21l1.21 6.653 3.104-7.903h3.186zm7.22 11.733a7.883 7.883 0 0 1-3.35-.604l.565-2.54c.958.5 2.028.75 3.109.725.847 0 1.816-.363 1.816-1.129 0-.484-.444-.887-1.574-1.451-1.13-.565-2.664-1.452-2.624-3.145.04-2.258 2.099-3.83 5.086-3.83a7.523 7.523 0 0 1 2.825.523l-.524 2.46a5.903 5.903 0 0 0-2.987-.524c-.888.12-1.292.524-1.292.967-.04 1.371 4.198 1.533 4.198 4.597-.04 2.42-2.099 3.992-5.247 3.951zm12.65-1.895h-3.867l-.604 1.734h-3.142l4.512-10.725a1.366 1.366 0 0 1 1.289-.847h2.578l2.417 11.572h-2.78zm-.436-2.379l-.927-4.354-1.573 4.354zm-15.15-7.459l-2.464 11.572h-2.99l2.464-11.572z"/></defs><g><g transform="translate(-656 -1520)"><use fill="#293688" xlink:href="#zieja"/></g></g></svg>