<?xml version="1.0" encoding="utf-8"?>
<svg width="45px" height="14px" viewBox="0 0 45 14" version="1.1" xmlns:xlink="http://www.w3.org/1999/xlink" xmlns="http://www.w3.org/2000/svg">
  <desc>Created with Lunacy</desc>
  <path d="M27.8803 10.5911C25.2687 12.516 21.4834 13.543 18.2243 13.543C13.6545 13.543 9.54057 11.8528 6.4282 9.04173C6.18367 8.82068 6.40277 8.51942 6.6962 8.69156C10.0551 10.6458 14.2082 11.8215 18.4982 11.8215C21.3915 11.8215 24.5743 11.2229 27.5008 9.98073C27.9429 9.79293 28.3126 10.2702 27.8803 10.5911ZM28.966 9.34886C28.6335 8.9224 26.7594 9.14737 25.9182 9.24714C25.6619 9.27844 25.6228 9.05543 25.8536 8.89501C27.3462 7.84451 29.7955 8.14773 30.0811 8.49985C30.3667 8.85393 30.0067 11.309 28.6041 12.4808C28.3889 12.6608 28.1835 12.5649 28.2794 12.3263C28.5943 11.5398 29.3005 9.77728 28.966 9.34886ZM25.9769 1.47892L25.9769 0.45776C25.9769 0.303217 26.0943 0.199536 26.2351 0.199536L30.8068 0.199536C30.9536 0.199536 31.0709 0.305173 31.0709 0.45776L31.0709 1.3322C31.069 1.47892 30.9457 1.67063 30.7266 1.97384L28.3576 5.35618C29.2379 5.33466 30.1671 5.46573 30.9653 5.91566C31.1453 6.01739 31.1942 6.16606 31.2079 6.31278L31.2079 7.4024C31.2079 7.55108 31.0435 7.72518 30.8714 7.6352C29.4649 6.89769 27.5966 6.81749 26.0414 7.64302C25.883 7.7291 25.7167 7.55695 25.7167 7.40827L25.7167 6.37342C25.7167 6.20714 25.7187 5.92349 25.8849 5.67113L28.6295 1.73518L26.241 1.73518C26.0943 1.73518 25.9769 1.6315 25.9769 1.47892L25.9769 1.47892ZM9.29995 7.85038L7.90907 7.85038C7.77605 7.8406 7.67041 7.74083 7.66063 7.61368L7.66063 0.475367C7.66063 0.332562 7.77996 0.219099 7.92863 0.219099L9.22562 0.219099C9.3606 0.224964 9.46819 0.328648 9.47797 0.45776L9.47797 1.39089L9.5034 1.39089C9.84183 0.489059 10.4776 0.0684684 11.3344 0.0684684C12.205 0.0684684 12.7488 0.489059 13.14 1.39089C13.4765 0.489059 14.2414 0.0684684 15.0611 0.0684684C15.644 0.0684684 16.2818 0.309085 16.6711 0.849007C17.1112 1.44957 17.0212 2.32205 17.0212 3.08694L17.0193 7.59216C17.0193 7.73497 16.8999 7.85038 16.7513 7.85038L15.3623 7.85038C15.2234 7.8406 15.1119 7.7291 15.1119 7.59216L15.1119 3.8088C15.1119 3.50753 15.1393 2.75634 15.0728 2.47073C14.9691 1.99145 14.6581 1.85647 14.2551 1.85647C13.9186 1.85647 13.5665 2.08144 13.4237 2.44139C13.2809 2.80133 13.2946 3.40385 13.2946 3.8088L13.2946 7.59216C13.2946 7.73497 13.1753 7.85038 13.0266 7.85038L11.6377 7.85038C11.4968 7.8406 11.3873 7.7291 11.3873 7.59216L11.3853 3.8088C11.3853 3.01261 11.5164 1.84082 10.5285 1.84082C9.52883 1.84082 9.56796 2.98326 9.56796 3.8088L9.56796 7.59216C9.56796 7.73497 9.44863 7.85038 9.29995 7.85038ZM35.0069 0.0684684C37.0707 0.0684684 38.1877 1.84082 38.1877 4.09441C38.1877 6.2717 36.9533 7.99906 35.0069 7.99906C32.9802 7.99906 31.8769 6.22671 31.8769 4.01811C31.8769 1.79583 32.9939 0.0684684 35.0069 0.0684684ZM35.0186 1.52587C33.9935 1.52587 33.929 2.92262 33.929 3.79315C33.929 4.66563 33.9153 6.52797 35.0069 6.52797C36.0848 6.52797 36.1356 5.02558 36.1356 4.11005C36.1356 3.50753 36.1102 2.78764 35.9283 2.21642C35.7718 1.71953 35.4607 1.52587 35.0186 1.52587ZM40.8639 7.85038L39.4788 7.85038C39.3399 7.8406 39.2284 7.7291 39.2284 7.59216L39.2265 0.451891C39.2382 0.320823 39.3536 0.219099 39.4945 0.219099L40.7836 0.219099C40.9049 0.224964 41.0047 0.30713 41.0321 0.418635L41.0321 1.51022L41.0575 1.51022C41.4468 0.534053 41.9926 0.0684684 42.9531 0.0684684C43.5772 0.0684684 44.1855 0.293436 44.5768 0.90965C44.9407 1.48087 44.9407 2.44139 44.9407 3.13194L44.9407 7.62542C44.925 7.75061 44.8096 7.85038 44.6726 7.85038L43.2779 7.85038C43.1507 7.8406 43.0451 7.7467 43.0314 7.62542L43.0314 3.74815C43.0314 2.96761 43.1213 1.82517 42.1608 1.82517C41.8224 1.82517 41.5114 2.05209 41.3568 2.39639C41.1612 2.83263 41.1358 3.26692 41.1358 3.74815L41.1358 7.59216C41.1338 7.73497 41.0125 7.85038 40.8639 7.85038L40.8639 7.85038ZM22.3324 4.44066L22.3324 4.1394C21.3269 4.1394 20.2647 4.35459 20.2647 5.54007C20.2647 6.14063 20.5757 6.54753 21.1098 6.54753C21.501 6.54753 21.8512 6.30691 22.0722 5.91566C22.3461 5.43443 22.3324 4.98254 22.3324 4.44066ZM23.735 7.83082C23.6431 7.91298 23.5101 7.91885 23.4064 7.86408C22.9447 7.48065 22.8626 7.30264 22.6082 6.93682C21.8453 7.7154 21.3054 7.94819 20.3155 7.94819C19.1457 7.94819 18.2341 7.22634 18.2341 5.78068C18.2341 4.65193 18.8464 3.88313 19.7169 3.50754C20.472 3.17497 21.5264 3.11629 22.3324 3.02434L22.3324 2.84437C22.3324 2.51377 22.3578 2.12252 22.1642 1.83691C21.994 1.58064 21.6692 1.475 21.3836 1.475C20.8535 1.475 20.3801 1.74692 20.2647 2.31032C20.2412 2.43552 20.1492 2.55876 20.024 2.56463L18.6742 2.41987C18.5608 2.39444 18.4356 2.30249 18.4669 2.12839C18.7779 0.492973 20.2549 0 21.5773 0C22.2542 0 23.1384 0.179974 23.6724 0.692508C24.3493 1.32437 24.2847 2.16751 24.2847 3.08499L24.2847 5.2525C24.2847 5.90393 24.5547 6.18954 24.809 6.54166C24.899 6.66686 24.9186 6.81749 24.8051 6.91139C24.5214 7.14809 24.0167 7.58825 23.7389 7.83473L23.735 7.83082L23.735 7.83082ZM4.09832 4.44066L4.09832 4.1394C3.09281 4.1394 2.03057 4.35459 2.03057 5.54007C2.03057 6.14063 2.34162 6.54753 2.87567 6.54753C3.26692 6.54753 3.61708 6.30691 3.83814 5.91566C4.11201 5.43443 4.09832 4.98254 4.09832 4.44066ZM5.50094 7.83082C5.409 7.91298 5.27597 7.91885 5.17229 7.86408C4.71062 7.48065 4.62846 7.30264 4.37415 6.93682C3.61121 7.7154 3.07129 7.94819 2.08144 7.94819C0.911605 7.94819 0 7.22634 0 5.78068C0 4.65193 0.612302 3.88313 1.48283 3.50754C2.23794 3.17497 3.29235 3.11629 4.09832 3.02434L4.09832 2.84437C4.09832 2.51377 4.12375 2.12252 3.93008 1.83691C3.75989 1.58064 3.43515 1.475 3.14954 1.475C2.6194 1.475 2.14599 1.74692 2.03057 2.31032C2.0071 2.43552 1.91516 2.55876 1.78996 2.56463L0.440154 2.41987C0.326692 2.39444 0.201492 2.30249 0.232792 2.12839C0.543834 0.492973 2.02079 0 3.34321 0C4.02007 0 4.90429 0.179974 5.43834 0.692508C6.1152 1.32437 6.05064 2.16751 6.05064 3.08499L6.05064 5.2525C6.05064 5.90393 6.3206 6.18954 6.57492 6.54166C6.6649 6.66686 6.68446 6.81749 6.571 6.91139C6.28735 7.14809 5.78264 7.58825 5.50485 7.83473L5.50094 7.83082L5.50094 7.83082Z" id="Shape" fill="#080607" stroke="none" />
</svg>