<?xml version="1.0" encoding="utf-8"?>
<svg width="171px" height="104px" viewBox="0 0 171 104" version="1.1" xmlns:xlink="http://www.w3.org/1999/xlink" xmlns="http://www.w3.org/2000/svg">
  <desc>Created with Lunacy</desc>
  <path d="M162.533 0L8.4672 0Q8.25032 0 8.0349 0.00987064Q7.81948 0.0197413 7.60595 0.0394624Q7.39242 0.0591836 7.18122 0.088715Q6.97003 0.118246 6.76159 0.157528Q6.55315 0.196809 6.3479 0.245761Q6.14265 0.294712 5.94101 0.353233Q5.73936 0.411755 5.54173 0.479727Q5.3441 0.547699 5.15089 0.624983Q4.95768 0.702267 4.76929 0.788705Q4.58089 0.875143 4.39769 0.970559Q4.21449 1.06598 4.03687 1.17017Q3.85924 1.27437 3.68755 1.38714Q3.51586 1.49992 3.35045 1.62103Q3.18504 1.74214 3.02625 1.87134Q2.86747 2.00055 2.71563 2.13758Q2.56379 2.27462 2.4192 2.4192Q2.27462 2.56379 2.13758 2.71563Q2.00055 2.86747 1.87134 3.02625Q1.74214 3.18504 1.62103 3.35045Q1.49992 3.51586 1.38714 3.68755Q1.27437 3.85924 1.17017 4.03687Q1.06598 4.21449 0.970559 4.39769Q0.875143 4.58089 0.788705 4.76929Q0.702267 4.95768 0.624983 5.15089Q0.547699 5.3441 0.479727 5.54173Q0.411755 5.73936 0.353233 5.94101Q0.294712 6.14265 0.245761 6.3479Q0.196809 6.55315 0.157528 6.76159Q0.118246 6.97003 0.088715 7.18122Q0.0591836 7.39242 0.0394624 7.60595Q0.0197413 7.81948 0.00987064 8.0349Q0 8.25032 0 8.4672L0 95.5328Q0 95.7497 0.00987064 95.9651Q0.0197413 96.1805 0.0394624 96.3941Q0.0591836 96.6076 0.088715 96.8188Q0.118246 97.03 0.157528 97.2384Q0.196809 97.4469 0.245761 97.6521Q0.294712 97.8574 0.353233 98.059Q0.411755 98.2607 0.479727 98.4583Q0.547699 98.6559 0.624983 98.8491Q0.702267 99.0423 0.788705 99.2307Q0.875143 99.4191 0.970559 99.6023Q1.06598 99.7855 1.17017 99.9632Q1.27437 100.141 1.38714 100.312Q1.49992 100.484 1.62103 100.65Q1.74214 100.815 1.87134 100.974Q2.00055 101.133 2.13758 101.284Q2.27462 101.436 2.4192 101.581Q2.56379 101.725 2.71563 101.862Q2.86747 101.999 3.02625 102.129Q3.18504 102.258 3.35045 102.379Q3.51586 102.5 3.68755 102.613Q3.85924 102.726 4.03687 102.83Q4.21449 102.934 4.39769 103.029Q4.58089 103.125 4.76929 103.211Q4.95768 103.298 5.15089 103.375Q5.3441 103.452 5.54173 103.52Q5.73936 103.588 5.94101 103.647Q6.14265 103.705 6.3479 103.754Q6.55315 103.803 6.76159 103.842Q6.97003 103.882 7.18122 103.911Q7.39242 103.941 7.60595 103.961Q7.81948 103.98 8.0349 103.99Q8.25032 104 8.4672 104L162.533 104Q162.75 104 162.965 103.99Q163.181 103.98 163.394 103.961Q163.608 103.941 163.819 103.911Q164.03 103.882 164.238 103.842Q164.447 103.803 164.652 103.754Q164.857 103.705 165.059 103.647Q165.261 103.588 165.458 103.52Q165.656 103.452 165.849 103.375Q166.042 103.298 166.231 103.211Q166.419 103.125 166.602 103.029Q166.786 102.934 166.963 102.83Q167.141 102.726 167.312 102.613Q167.484 102.5 167.65 102.379Q167.815 102.258 167.974 102.129Q168.133 101.999 168.284 101.862Q168.436 101.725 168.581 101.581Q168.725 101.436 168.862 101.284Q168.999 101.133 169.129 100.974Q169.258 100.815 169.379 100.65Q169.5 100.484 169.613 100.312Q169.726 100.141 169.83 99.9632Q169.934 99.7855 170.029 99.6023Q170.125 99.4191 170.211 99.2307Q170.298 99.0423 170.375 98.8491Q170.452 98.6559 170.52 98.4583Q170.588 98.2607 170.647 98.059Q170.705 97.8574 170.754 97.6521Q170.803 97.4469 170.842 97.2384Q170.882 97.03 170.911 96.8188Q170.941 96.6076 170.961 96.3941Q170.98 96.1805 170.99 95.9651Q171 95.7497 171 95.5328L171 8.4672Q171 8.25032 170.99 8.0349Q170.98 7.81948 170.961 7.60595Q170.941 7.39242 170.911 7.18122Q170.882 6.97003 170.842 6.76159Q170.803 6.55315 170.754 6.3479Q170.705 6.14265 170.647 5.94101Q170.588 5.73936 170.52 5.54173Q170.452 5.3441 170.375 5.15089Q170.298 4.95768 170.211 4.76929Q170.125 4.58089 170.029 4.39769Q169.934 4.21449 169.83 4.03687Q169.726 3.85924 169.613 3.68755Q169.5 3.51586 169.379 3.35045Q169.258 3.18504 169.129 3.02625Q168.999 2.86747 168.862 2.71563Q168.725 2.56379 168.581 2.4192Q168.436 2.27462 168.284 2.13758Q168.133 2.00055 167.974 1.87134Q167.815 1.74214 167.65 1.62103Q167.484 1.49992 167.312 1.38714Q167.141 1.27437 166.963 1.17017Q166.786 1.06598 166.602 0.970559Q166.419 0.875143 166.231 0.788705Q166.042 0.702267 165.849 0.624983Q165.656 0.547699 165.458 0.479727Q165.261 0.411755 165.059 0.353233Q164.857 0.294712 164.652 0.245761Q164.447 0.196809 164.238 0.157528Q164.03 0.118246 163.819 0.088715Q163.608 0.0591836 163.394 0.0394624Q163.181 0.0197413 162.965 0.00987064Q162.75 0 162.533 0ZM103 6L69 6Q68.8975 6 68.7966 6.00932Q68.6956 6.01864 68.5971 6.03721Q68.4986 6.05578 68.4033 6.08344Q68.308 6.1111 68.2167 6.14762Q68.1254 6.18415 68.0388 6.22925Q67.9522 6.27435 67.871 6.32765Q67.7899 6.38095 67.7148 6.44202Q67.6398 6.50309 67.5714 6.57143Q67.5031 6.63977 67.442 6.71482Q67.381 6.78987 67.3277 6.87102Q67.2744 6.95217 67.2293 7.03876Q67.1842 7.12535 67.1476 7.21667Q67.1111 7.30799 67.0834 7.4033Q67.0558 7.49861 67.0372 7.59713Q67.0186 7.69564 67.0093 7.79657Q67 7.89749 67 8Q67 8.10251 67.0093 8.20343Q67.0186 8.30436 67.0372 8.40287Q67.0558 8.50139 67.0834 8.5967Q67.1111 8.69201 67.1476 8.78333Q67.1842 8.87465 67.2293 8.96124Q67.2744 9.04783 67.3277 9.12898Q67.381 9.21013 67.442 9.28518Q67.5031 9.36023 67.5714 9.42857Q67.6398 9.49691 67.7148 9.55798Q67.7899 9.61905 67.871 9.67235Q67.9522 9.72565 68.0388 9.77075Q68.1254 9.81585 68.2167 9.85238Q68.308 9.8889 68.4033 9.91656Q68.4986 9.94423 68.5971 9.96279Q68.6956 9.98136 68.7966 9.99068Q68.8975 10 69 10L103 10Q103.103 10 103.203 9.99068Q103.304 9.98136 103.403 9.96279Q103.501 9.94423 103.597 9.91656Q103.692 9.8889 103.783 9.85238Q103.875 9.81585 103.961 9.77075Q104.048 9.72565 104.129 9.67235Q104.21 9.61905 104.285 9.55798Q104.36 9.49691 104.429 9.42857Q104.497 9.36023 104.558 9.28518Q104.619 9.21013 104.672 9.12898Q104.726 9.04783 104.771 8.96124Q104.816 8.87465 104.852 8.78333Q104.889 8.69201 104.917 8.5967Q104.944 8.50139 104.963 8.40287Q104.981 8.30436 104.991 8.20343Q105 8.10251 105 8Q105 7.89749 104.991 7.79657Q104.981 7.69564 104.963 7.59713Q104.944 7.49861 104.917 7.4033Q104.889 7.30799 104.852 7.21667Q104.816 7.12535 104.771 7.03876Q104.726 6.95217 104.672 6.87102Q104.619 6.78987 104.558 6.71482Q104.497 6.63977 104.429 6.57143Q104.36 6.50309 104.285 6.44202Q104.21 6.38095 104.129 6.32765Q104.048 6.27435 103.961 6.22925Q103.875 6.18415 103.783 6.14762Q103.692 6.1111 103.597 6.08344Q103.501 6.05578 103.403 6.03721Q103.304 6.01864 103.203 6.00932Q103.103 6 103 6Z" id="Combined-Shape-Copy" fill="#1370B5" fill-rule="evenodd" stroke="none" />
</svg>