<?xml version="1.0" encoding="utf-8"?>
<svg width="31px" height="32px" viewBox="0 0 31 32" version="1.1" xmlns:xlink="http://www.w3.org/1999/xlink" xmlns="http://www.w3.org/2000/svg">
  <desc>Created with Lunacy</desc>
  <g id="ksa-circle-flag">
    <g id="Group" transform="translate(-6 0)">
      <path d="M15.4602 30.9203C23.9986 30.9203 30.9203 23.9986 30.9203 15.4602C30.9203 6.92175 23.9986 0 15.4602 0C6.92175 0 0 6.92175 0 15.4602C0 23.9986 6.92175 30.9203 15.4602 30.9203Z" transform="translate(6.080541 0.4708923)" id="Oval" fill="#3D9635" stroke="none" />
      <path d="M0.0247493 0.869727C-0.0159227 1.42509 -0.0659872 2.40312 0.408118 2.50316C0.979595 2.55865 0.664128 1.53728 0.871193 1.35219C0.910487 1.26042 0.982352 1.26042 0.987781 1.37511L0.987781 2.24258C0.983645 2.52341 1.16848 2.60587 1.31342 2.66404C1.46301 2.6518 1.56331 2.65869 1.62216 2.8032C1.64525 3.30298 1.66895 3.80165 1.69187 4.3016C1.69187 4.3016 2.04069 4.40147 2.05697 3.45973C2.07395 2.90583 1.94659 2.44232 2.02104 2.33573C2.0238 2.22888 2.15848 2.22224 2.25266 2.27472C2.40243 2.38028 2.46929 2.50979 2.70169 2.45852C3.05568 2.35994 3.26774 2.18967 3.27377 1.91815C3.25206 1.66145 3.22371 1.40346 3.11246 1.1453C3.12746 1.09928 3.04362 0.977956 3.05973 0.930649C3.12272 1.03052 3.21949 1.02104 3.2412 0.930649C3.18175 0.731941 3.08816 0.542885 2.93651 0.460421C2.8107 0.350986 2.62776 0.373993 2.55995 0.603549C2.5303 0.866969 2.65628 1.18175 2.84913 1.43724C2.89041 1.5372 2.94814 1.70342 2.9222 1.85344C2.8194 1.91143 2.71712 1.88713 2.6319 1.79665C2.6319 1.79665 2.34943 1.58588 2.34943 1.53995C2.42457 1.06163 2.36632 1.0076 2.32427 0.875155C2.29584 0.692734 2.20777 0.633363 2.13883 0.509193C2.06835 0.434915 1.97218 0.434915 1.92763 0.509193C1.80295 0.725306 1.86128 1.18614 1.95055 1.39278C2.01553 1.58321 2.11436 1.7035 2.06835 1.7035C2.02888 1.81165 1.94909 1.78605 1.89161 1.66154C1.80837 1.40493 1.79217 1.02242 1.79217 0.850942C1.7671 0.636207 1.73918 0.180887 1.59846 0.0647301C1.51307 -0.0515127 1.3852 0.00389436 1.33978 0.112123C1.33168 0.322722 1.3303 0.536078 1.3546 0.730735C1.45155 1.07395 1.48127 1.3752 1.52806 1.72634C1.54159 2.19665 1.25577 1.93047 1.26938 1.69661C1.33435 1.39536 1.3166 0.918585 1.25844 0.796827C1.21251 0.67662 1.15831 0.646892 1.04448 0.667142C0.955209 0.660507 0.724274 0.911777 0.660078 1.32927C0.660078 1.32927 0.604412 1.54288 0.581405 1.73306C0.549522 1.94926 0.408118 2.10066 0.307817 1.7035C0.221044 1.41415 0.168308 0.703592 0.0247493 0.869727" transform="translate(12.15135 9.762578)" id="Path" fill="#FFFFFF" stroke="none" />
      <path d="M1.4903 0.240327C0.985866 0.486169 0.496854 0.715983 0 0.955104C0.0188711 0.617319 0.708142 0.00930632 1.17949 0C1.48565 0.00930632 1.40844 0.118828 1.4903 0.240327" transform="translate(12.24116 12.67116)" id="Path" fill="#FFFFFF" stroke="none" />
      <path d="M2.66927 0.00110647C2.64075 0.00377773 2.60955 0.0212702 2.5731 0.0293701C2.45109 0.0671986 2.33734 0.171291 2.37259 0.376806C2.51675 1.24807 2.61093 1.91287 2.7544 2.78421C2.77689 2.88693 2.6909 3.02195 2.57982 3.00851C2.39163 2.88158 2.34544 2.62351 2.02463 2.63557C1.79232 2.63833 1.52692 2.8896 1.49297 3.13268C1.45428 3.32579 1.44084 3.53527 1.49297 3.70304C1.65609 3.89873 1.85385 3.87986 2.02463 3.83539C2.16544 3.77732 2.28194 3.63677 2.33191 3.67047L2.33252 3.67047L2.33252 3.67185C2.36311 3.72596 2.32855 4.17981 1.66781 4.52975C1.26074 4.71217 0.937691 4.75517 0.763714 4.42428C0.655313 4.21609 0.772504 3.42997 0.507101 3.61101C-0.279196 5.63065 2.34536 5.91165 2.63859 3.69339C2.65772 3.63126 2.71649 3.56922 2.75708 3.58421C2.77621 3.59205 2.79085 3.61635 2.79654 3.66099C2.73553 5.67003 0.767075 5.80635 0.431961 5.1755C0.348549 5.02686 0.324766 4.69588 0.316149 4.49718C0.300553 4.37697 0.269963 4.30692 0.235409 4.27986C0.155616 4.2204 0.048679 4.37559 0.0255856 4.6472C-0.00819289 4.86486 0.00119959 4.92544 0.00119959 5.13492C0.105551 6.72216 2.64135 6.03875 3.05307 4.72958C3.25695 4.05134 3.04945 3.5394 3.11804 3.4759C3.11804 3.4759 3.12002 3.4759 3.1214 3.4759C3.1214 3.47452 3.12269 3.47452 3.12407 3.47322L3.12683 3.47322C3.1295 3.47185 3.13355 3.47064 3.13355 3.47064C3.38818 3.74207 3.73967 3.50571 3.81756 3.41256C3.85143 3.36508 3.93398 3.33535 3.99214 3.3961C4.18801 3.53656 4.53243 3.47064 4.60429 3.22187C4.64488 2.98008 4.68021 2.73001 4.68831 2.47064C4.55974 2.50993 4.45806 2.5382 4.4161 2.58301C4.40653 2.59369 4.39843 2.60584 4.39714 2.61937C4.38637 2.69089 4.37474 2.7625 4.36466 2.8341C4.36336 2.83953 4.36069 2.84634 4.35802 2.85039C4.35251 2.85996 4.34294 2.86797 4.33355 2.87348C4.28865 2.89778 4.21093 2.88296 4.20636 2.8179C4.14527 2.54233 3.8946 2.50442 3.74294 2.93285C3.64006 3.0167 3.45393 3.03143 3.43428 2.90855C3.45988 2.62083 3.34346 2.58309 3.11184 2.71795C3.03747 2.14931 2.96293 1.60619 2.88771 1.03867C2.98456 1.036 3.07254 1.10761 3.16112 0.996969C3.06582 0.699683 2.86393 0.0944281 2.74949 0.0376424C2.74949 0.0376424 2.7476 0.0376424 2.74691 0.0376424C2.74217 0.0309212 2.73536 0.0241138 2.73071 0.0200638C2.72864 0.0173064 2.7245 0.0159276 2.72321 0.0146351C2.72054 0.0133426 2.71718 0.0105851 2.71511 0.00912024C2.71037 0.0078277 2.70425 0.00524261 2.70072 0.00377773C2.6909 0.00110647 2.68013 -0.00156479 2.66927 0.00110647M1.96216 3.11924C2.013 3.11243 2.07194 3.13139 2.10176 3.20558C2.12476 3.26504 2.10236 3.3257 2.07461 3.3569L2.07461 3.35836C2.07461 3.35957 2.07341 3.36103 2.07263 3.36103C2.0529 3.388 1.98405 3.37723 1.93459 3.37723C1.87496 3.37439 1.84583 3.3637 1.81059 3.3151C1.79275 3.26107 1.84445 3.20834 1.86746 3.16784C1.86746 3.16784 1.86824 3.16784 1.86901 3.16784C1.8716 3.16396 1.87496 3.15853 1.87901 3.15431C1.89728 3.13811 1.92838 3.12312 1.96216 3.11924" transform="translate(12.96439 9.76528)" id="Shape" fill="#FFFFFF" stroke="none" />
      <path d="M1.15665 0.000749957C1.08953 0.00350738 1.0293 0.0224647 0.978542 0.0494358C0.849374 0.173692 0.818094 0.372399 0.920895 0.496742C1.01999 0.542671 1.11952 0.644006 1.05377 0.697862C0.771563 0.997905 0.0380008 1.50045 0.000861696 1.59239C0.000861696 1.59239 0 1.59368 0 1.59497C0 1.59497 0 1.59627 0 1.59756L0 1.59902L0.000861696 1.6017C0.00146488 1.6017 0.00275743 1.60307 0.00275743 1.60307C0.00275743 1.60307 0.00422231 1.60307 0.00473933 1.60307C0.00473933 1.60307 0.00551485 1.60445 0.00551485 1.60583C0.00551485 1.60583 0.00689357 1.60445 0.00749676 1.60583L0.00809994 1.60583C0.0460146 1.63142 0.504523 1.63142 0.555191 1.6085C0.556569 1.60712 0.556569 1.60583 0.556569 1.60583L0.557948 1.60583L0.557948 1.60583C0.716414 1.54629 1.46394 0.693898 1.46394 0.693898C1.42533 0.66012 1.38948 0.637026 1.35019 0.603248C1.30943 0.568177 1.31357 0.532933 1.35019 0.496656C1.53571 0.388513 1.47755 0.152064 1.38009 0.0440071C1.3009 0.00876373 1.22516 -0.00330001 1.15665 0.000749957M1.1215 0.264257C1.1676 0.260293 1.22171 0.301999 1.25006 0.361456C1.27841 0.423843 1.26437 0.48442 1.21758 0.496742C1.16958 0.507513 1.10943 0.465635 1.08014 0.402214C1.05118 0.338449 1.06609 0.277699 1.11288 0.267014C1.11607 0.265549 1.11874 0.264257 1.1215 0.264257" transform="translate(16.24287 9.719622)" id="Shape" fill="#FFFFFF" stroke="none" />
      <path d="M0.244902 0.0753582C-0.0354936 0.521114 -0.0598797 1.18583 0.0945364 1.38427C0.177173 1.4776 0.31177 1.51956 0.411468 1.48992C0.588202 1.41271 0.664635 1.05743 0.622756 0.927748C0.564419 0.835891 0.518319 0.82107 0.459551 0.899571C0.335639 1.14946 0.284023 0.977726 0.273425 0.83727C0.254381 0.571092 0.278681 0.328008 0.307892 0.133264C0.338224 -0.0651844 0.307892 -0.00434868 0.244902 0.0753582" transform="translate(12.0477 14.2656)" id="Path" fill="#FFFFFF" stroke="none" />
      <path d="M2.79045 4.03718C2.51936 3.45631 2.14486 2.88078 2.02552 2.66044C1.9054 2.43899 1.00536 1.13653 0.873001 0.987892C0.580369 0.64218 1.34831 1.13248 0.775543 0.444851C0.557103 0.258466 0.54504 0.246317 0.363997 0.0949165C0.27283 0.0300308 0.0495644 -0.0875045 0.0104434 0.107066C-0.0100649 0.280009 0.00122328 0.374623 0.0304348 0.517923C0.0521495 0.613744 0.192175 0.77445 0.261455 0.867858C1.17494 2.09172 1.98493 3.32791 2.76589 4.88448C2.88954 4.82623 2.86248 4.13455 2.79045 4.03718" transform="translate(21.46973 9.591677)" id="Path" fill="#FFFFFF" stroke="none" />
      <path d="M0.00928195 5.85335C-0.0442294 5.91281 0.140777 6.16813 0.380415 6.16675C0.782827 6.12091 1.13612 5.89644 1.46219 5.3035C1.55086 5.16572 1.70501 4.86981 1.70846 4.64146C1.73879 3.2973 1.64116 2.25293 1.4397 1.28283C1.42591 1.18675 1.43522 1.07594 1.4503 1.04767C1.47572 1.01674 1.5643 1.04767 1.61135 0.970724C1.67959 0.901788 1.42936 0.322125 1.28657 0.0992904C1.23513 -0.000752511 1.21798 -0.0669308 1.13345 0.11144C1.04521 0.256119 0.985842 0.508768 0.99265 0.743753C1.18481 2.06646 1.24323 3.22294 1.36921 4.54547C1.37852 4.67386 1.36034 4.85904 1.2752 4.93453C0.958785 5.26309 0.50424 5.66679 0.00928195 5.85335" transform="translate(23.06184 9.720952)" id="Path" fill="#FFFFFF" stroke="none" />
      <path d="M0.224431 5.90053C-0.0648408 6.06658 -0.0648408 6.25848 0.169024 6.2652C0.569368 6.21789 1.04442 6.18567 1.37195 5.69243C1.45881 5.55465 1.56308 5.1805 1.56695 4.95223C1.59832 3.60919 1.55032 2.29468 1.34774 1.32458C1.3355 1.22997 1.29293 1.01239 1.30974 0.982831C1.33559 0.917946 1.46536 0.990931 1.51292 0.91381C1.58212 0.84496 1.17428 0.322169 1.03029 0.0991623C0.980655 -0.00070829 0.962904 -0.0668865 0.878544 0.111312C0.790479 0.254612 0.760061 0.514069 0.795218 0.743625C1.00702 2.17981 1.16635 3.56869 1.19858 4.84254C1.18126 4.96438 1.17574 5.0291 1.11965 5.1805C0.993494 5.34112 0.854761 5.54241 0.723783 5.63969C0.593237 5.7356 0.314564 5.82892 0.224431 5.90053" transform="translate(28.27012 9.665846)" id="Path" fill="#FFFFFF" stroke="none" />
      <path d="M0.922394 4.62733C0.918602 4.29231 0.927219 4.00183 0.915845 3.75064C0.90404 3.50205 0.789693 2.56021 0.751692 2.35771C0.712743 2.15513 0.674484 1.85104 0.616492 1.60933C0.600292 1.51601 0.55152 1.21476 0.566341 1.18503C0.590641 1.11739 0.680344 1.1877 0.724721 1.10929C0.79133 1.03777 0.496113 0.273012 0.344885 0.0553474C0.291374 -0.0431445 0.192365 -0.00936598 0.0721586 0.150134C-0.0403788 0.254141 0.00167191 0.492055 0.0450152 0.720146C0.332305 2.21984 0.547384 3.79106 0.500077 5.21906C0.485773 5.34065 0.924979 4.85689 0.922394 4.62733" transform="translate(27.78801 9.65141)" id="Path" fill="#FFFFFF" stroke="none" />
      <path d="M0.691972 1.17205C0.510844 1.16809 0.131525 0.819445 0.0204529 0.615482C-0.0202191 0.497946 0.00632114 0.384461 0.0431155 0.316904C0.110242 0.275198 0.2133 0.224961 0.29025 0.272268C0.29025 0.272268 0.370215 0.383082 0.355222 0.397903C0.453196 0.445211 0.496022 0.418239 0.506018 0.377654C0.512567 0.307425 0.476031 0.265633 0.476031 0.188511C0.517565 -0.0210534 0.758495 -0.053367 0.84949 0.0789896C0.91584 0.161454 0.94014 0.33431 0.950222 0.451932C0.948154 0.511216 0.851472 0.441074 0.796496 0.454603C0.741089 0.470717 0.727388 0.532759 0.723338 0.59101C0.71317 0.743702 0.695333 0.986959 0.691972 1.17205" transform="translate(25.88927 11.24767)" id="Path" fill="#FFFFFF" stroke="none" />
      <path d="M0.871897 5.00394C0.921961 4.54733 0.854404 3.61644 0.848889 3.34629C0.831138 2.71131 0.726959 1.48193 0.677584 1.27659C0.621487 0.890116 0.836825 1.31838 0.806925 1.09287C0.737213 0.707781 0.522651 0.445653 0.269915 0.0917548C0.187968 -0.0231955 0.191329 -0.0474091 0.0654346 0.120105C-0.0733847 0.434968 0.0463911 0.650995 0.0817207 0.896924C0.26397 1.69537 0.37082 2.43023 0.420884 3.15724C0.469656 3.88399 0.484822 4.78774 0.439928 5.55387C0.57599 5.5593 0.795981 5.33362 0.871897 5.00394" transform="translate(22.36588 9.64766)" id="Path" fill="#FFFFFF" stroke="none" />
      <path d="M3.03421 4.26578C2.71469 3.73083 2.23266 3.10395 2.10401 2.88913C1.97484 2.67422 0.886 1.08009 0.746578 0.937992C0.348905 0.522051 0.930033 0.870521 0.671093 0.547816C0.451533 0.308609 0.387768 0.233038 0.199746 0.0883596C0.106338 0.0290749 0.0494657 -0.0870817 0.0181861 0.109902C0.00620854 0.282931 -0.00732009 0.484137 0.00465749 0.630194C0.0040543 0.711107 0.088759 0.862507 0.161917 0.952985C1.12728 2.1379 2.18191 3.58616 3.03033 5.1061C3.15071 5.04259 3.11021 4.36039 3.03421 4.26578" transform="translate(26.2924 9.654933)" id="Path" fill="#FFFFFF" stroke="none" />
      <path d="M10.9587 8.61696e-05L10.9576 0.00137871C10.6743 0.074192 10.6829 0.367513 10.8656 0.495906C7.88073 0.495906 3.30167 0.444377 2.32063 0.444377C1.7713 0.444377 0.0338647 0.379749 0 0.379749C0.372425 0.922446 0.912708 1.03343 1.61827 1.04438C2.94424 1.04438 9.08452 1.02818 10.8316 1.02818C10.7083 1.24851 10.8435 1.60207 10.9413 1.66712C10.9435 1.66859 10.946 1.67126 10.9478 1.67247C10.952 1.67402 10.956 1.67505 10.9603 1.67652C10.9615 1.67652 10.9628 1.67652 10.9628 1.67652C11.0806 1.70357 11.1305 1.61964 11.1699 1.55915C11.3573 1.57535 12.4132 1.59155 12.5106 1.5576L12.5121 1.55631C12.5777 1.65222 12.6436 1.74295 12.7667 1.72649C12.9846 1.68057 13.1569 1.65764 13.1623 1.21577C13.1623 1.21577 13.14 0.464713 12.6448 0.512106C12.5285 0.528306 12.1998 0.561826 12.1998 0.561826C11.8201 0.51719 11.541 0.512106 11.1139 0.49582C11.1532 0.445669 11.2223 0.244377 11.1372 0.170271C11.1145 0.152693 11.0817 0.141921 11.0359 0.14623L11.0346 0.14623C11.0346 0.14623 11.0319 0.14623 11.031 0.14623L11.0304 0.14442C11.0304 0.14442 11.0263 0.14442 11.025 0.143386C11.0239 0.141835 11.0211 0.137613 11.0183 0.134942C11.0183 0.134942 11.0156 0.133735 11.0147 0.132184C10.9942 0.101335 10.9817 0.024386 10.9682 0.00387763C10.9669 0.00387763 10.9662 0.00387763 10.9662 0.00387763L10.9656 0.00129254L10.9614 0L10.9603 0L10.9587 0M11.1605 1.07393C11.1605 1.07393 11.1619 1.07557 11.1634 1.07393C11.5978 1.09556 12.0069 1.07953 12.4425 1.09978C12.5121 1.15933 12.4769 1.2928 12.4322 1.31727C12.4301 1.31874 12.4261 1.31969 12.424 1.31969L12.4187 1.31969C12.4166 1.31969 12.4132 1.31969 12.4132 1.31969C12.2712 1.31598 12.1891 1.31322 12.0476 1.30892C12.0476 1.30254 12.0462 1.29547 12.045 1.28901C12.0109 1.18897 11.7686 1.19578 11.7104 1.27385C11.7104 1.27548 11.7092 1.2766 11.7077 1.2779C11.7063 1.27953 11.7059 1.2835 11.7048 1.2835C11.7036 1.28625 11.7033 1.28996 11.702 1.29168C11.701 1.29435 11.701 1.2997 11.701 1.30254C11.6994 1.30633 11.6994 1.31047 11.6994 1.31322C11.5086 1.33606 11.3367 1.30788 11.1439 1.2997C11.0887 1.23085 11.0954 1.10513 11.1605 1.07393" transform="translate(14.49871 20.23134)" id="Shape" fill="#FFFFFF" stroke="none" />
      <path d="M0.0925505 0.657374C-0.197927 1.48684 0.259892 2.39481 0.577254 2.30692C0.805432 2.40015 0.951144 1.96638 1.04533 1.48951C1.10961 1.35716 1.15769 1.34234 1.19035 1.41119C1.18277 2.04488 1.23619 2.18395 1.3994 2.37585C1.76312 2.65547 2.06446 2.4123 2.08729 2.3893C2.11099 2.365 2.37122 2.10563 2.37122 2.10563C2.43343 2.03928 2.51788 2.0354 2.60758 2.09348C2.69349 2.1718 2.68117 2.3083 2.86601 2.40145C3.02249 2.46495 3.35476 2.41644 3.43369 2.28253C3.5364 2.10425 3.56226 2.04488 3.60939 1.97577C3.68401 1.87728 3.80982 1.92174 3.80982 1.95293C3.79914 2.00834 3.72494 2.06228 3.77484 2.16233C3.86273 2.2285 3.88444 2.18533 3.93563 2.17051C4.12012 2.08253 4.25954 1.68271 4.25954 1.68271C4.26635 1.53268 4.1838 1.54483 4.12839 1.57594C4.05851 1.61903 4.05377 1.63273 3.98337 1.67728C3.89254 1.68934 3.71805 1.7488 3.63145 1.61515C3.54252 1.45427 3.54183 1.23006 3.47436 1.06935C3.47436 1.05711 3.35648 0.81403 3.46609 0.79783C3.5202 0.807137 3.63791 0.839623 3.65713 0.741131C3.71529 0.643759 3.53296 0.370946 3.4093 0.234454C3.30211 0.115626 3.15174 0.102097 3.00853 0.222304C2.90754 0.315453 2.9215 0.418253 2.90151 0.516659C2.87566 0.630317 2.88169 0.768102 2.99672 0.916658C3.09763 1.11528 3.28039 1.37051 3.22025 1.72881C3.22025 1.72881 3.11271 1.89873 2.92581 1.87728C2.84851 1.85961 2.72107 1.82721 2.65411 1.32872C2.60327 0.951901 2.66575 0.424888 2.50573 0.177582C2.44765 0.0290252 2.40543 -0.115567 2.26471 0.139839C2.22602 0.23971 2.06437 0.392402 2.18208 0.705887C2.27816 0.903216 2.31762 1.22601 2.27419 1.58542C2.20715 1.68658 2.19147 1.72183 2.10496 1.82454C1.98165 1.95552 1.84748 1.92174 1.74606 1.87314C1.64989 1.80834 1.57527 1.77586 1.53063 1.57181C1.53882 1.24496 1.5564 0.712609 1.49694 0.599037C1.41017 0.423423 1.26394 0.48693 1.20302 0.539494C0.90444 0.811187 0.757521 1.26918 0.66756 1.63393C0.584751 1.90003 0.496772 1.82445 0.435075 1.71769C0.284881 1.57741 0.275489 0.477624 0.0925505 0.657374" transform="translate(17.8134 9.517026)" id="Path" fill="#FFFFFF" stroke="none" />
      <path d="M3.36768 0C3.36639 0.00129254 3.36303 0.00267126 3.36036 0.0039638C3.35958 0.0039638 3.35682 0.00663506 3.35682 0.00663506C3.33726 0.0200775 3.31348 0.0526496 3.2635 0.0890994C3.17837 0.186471 3.1632 0.253942 3.16872 0.447134C3.17277 0.467298 3.32977 0.903747 3.46273 1.20905C3.55209 1.52787 3.63653 1.89263 3.57501 2.23722C3.3651 2.69134 2.94261 3.09909 2.53477 3.32201C2.32693 3.3869 2.14899 3.36527 2.1009 3.31934L2.1003 3.31805C1.97949 3.23825 1.97708 3.09513 1.98371 3.07212L1.98371 3.06936L1.98561 3.06936C2.32899 2.82886 2.72313 2.63576 3.0305 1.99129C3.12124 1.74537 3.14967 1.59672 3.05885 1.2143C3.02369 1.07393 2.97837 0.956483 2.88143 0.85644C2.88143 0.85644 2.88341 0.855061 2.88341 0.853768C2.94252 0.826797 3.09332 0.938818 3.1171 0.867211C3.08039 0.686169 2.95846 0.441533 2.81766 0.315984C2.69582 0.205256 2.56303 0.193106 2.45075 0.294442C2.32417 0.36467 2.29702 0.61594 2.35734 0.837568C2.4249 1.00241 2.60775 1.03067 2.73778 1.36579L2.73778 1.36708C2.74045 1.38742 2.78113 1.61723 2.71615 1.71029C2.6635 1.87522 1.98095 2.41163 1.93279 2.44394C1.93227 2.44394 1.92943 2.44523 1.92943 2.44661C1.92943 2.44661 1.92882 2.44799 1.92796 2.44937L1.92667 2.44937L1.92529 2.45213L1.924 2.45213L1.92262 2.45213C1.92262 2.45075 1.92133 2.44937 1.92133 2.44937L1.91986 2.44937C1.91986 2.44791 1.91917 2.44523 1.91917 2.44523C1.91719 2.43188 1.92124 2.39655 1.91917 2.34123C1.91435 2.24127 1.95579 2.01439 1.95166 1.97518L1.95166 1.97242L1.95097 1.97242L1.95097 1.96975L1.94907 1.96975C1.72339 2.11555 1.64963 2.5601 1.60836 2.69263C1.03757 3.08565 0.389489 3.38017 0.0170637 3.77733C-0.177766 4.08134 1.3564 3.43024 1.53451 3.35182C1.53658 3.35182 1.53796 3.35458 1.53916 3.35596C1.57329 3.39379 1.57596 3.52218 1.67747 3.63972C1.83671 3.85437 2.1757 3.98801 2.50426 3.90555C3.05739 3.70581 3.3769 3.3302 3.70193 2.91279C3.74804 2.84523 3.82059 2.79379 3.88754 2.84523C4.11029 3.34364 4.75286 3.69624 5.58388 3.73287C5.7769 3.50047 5.6847 3.38543 5.60671 3.33718C5.58293 3.32063 5.19431 3.16932 5.13338 3.01956C5.09547 2.87893 5.18621 2.75467 5.37311 2.66143C5.90607 2.59663 6.43075 2.52365 6.93872 2.36148C6.94295 2.19129 7.04368 1.93726 7.1108 1.82654C7.15811 1.7495 7.18861 1.74149 7.19964 1.73054C7.1999 1.73054 7.2012 1.73054 7.2012 1.72917L7.20257 1.72787C7.203 1.72649 7.2043 1.72649 7.2043 1.72649L7.2043 1.72382C7.2043 1.71977 7.2043 1.71572 7.20257 1.71029L7.11589 1.65894L5.41318 1.65092C5.39215 1.64412 5.37586 1.63455 5.3663 1.62783C5.3663 1.62654 5.36371 1.62524 5.36371 1.62524C5.36303 1.62369 5.36234 1.6224 5.36234 1.6224L5.36027 1.6224C5.36027 1.62102 5.35958 1.61844 5.35958 1.61844L5.35682 1.61714L5.35682 1.61577L5.35544 1.61439L5.35544 1.61163L5.35544 1.61163L5.35544 1.60896L5.35544 1.60896L5.35544 1.60629L5.35544 1.60491L5.35544 1.60353L5.35544 1.60224L5.35682 1.60094C5.35682 1.59948 5.35803 1.5981 5.35803 1.5981C5.36725 1.58595 5.3881 1.57518 5.41318 1.5657C5.81998 1.51029 6.542 1.39285 6.59008 0.699783C6.58276 0.338905 6.43506 0.102456 5.99086 0.0364497C5.66436 0.0620421 5.43222 0.378112 5.46944 0.724083C5.45454 0.817232 5.50133 0.999481 5.40577 1.02137C4.78009 1.07815 4.09685 1.46842 4.07393 1.74942L4.07186 1.74942L4.07126 1.74942C4.07126 1.74942 4.06772 1.75079 4.06772 1.75217L4.06445 1.75217C4.06359 1.75217 4.06118 1.75355 4.06118 1.75355C4.06118 1.75355 4.05962 1.75355 4.05825 1.75355L4.05557 1.75355L4.0542 1.75355L4.05084 1.75355L4.04472 1.75217C4.00482 1.73994 3.95269 1.67376 3.96062 1.5794C3.93752 1.09565 3.7794 0.548469 3.53149 0.126842C3.44351 0.039121 3.40542 0.00404997 3.37975 0L3.37699 0L3.37294 0C3.37294 0 3.37165 0 3.37027 0L3.36958 0L3.36768 0M5.85695 0.61999C5.89478 0.61594 5.94303 0.62809 5.98948 0.655234C6.05798 0.694268 6.09814 0.752433 6.09383 0.79569C6.09383 0.797069 6.09383 0.79974 6.09383 0.801119C6.09383 0.801119 6.09254 0.805169 6.09099 0.805169C6.09099 0.806461 6.09047 0.80784 6.09047 0.809219C6.08978 0.810511 6.0884 0.81189 6.0884 0.81189C6.0884 0.813269 6.0878 0.814647 6.0878 0.816026C6.08461 0.818697 6.08125 0.822661 6.07746 0.826797C6.04514 0.85644 5.97069 0.852476 5.89969 0.81189C5.83265 0.77139 5.79051 0.713312 5.79387 0.670055C5.79439 0.670055 5.79603 0.667297 5.79603 0.665919C5.79723 0.66049 5.7987 0.655147 5.80146 0.650925C5.80266 0.649633 5.80413 0.646961 5.80473 0.644204L5.80663 0.644204C5.80818 0.640154 5.81076 0.637397 5.8143 0.63619C5.82421 0.628004 5.8398 0.621369 5.85695 0.61999M4.27367 2.0548C4.2791 2.05334 4.28444 2.0548 4.28978 2.0548L4.29263 2.0548C4.4822 2.10616 4.76182 2.11029 5.00499 2.13451C5.20223 2.14804 5.30098 2.30202 5.11615 2.36691C4.93313 2.42903 4.75803 2.47772 4.75743 2.74131C4.78112 2.87229 4.7763 2.94097 4.75536 2.97233C4.75484 2.97501 4.75105 2.97759 4.74933 2.98026C4.74933 2.98026 4.74838 2.98026 4.74838 2.98164L4.74665 2.98311C4.74665 2.9844 4.7451 2.9844 4.7451 2.9844L4.7439 2.98586C4.74252 2.98724 4.74105 2.98724 4.74105 2.98724C4.7383 2.98991 4.73425 2.99121 4.73157 2.99258C4.72899 2.99388 4.72546 2.99388 4.72546 2.99388C4.67961 3.00077 4.61645 2.9576 4.56914 2.93442C4.45669 2.85204 4.14028 2.65894 4.0953 2.23869C4.08806 2.14416 4.15941 2.06161 4.27367 2.0548" transform="translate(15.51879 11.88892)" id="Shape" fill="#FFFFFF" stroke="none" />
      <path d="M0.137066 0.468645C0.333533 0.561881 0.701822 0.522673 0.686397 0.206517C0.686397 0.179546 0.6789 0.0834673 0.676143 0.0591675C0.636763 -0.0339817 0.52707 -0.0109745 0.502081 0.0851046C0.494498 0.117418 0.515609 0.167396 0.487776 0.183683C0.471576 0.199882 0.407897 0.190318 0.410568 0.103803C0.410568 0.0755397 0.391008 0.0458113 0.378169 0.0282327C0.365933 0.0200466 0.358005 0.0174615 0.334825 0.0174615C0.30863 0.0188402 0.30863 0.0254752 0.294153 0.0484825C0.287432 0.0714036 0.278729 0.0943247 0.278729 0.121468C0.275282 0.152489 0.26296 0.16326 0.239953 0.168689C0.215739 0.168689 0.220995 0.171533 0.19997 0.157918C0.187217 0.144389 0.172223 0.138961 0.172223 0.116039C0.172223 0.092946 0.16757 0.053825 0.160074 0.0376251C0.149302 0.0241827 0.131724 0.0174615 0.111215 0.0118605C0.00427898 0.0118605 -0.00261458 0.134997 0.00290027 0.180839C-0.00442414 0.188939 -0.00916347 0.409102 0.137066 0.468645" transform="translate(14.18552 9.715233)" id="Path" fill="#FFFFFF" stroke="none" />
      <path d="M0.136263 0.469235C0.33342 0.561092 0.799253 0.508442 0.686112 0.207193C0.686112 0.178843 0.678702 0.0841429 0.675944 0.0584644C0.636651 -0.0331339 0.527129 -0.0117638 0.501968 0.0854355C0.494557 0.116543 0.516186 0.166435 0.487922 0.184186C0.471636 0.200386 0.40787 0.189528 0.410542 0.1031C0.410542 0.0747504 0.390119 0.0464868 0.378142 0.0275295C0.365906 0.0193434 0.357806 0.0166721 0.334971 0.0166721C0.307741 0.0179647 0.307741 0.0261508 0.29404 0.0491581C0.287405 0.071993 0.278702 0.0950865 0.278702 0.120679C0.27448 0.1517 0.263019 0.16385 0.240098 0.166607C0.215798 0.166607 0.221141 0.170743 0.199426 0.157301C0.18719 0.143686 0.172369 0.138257 0.172369 0.115336C0.172369 0.0924152 0.16694 0.0532942 0.159443 0.0383007C0.149275 0.0234795 0.131783 0.0167583 0.111533 0.0128807C0.00442378 0.0128807 -0.00221129 0.134207 0.0029589 0.180222C-0.0044517 0.189442 -0.0092772 0.40702 0.136263 0.469235" transform="translate(19.93314 12.14239)" id="Path" fill="#FFFFFF" stroke="none" />
      <path d="M0.136702 0.468629C0.332393 0.561951 0.700768 0.522572 0.686205 0.206501C0.686205 0.178151 0.679139 0.0849158 0.676382 0.0593234C0.635882 -0.0339983 0.526188 -0.010991 0.502664 0.0849158C0.494995 0.115937 0.515934 0.167466 0.487068 0.18358C0.470782 0.199952 0.408567 0.190387 0.411152 0.102494C0.411152 0.0754372 0.390041 0.0457948 0.377805 0.0282162C0.366172 0.0200301 0.357727 0.017445 0.335151 0.017445C0.308093 0.0187375 0.308955 0.0255449 0.293272 0.0484661C0.287844 0.0727659 0.278279 0.0958594 0.278279 0.121452C0.275091 0.152473 0.263544 0.163244 0.240364 0.167466C0.214513 0.167466 0.220028 0.171344 0.199951 0.157815C0.187456 0.144373 0.172807 0.139117 0.172807 0.115937C0.172807 0.0916371 0.166345 0.0536362 0.159882 0.0375225C0.148163 0.0239939 0.130929 0.017445 0.111627 0.0119301C0.00486301 0.0133088 -0.0033231 0.134894 0.00331196 0.180823C-0.00504649 0.190301 -0.00875178 0.407966 0.136702 0.468629" transform="translate(23.28453 11.13782)" id="Path" fill="#FFFFFF" stroke="none" />
      <path d="M0.213829 4.47887C-0.127317 4.86276 0.0232216 5.49895 0.100947 5.63682C0.21245 5.85974 0.304738 6.00433 0.522833 6.11506C0.722402 6.2637 0.877421 6.17168 0.963935 6.06793C1.16462 5.85974 1.16738 5.33006 1.26165 5.22484C1.32792 5.03286 1.49526 5.06534 1.57514 5.15048C1.65364 5.26276 1.74567 5.33557 1.86062 5.39623C2.04855 5.56116 2.27182 5.59089 2.49233 5.44087C2.64364 5.35711 2.74187 5.24785 2.8289 5.03294C2.92765 4.76952 2.8738 3.34695 2.85355 2.63079C2.84519 2.57409 2.6582 1.64596 2.6582 1.63648C2.6582 1.62571 2.63399 1.16238 2.61374 1.05156C2.60969 1.00693 2.59875 0.9934 2.64631 0.998914C2.69577 1.04217 2.70232 1.04493 2.73308 1.05837C2.78453 1.06785 2.82882 0.981336 2.79857 0.902921C2.64355 0.615029 2.48621 0.32886 2.33119 0.0422596C2.29388 0.00443114 2.24536 -0.0346899 2.18591 0.053117C2.12886 0.103095 2.06785 0.192281 2.06915 0.308524C2.08431 0.512487 2.1193 0.7205 2.13343 0.924464C2.19599 1.27164 2.2582 1.62166 2.32128 1.9703C2.37918 2.71739 2.39426 3.3996 2.45329 4.14686C2.44459 4.46164 2.34679 4.88163 2.25364 4.92101C2.25364 4.92101 2.11404 5.00322 2.01917 4.91274C1.95015 4.88577 1.67578 4.45742 1.67578 4.45742C1.53576 4.32765 1.44278 4.36556 1.34343 4.45742C1.06786 4.72239 0.943944 5.21821 0.757042 5.56116C0.708529 5.63691 0.571519 5.70171 0.421411 5.55444C0.0377842 5.03286 0.262084 4.28715 0.213829 4.47887" transform="translate(24.94286 9.649849)" id="Path" fill="#FFFFFF" stroke="none" />
      <path d="M0.220215 0.00565344C0.395311 0.0787252 0.51905 0.43271 0.478551 0.606859C0.443221 0.820473 0.3499 1.05279 0.282774 1.02297C0.210391 0.994708 0.331976 0.809443 0.263041 0.613494C0.224092 0.486738 -0.0158897 0.254425 0.00987497 0.186782C-0.0402757 0.042017 0.111469 -0.0200251 0.220215 0.00565344" transform="translate(23.2902 9.770125)" id="Path" fill="#FFFFFF" stroke="none" />
      <path d="M0.914841 4.65165C0.951549 4.22614 0.889421 3.96531 0.878477 3.71404C0.86693 3.46544 0.59472 1.43356 0.53871 1.24295C0.472187 0.884829 0.804802 1.19556 0.768266 0.98763C0.652971 0.724295 0.367232 0.340496 0.277271 0.113525C0.223071 0.0162397 0.245819 -0.0715671 0.124234 0.0878466C0.0131613 0.452603 -0.0259598 0.75118 0.0171251 0.979616C0.30519 2.47914 0.600925 3.84639 0.55379 5.2731C0.689593 5.2731 0.847973 4.961 0.914841 4.65165" transform="translate(24.8079 9.687932)" id="Path" fill="#FFFFFF" stroke="none" />
      <path d="M0.19978 0.00627728C0.359539 0.0859841 0.453723 0.528982 0.436833 0.657202C0.404433 0.889774 0.319125 1.13958 0.258031 1.10727C0.191508 1.07737 0.27156 0.762674 0.239591 0.665474C0.204003 0.527603 -0.0141789 0.276333 0.00891461 0.20059C-0.0364968 0.0466046 0.101461 -0.0221587 0.19978 0.00627728" transform="translate(28.52424 10.27764)" id="Path" fill="#FFFFFF" stroke="none" />
      <path d="M0.190158 0.00617103C0.343109 0.0642494 0.434104 0.389884 0.41644 0.484413C0.385332 0.654684 0.303988 0.838398 0.246427 0.81539C0.182058 0.792555 0.259266 0.561448 0.228331 0.489927C0.216009 0.315692 0.00256618 0.225128 0.00747786 0.149213C-0.0323326 0.0103072 0.0952849 -0.0139065 0.190158 0.00617103" transform="translate(16.63238 13.52815)" id="Path" fill="#FFFFFF" stroke="none" />
      <path d="M0.188568 0.00433841C0.414245 0.0718954 0.427602 0.402873 0.411488 0.501623C0.380984 0.677237 0.301105 0.868964 0.243457 0.843372C0.181157 0.821829 0.2407 0.581158 0.211144 0.506879C0.177796 0.401494 -0.0130692 0.209853 0.00855936 0.154187C-0.0347839 0.0353595 0.0959353 -0.0159976 0.188568 0.00433841" transform="translate(12.53996 9.664762)" id="Path" fill="#FFFFFF" stroke="none" />
      <path d="M0.18459 0.0284459C0.0107866 0.121595 -0.0558224 0.399837 0.0525788 0.563214C0.15288 0.705136 0.312638 0.652572 0.332974 0.652572C0.50359 0.674115 0.603719 0.334951 0.603719 0.334951C0.603719 0.334951 0.609148 0.239131 0.407425 0.420087C0.322979 0.436373 0.312552 0.403887 0.29101 0.356666C0.273259 0.268687 0.276619 0.17976 0.316688 0.0917806C0.347882 0.00673118 0.281617 -0.0299771 0.18459 0.0284459" transform="translate(17.00692 11.20394)" id="Path" fill="#FFFFFF" stroke="none" />
      <path d="M0.273104 0.031435C0.185728 0.0896857 0.0117512 0.269436 0.00778735 0.475984C0.00158313 0.592227 -0.0207348 0.592227 0.0564733 0.666591C0.112053 0.746298 0.16746 0.739577 0.278533 0.68012C0.343591 0.634278 0.363841 0.60162 0.386245 0.523291C0.413561 0.390935 0.246133 0.585506 0.225021 0.438242C0.187882 0.301749 0.294819 0.246428 0.396413 0.112607C0.398998 0.0234213 0.39693 -0.0413783 0.273104 0.031435" transform="translate(18.21931 9.509187)" id="Path" fill="#FFFFFF" stroke="none" />
      <path d="M0.078921 0.169388C0.0415235 0.251853 -0.00337078 0.684252 0.00352277 0.684252C-0.0261195 0.812472 0.138895 0.867965 0.214207 0.703209C0.325796 0.399203 0.325796 0.270896 0.333982 0.141125C0.299515 -0.054825 0.166038 -0.0479314 0.078921 0.169388" transform="translate(19.46123 9.557705)" id="Path" fill="#FFFFFF" stroke="none" />
      <path d="M0.0517562 0.668129C0.0746773 0.645121 0.982991 0.00203768 0.982991 0.00203768C1.07502 -0.0303621 1.0546 0.334394 1.01281 0.33043C1.03013 0.403157 0.1169 1.02341 0.0518424 0.997814C0.00746506 1.03013 -0.038291 0.747836 0.0517562 0.668129" transform="translate(26.09442 12.41225)" id="Path" fill="#FFFFFF" stroke="none" />
      <path d="M0.192964 0.00506314C0.353412 0.0848562 0.416574 0.55224 0.399254 0.67934C0.404941 0.926561 0.245269 1.12372 0.182882 1.0914C0.117135 1.06297 0.189603 0.78619 0.157031 0.68744C0.122046 0.549483 -0.0134983 0.290198 0.009509 0.21592C-0.0365917 0.060384 0.0947307 -0.0219079 0.192964 0.00506314" transform="translate(26.78199 13.06989)" id="Path" fill="#FFFFFF" stroke="none" />
      <path d="M0.0313375 0.23901C0.0935519 0.145775 0.289243 0.0135046 0.293035 0.0135046C0.383599 -0.0312175 0.47175 0.0500404 0.466322 0.0432331C0.481143 0.133625 0.409105 0.217296 0.432285 0.337674C0.451328 0.384895 0.466322 0.43901 0.555507 0.418674C0.698979 0.305361 0.831853 0.298553 0.976446 0.290367C1.08786 0.297089 1.09157 0.48356 1.02134 0.486145C0.755938 0.543016 0.635386 0.614623 0.445899 0.68623C0.355077 0.738966 0.279247 0.672702 0.279247 0.665808C0.279247 0.657794 0.226425 0.614537 0.2621 0.495623C0.269166 0.399717 0.230734 0.348359 0.151199 0.357838C0.0909669 0.39153 0.0381449 0.41178 0.00850255 0.343103C-0.00381971 0.293039 -0.00761117 0.26736 0.0313375 0.23901" transform="translate(21.5407 14.84904)" id="Path" fill="#FFFFFF" stroke="none" />
      <path d="M0.200315 0.262564C0.239781 0.310991 0.265028 0.357006 0.197989 0.43947C0.134309 0.497548 0.0893288 0.528483 0.0246155 0.586648C-0.00545772 0.63947 -0.0240703 0.716505 0.0677864 0.740805C0.237971 0.788112 0.629698 0.534084 0.629698 0.528569C0.695014 0.481521 0.673041 0.390956 0.667613 0.390956C0.629698 0.349078 0.547234 0.373378 0.490189 0.366657C0.463132 0.366657 0.37567 0.353128 0.418496 0.276092C0.452361 0.228699 0.464856 0.198971 0.488725 0.1396C0.514662 0.0815215 0.492947 0.0424867 0.396609 0.0100008C0.299065 -0.00766399 0.26072 0.00181466 0.152319 0.0100008C0.0946713 0.0222369 0.0745938 0.0492079 0.0637364 0.119436C0.0677864 0.226114 0.132586 0.219393 0.200315 0.262564" transform="translate(27.72991 15.07676)" id="Path" fill="#FFFFFF" stroke="none" />
    </g>
  </g>
</svg>