<?xml version="1.0" encoding="utf-8"?>
<svg width="26px" height="32px" viewBox="0 0 26 32" version="1.1" xmlns:xlink="http://www.w3.org/1999/xlink" xmlns="http://www.w3.org/2000/svg">
  <desc>Created with Lunacy</desc>
  <g id="lock-icon">
    <path d="M4 0L17.4199 0Q17.625 0 17.8268 0.0186425Q18.0287 0.037285 18.2257 0.0744179Q18.4227 0.111551 18.6133 0.166871Q18.804 0.222192 18.9866 0.295249Q19.1692 0.368306 19.3424 0.458503Q19.5156 0.5487 19.6779 0.655303Q19.8402 0.761905 19.9903 0.884043Q20.1404 1.00618 20.2771 1.14286Q20.4138 1.27953 20.5359 1.42964Q20.658 1.57974 20.7646 1.74204Q20.8712 1.90434 20.9614 2.07752Q21.0516 2.2507 21.1247 2.43334Q21.1977 2.61598 21.2531 2.8066Q21.3084 2.99721 21.3455 3.19425Q21.3827 3.39129 21.4013 3.59314Q21.4199 3.79499 21.4199 4L21.4199 14.9Q21.4199 15.105 21.4013 15.3069Q21.3827 15.5087 21.3455 15.7058Q21.3084 15.9028 21.2531 16.0934Q21.1977 16.284 21.1247 16.4667Q21.0516 16.6493 20.9614 16.8225Q20.8712 16.9957 20.7646 17.158Q20.658 17.3203 20.5359 17.4704Q20.4138 17.6205 20.2771 17.7571Q20.1404 17.8938 19.9903 18.016Q19.8402 18.1381 19.6779 18.2447Q19.5156 18.3513 19.3424 18.4415Q19.1692 18.5317 18.9866 18.6048Q18.804 18.6778 18.6133 18.7331Q18.4227 18.7885 18.2257 18.8256Q18.0287 18.8627 17.8268 18.8814Q17.625 18.9 17.4199 18.9L4 18.9Q3.79499 18.9 3.59314 18.8814Q3.39129 18.8627 3.19425 18.8256Q2.99721 18.7885 2.8066 18.7331Q2.61598 18.6778 2.43334 18.6048Q2.2507 18.5317 2.07752 18.4415Q1.90434 18.3513 1.74204 18.2447Q1.57974 18.1381 1.42964 18.016Q1.27953 17.8938 1.14286 17.7571Q1.00618 17.6205 0.884043 17.4704Q0.761905 17.3203 0.655303 17.158Q0.5487 16.9957 0.458503 16.8225Q0.368306 16.6493 0.295249 16.4667Q0.222192 16.284 0.166871 16.0934Q0.111551 15.9028 0.0744179 15.7058Q0.037285 15.5087 0.0186425 15.3069Q0 15.105 0 14.9L0 4Q0 3.79499 0.0186425 3.59314Q0.037285 3.39129 0.0744179 3.19425Q0.111551 2.99721 0.166871 2.8066Q0.222192 2.61598 0.295249 2.43334Q0.368306 2.2507 0.458503 2.07752Q0.5487 1.90434 0.655303 1.74204Q0.761905 1.57974 0.884043 1.42964Q1.00618 1.27953 1.14286 1.14286Q1.27953 1.00618 1.42964 0.884043Q1.57974 0.761905 1.74204 0.655303Q1.90434 0.5487 2.07752 0.458503Q2.2507 0.368306 2.43334 0.295249Q2.61598 0.222192 2.8066 0.166871Q2.99721 0.111551 3.19425 0.0744179Q3.39129 0.037285 3.59314 0.0186425Q3.79499 0 4 0Z" transform="translate(1.961213 11.14375)" id="Rectangle" fill="#FCDF9F" stroke="none" />
  </g>
</svg>