<?xml version="1.0" encoding="utf-8"?>
<svg width="120px" height="39px" viewBox="0 0 120 39" version="1.1" xmlns:xlink="http://www.w3.org/1999/xlink" xmlns="http://www.w3.org/2000/svg">
  <desc>Created with Lunacy</desc>
  <g id="Logo-S">
    <path d="M53.7854 1.056C53.9354 0.21 54.1754 0 55.0274 0L55.3274 0C56.1734 0 56.3414 0.21 56.1974 1.056L54.6254 9.942C54.2534 12.078 55.2794 12.906 57.5054 12.906C59.7314 12.906 61.0454 12.078 61.4234 9.942L61.8374 7.59C61.9874 6.744 62.2334 6.534 63.0794 6.534L63.4034 6.534C64.2494 6.534 64.4234 6.744 64.2734 7.59L63.8594 9.942C63.2234 13.542 60.7514 15.18 57.1034 15.18C53.2214 15.18 51.6014 13.434 52.2194 9.942L53.7854 1.056ZM8.50937 3.264C8.65336 2.442 8.48536 2.232 7.65736 2.232L7.34536 2.232C6.53536 2.232 6.28936 2.442 6.14536 3.264L6.09136 3.564C5.94736 4.392 6.11536 4.596 6.94336 4.596L7.25536 4.596C8.06536 4.596 8.31137 4.392 8.45536 3.564L8.50937 3.264ZM49.4654 6.522L49.7894 6.522C50.6354 6.522 50.8034 6.744 50.6534 7.578L50.2394 9.93C49.6094 13.536 47.1434 15.168 43.4954 15.168L17.1914 15.168C15.7709 15.168 14.6557 14.9342 13.842 14.4667L13.6394 15.618C13.1594 18.324 11.4794 19.68 8.58136 19.68C8.43169 19.6941 8.28103 19.6941 8.13136 19.68C7.38736 19.59 7.21336 19.404 7.35736 18.6L7.41136 18.282C7.54336 17.52 7.73536 17.364 8.51536 17.478C8.66705 17.4918 8.81968 17.4918 8.97136 17.478C10.5134 17.478 11.0534 16.878 11.3054 15.456L12.4454 9.072C12.4651 8.96287 12.4865 8.86459 12.5105 8.77618L12.7214 7.578C12.8714 6.732 13.1114 6.522 13.9634 6.522L14.2634 6.522C15.1334 6.522 15.2834 6.732 15.1334 7.578L14.7134 9.93C14.3414 12.066 15.3674 12.894 17.5934 12.894L43.8974 12.894C46.1174 12.888 47.4314 12.066 47.8094 9.93L48.2234 7.578C48.3734 6.732 48.6194 6.522 49.4654 6.522ZM6.57736 6.558C5.76736 6.558 5.52736 6.762 5.37736 7.59L3.99136 15.456C3.74536 16.878 3.19936 17.478 1.66336 17.478C1.51169 17.492 1.35904 17.492 1.20736 17.478C0.421364 17.364 0.235364 17.52 0.103364 18.282L0.0433641 18.6C-0.0946359 19.404 0.0793641 19.59 0.817364 19.68C0.969041 19.694 1.12169 19.694 1.27336 19.68Q5.61136 19.68 6.33136 15.618L7.72936 7.59C7.87336 6.762 7.70536 6.558 6.87736 6.558L6.57736 6.558ZM28.0874 17.7C28.9154 17.7 29.0834 17.904 28.9394 18.732L28.8854 19.032C28.7414 19.86 28.4954 20.064 27.6854 20.064L27.3734 20.064C26.5454 20.064 26.3774 19.86 26.5214 19.032L26.5754 18.732C26.7194 17.904 26.9654 17.7 27.7754 17.7L28.0874 17.7ZM32.4734 18.732C32.6234 17.904 32.4494 17.7 31.6274 17.7L31.3214 17.7C30.5054 17.7 30.2654 17.904 30.1214 18.732L30.0674 19.032C29.9174 19.86 30.0914 20.064 30.9194 20.064L31.2254 20.064C32.0354 20.064 32.2754 19.86 32.4254 19.032L32.4734 18.732ZM56.8274 17.7C57.6494 17.7 57.8234 17.904 57.6734 18.732L57.6254 19.032C57.4754 19.86 57.2354 20.064 56.4254 20.064L56.1134 20.064C55.2914 20.064 55.1174 19.86 55.2674 19.032L55.3154 18.732C55.4654 17.904 55.7054 17.7 56.5154 17.7L56.8274 17.7Z" transform="translate(52.69664 18.678)" id="Combined-Shape" fill="#0F2460" fill-rule="evenodd" stroke="none" />
    <path d="M8.64704 0C12.199 0 13.357 1.74 12.805 4.854C12.205 8.082 10.279 9.708 6.93704 9.708L3.18104 9.708L2.45504 13.866C2.30504 14.712 2.05904 14.916 1.21304 14.916L0.919039 14.916C0.0670392 14.916 -0.100961 14.712 0.0490392 13.866L2.02304 2.61C2.34704 0.81 3.26504 5.32907e-16 5.09504 5.32907e-16L8.64704 0ZM5.38304 2.268C5.12917 2.24467 4.87645 2.32327 4.6806 2.48648C4.48476 2.64968 4.36187 2.88409 4.33904 3.138L3.57704 7.446L7.33304 7.446C9.28304 7.446 10.081 6.69 10.405 4.854C10.729 3.018 10.195 2.268 8.24504 2.268L5.38304 2.268Z" transform="translate(55.51096 2.934)" id="Shape" fill="#0F2460" stroke="none" />
    <path d="M9.6249 8.19601C9.1809 10.74 7.4889 11.862 4.1049 11.862C1.0089 11.862 -0.341098 10.692 0.0729016 8.33401C0.486902 5.97601 2.3349 4.87801 5.3589 4.87801L7.8609 4.87801L8.0589 3.75601C8.2929 2.40601 7.4589 2.01601 5.6589 2.01601C4.84029 2.00687 4.02265 2.07517 3.2169 2.22001C2.5329 2.33401 2.3769 2.22001 2.5029 1.48801L2.5569 1.16401C2.6769 0.504007 2.8929 0.294007 3.5589 0.180007C4.32701 0.0594583 5.10339 -0.000725872 5.8809 6.60576e-06C9.1989 6.60576e-06 10.8729 1.03201 10.3929 3.75601L9.6249 8.19601ZM7.5609 6.66601L5.0409 6.66601C3.4629 6.66601 2.6409 7.12201 2.4429 8.29201C2.2449 9.46201 3.0429 9.87001 4.4109 9.87001C6.1269 9.87001 7.0569 9.52801 7.3089 8.07001L7.5609 6.66601Z" transform="translate(67.7391 6.203993)" id="Shape" fill="#0F2460" stroke="none" />
    <path d="M3.25715 8.406C3.30515 9.318 3.56315 9.528 4.29515 9.528C4.84715 9.528 5.20715 9.3 5.57315 8.406L8.57315 1.032C8.90315 0.204 9.17315 1.06581e-15 10.0371 1.06581e-15L10.3311 1.06581e-15C11.1831 1.06581e-15 11.3031 0.204 10.9311 1.032L6.67715 11.358C5.36915 14.496 3.56915 16.122 0.887153 16.398C0.287153 16.464 0.0411534 16.26 0.00515341 15.552L0.00515341 15.252C-0.0368466 14.61 0.173153 14.43 0.809153 14.334C2.40515 14.13 3.43715 13.188 4.28315 11.382C3.9382 11.51 3.57048 11.5652 3.20315 11.544C1.48715 11.544 1.12115 10.626 0.953153 8.61L0.353153 1.032C0.293153 0.204 0.491153 0 1.33715 0L1.63715 0C2.48315 0 2.69915 0.204 2.75915 1.032L3.25715 8.406Z" transform="translate(79.89085 6.462)" id="Shape" fill="#0F2460" stroke="none" />
    <path d="M10.265 5.74801C10.025 6.59401 9.75498 6.79801 8.90898 6.79801L2.54298 6.79801L2.45298 7.30801C2.15898 8.97601 3.00498 9.64201 5.31498 9.64201C6.33957 9.63558 7.36011 9.5128 8.35698 9.27601C9.12498 9.09001 9.29898 9.27601 9.15498 10.074L9.10698 10.374C8.96898 11.13 8.80698 11.292 7.96698 11.496C6.97298 11.7485 5.95051 11.8716 4.92498 11.862C1.07898 11.862 -0.475022 10.422 0.124978 6.96001L0.478978 4.96801C1.05898 1.65201 3.04498 -0.00399277 6.43698 7.22892e-06C9.62298 7.22892e-06 11.009 1.62601 10.457 4.74001C10.397 5.08201 10.319 5.40601 10.235 5.74801L10.265 5.74801ZM2.85498 4.87801L8.21298 4.87801L8.31498 4.27801C8.57898 2.77201 7.81698 2.01601 6.01098 2.01601C4.20498 2.01601 3.22098 2.77201 2.95098 4.27801L2.85498 4.87801Z" transform="translate(90.80502 6.209993)" id="Shape" fill="#0F2460" stroke="none" />
    <path d="M2.39228 10.5884C2.24828 11.4164 2.00228 11.6204 1.19228 11.6204L0.892284 11.6204C0.0702839 11.6204 -0.097716 11.4164 0.0462839 10.5884L1.19828 4.06639C1.67028 1.36239 3.35028 0.0103851 6.23828 0.0103851C6.38997 -0.00346171 6.5426 -0.00346171 6.69428 0.0103851C7.43228 0.100385 7.60628 0.286385 7.46228 1.08439L7.40828 1.40839C7.27628 2.15839 7.08428 2.32039 6.30428 2.20639C6.15261 2.19216 5.99995 2.19216 5.84828 2.20639C4.31828 2.20639 3.77228 2.80639 3.52628 4.22239L2.39228 10.5884Z" transform="translate(102.4757 6.211615)" id="Shape" fill="#0F2460" stroke="none" />
    <path d="M0.118092 10.0565C0.262092 9.25248 0.478092 9.06648 1.18009 9.25248C2.24288 9.54674 3.34135 9.69213 4.44409 9.68448C6.00409 9.68448 6.61609 9.43248 6.74809 8.70048C6.85009 8.10048 6.59809 7.85448 5.54809 7.32648L3.22009 6.22848C1.78009 5.56248 1.21009 4.78848 1.50409 3.11448C1.87609 0.984475 3.38209 0.000475509 6.42409 0.000475509C7.30187 -0.00838976 8.17651 0.106747 9.02209 0.342476C9.77809 0.594476 9.91609 0.732476 9.78409 1.48848L9.73609 1.76448C9.59209 2.56248 9.35209 2.74848 8.65609 2.54448C7.79336 2.28973 6.89761 2.16436 5.99809 2.17248C4.51009 2.17248 3.93409 2.44848 3.81409 3.11448C3.71809 3.66648 3.95209 3.91848 4.68409 4.28448L7.13809 5.42448C8.68609 6.13848 9.32809 6.93648 9.02209 8.65848C8.63209 10.8545 7.06009 11.8625 3.83209 11.8625C2.79528 11.87 1.76212 11.7389 0.760092 11.4725C0.0400918 11.2685 -0.0859082 11.1065 0.0460918 10.3505L0.118092 10.0565Z" transform="translate(109.5799 6.209525)" id="Shape" fill="#0F2460" stroke="none" />
    <path d="M4.164 2.4L4.11 1.338C4.11 1.002 4.068 0.594 4.068 0.294L4.068 0.294C3.984 0.576 3.888 0.894 3.762 1.212L3.336 2.412L3.096 2.412L2.7 1.254C2.58313 0.945624 2.48299 0.631167 2.4 0.312L2.4 0.312C2.4 0.612 2.4 1.014 2.352 1.38L2.304 2.4L2.004 2.4L2.172 0L2.574 0L3 1.2C3.102 1.494 3.18 1.758 3.246 2.01L3.246 2.01C3.312 1.77 3.402 1.506 3.51 1.2L3.93 0L4.326 0L4.476 2.4L4.164 2.4ZM1.062 2.4L0.75 2.4L0.75 0.264L0 0.264L0 0L1.8 0L1.8 0.264L1.062 0.264L1.062 2.4Z" transform="translate(43.8 0)" id="Shape" fill="#1780F2" stroke="none" />
    <path d="M19.578 0L2.304 0L0 1.764L19.272 1.764C27.222 1.764 32.55 8.232 31.152 16.164C29.754 24.096 22.152 30.564 14.184 30.564L4.998 30.564L4.686 32.364L13.872 32.364C22.8 32.364 31.338 25.104 32.91 16.164C34.482 7.224 28.518 0 19.578 0Z" transform="translate(12.882 0)" id="Shape" fill="#1780F2" stroke="none" />
    <path d="M2.946 0L1.77 6.756L0 6.756L1.176 0L2.946 0L2.946 0Z" transform="translate(16.698 30.606)" id="Shape" fill="#1780F2" stroke="none" />
    <path d="M23.016 0L2.304 0L0 1.758L22.704 1.758C28.83 1.758 32.904 6.744 31.854 12.864C30.804 18.984 24.912 23.976 18.786 23.976L12.108 23.976L6.708 23.976L6.396 25.776L18.48 25.776C25.572 25.776 32.364 20.004 33.618 12.906C34.872 5.808 30.114 0 23.016 0Z" transform="translate(8.55 3.318)" id="Shape" fill="#08C4FF" stroke="none" />
    <path d="M3.42 0L1.77 9.186L0 9.186L1.65 0L3.42 0L3.42 0Z" transform="translate(13.62 27.282)" id="Shape" fill="#08C4FF" stroke="none" />
    <path d="M26.46 0L2.262 0L0 1.752L26.148 1.752C30.42 1.752 33.282 5.226 32.532 9.498C31.782 13.77 27.69 17.256 23.4 17.256L8.304 17.256L7.992 19.02L23.106 19.02C28.35 19.02 33.366 14.754 34.29 9.51C35.214 4.266 31.704 0 26.46 0Z" transform="translate(4.2 6.678)" id="Shape" fill="#F5B00D" stroke="none" />
    <path d="M1.77 13.434L4.164 0L2.394 0L0 13.434L1.77 13.434L1.77 13.434Z" transform="translate(10.11 23.928)" id="Shape" fill="#F5B00D" stroke="none" />
    <path d="M1.77 16.632L4.704 0L2.934 0L0 16.632L1.77 16.632L1.77 16.632Z" transform="translate(6.816 20.73)" id="Shape" fill="#F58A0D" stroke="none" />
    <path d="M29.802 0L2.298 0L0 1.758L29.49 1.758C30.6504 1.71772 31.7633 2.22074 32.4998 3.11841C33.2363 4.01608 33.5122 5.20579 33.246 6.336C32.7309 8.91643 30.5116 10.8056 27.882 10.902L22.296 10.902L22.296 10.902L9.75 10.902L9.438 12.702L27.6 12.702C31.2441 12.5497 34.3072 9.91606 35.004 6.336C35.622 2.832 33.282 0 29.802 0Z" transform="translate(0 9.864)" id="Shape" fill="#F58A0D" stroke="none" />
    <path d="M1.764 7.68L3.132 0L3.006 0.06C2.406 0.306 1.806 0.528 1.236 0.762L0 7.68L1.764 7.68Z" transform="translate(13.464 29.682)" id="Shape" fill="#08C4FF" stroke="none" />
  </g>
</svg>