<?xml version="1.0" encoding="utf-8"?>
<svg width="30px" height="23px" viewBox="0 0 30 23" version="1.1" xmlns:xlink="http://www.w3.org/1999/xlink" xmlns="http://www.w3.org/2000/svg">
  <desc>Created with Lunacy</desc>
  <g id="mail-icon">
    <path d="M4 0L23.09 0Q23.295 0 23.4969 0.0186425Q23.6987 0.037285 23.8957 0.0744179Q24.0928 0.111551 24.2834 0.166871Q24.474 0.222192 24.6567 0.295249Q24.8393 0.368306 25.0125 0.458503Q25.1857 0.5487 25.348 0.655303Q25.5103 0.761905 25.6604 0.884043Q25.8105 1.00618 25.9471 1.14286Q26.0838 1.27953 26.206 1.42964Q26.3281 1.57974 26.4347 1.74204Q26.5413 1.90434 26.6315 2.07752Q26.7217 2.2507 26.7948 2.43334Q26.8678 2.61598 26.9231 2.8066Q26.9784 2.99721 27.0156 3.19425Q27.0527 3.39129 27.0714 3.59314Q27.09 3.79499 27.09 4L27.09 15.53Q27.09 15.735 27.0714 15.9369Q27.0527 16.1387 27.0156 16.3358Q26.9784 16.5328 26.9231 16.7234Q26.8678 16.914 26.7948 17.0967Q26.7217 17.2793 26.6315 17.4525Q26.5413 17.6257 26.4347 17.788Q26.3281 17.9503 26.206 18.1004Q26.0838 18.2505 25.9471 18.3871Q25.8105 18.5238 25.6604 18.646Q25.5103 18.7681 25.348 18.8747Q25.1857 18.9813 25.0125 19.0715Q24.8393 19.1617 24.6567 19.2348Q24.474 19.3078 24.2834 19.3631Q24.0928 19.4184 23.8957 19.4556Q23.6987 19.4927 23.4969 19.5114Q23.295 19.53 23.09 19.53L4 19.53Q3.79499 19.53 3.59314 19.5114Q3.39129 19.4927 3.19425 19.4556Q2.99721 19.4185 2.8066 19.3631Q2.61598 19.3078 2.43334 19.2348Q2.2507 19.1617 2.07752 19.0715Q1.90434 18.9813 1.74204 18.8747Q1.57974 18.7681 1.42964 18.646Q1.27953 18.5238 1.14286 18.3871Q1.00618 18.2505 0.884043 18.1004Q0.761905 17.9503 0.655303 17.788Q0.5487 17.6257 0.458503 17.4525Q0.368306 17.2793 0.295249 17.0967Q0.222192 16.914 0.166871 16.7234Q0.111551 16.5328 0.0744179 16.3358Q0.037285 16.1387 0.0186425 15.9369Q0 15.735 0 15.53L0 4Q0 3.79499 0.0186425 3.59314Q0.037285 3.39129 0.0744179 3.19425Q0.111551 2.99721 0.166871 2.8066Q0.222192 2.61598 0.295249 2.43334Q0.368306 2.2507 0.458503 2.07752Q0.5487 1.90434 0.655303 1.74204Q0.761905 1.57974 0.884043 1.42964Q1.00618 1.27953 1.14286 1.14286Q1.27953 1.00618 1.42964 0.884043Q1.57974 0.761905 1.74204 0.655303Q1.90434 0.5487 2.07752 0.458503Q2.2507 0.368306 2.43334 0.295249Q2.61598 0.222192 2.8066 0.166871Q2.99721 0.111551 3.19425 0.0744179Q3.39129 0.037285 3.59314 0.0186425Q3.79499 0 4 0Z" transform="translate(1.409493 1.89)" id="Rectangle" fill="#F48D65" stroke="none" />
    <path d="M14.4956 15.3828C14.2435 15.3803 14.0003 15.2891 13.8087 15.1252L3.79203 6.7255C3.33762 6.33035 3.28957 5.64164 3.68471 5.18722C4.07986 4.7328 4.76857 4.68475 5.22299 5.0799L14.5099 12.8929L24.2976 4.56475C24.7481 4.1696 25.4336 4.21445 25.8288 4.66492C26.2239 5.11539 26.1791 5.8009 25.7286 6.19604L15.1968 15.0966C15.0056 15.274 14.7563 15.3758 14.4956 15.3828Z" transform="translate(0.1494935 0)" id="Combined-Shape" fill="#331D34" stroke="none" />
  </g>
</svg>