<?xml version="1.0" encoding="utf-8"?>
<svg width="24px" height="24px" viewBox="0 0 24 24" version="1.1" xmlns:xlink="http://www.w3.org/1999/xlink" xmlns="http://www.w3.org/2000/svg">
  <desc>Created with Lunacy</desc>
  <path d="M10.6227 23.5882C8.80642 23.4149 6.96648 22.7614 5.38377 21.7272C4.05828 20.8611 3.75906 20.5067 3.75906 19.7954C3.75906 18.3702 5.32602 15.8715 8.00325 13.0262C9.5256 11.4094 11.6438 9.51435 11.8721 9.56422C12.3183 9.66395 15.8801 13.1444 17.2134 14.7796C19.3237 17.3728 20.2949 19.4936 19.8014 20.4385C19.4261 21.1577 17.1032 22.5619 15.3971 23.1C13.9903 23.5462 12.1425 23.7352 10.6227 23.5882ZM1.97161 18.3151C0.87185 16.6248 0.315406 14.958 0.0450587 12.5512C-0.0441822 11.7559 -0.0126854 11.3018 0.247163 9.6692C0.570006 7.63504 1.72489 5.28327 3.116 3.83442C3.70919 3.21761 3.76168 3.20186 4.48348 3.44596C5.36015 3.74255 6.29455 4.38824 7.74603 5.70323L8.59382 6.46965L8.13186 7.03922C5.98221 9.6797 3.71706 13.4226 2.86402 15.7376C2.39945 16.9948 2.21309 18.26 2.41257 18.7849C2.54643 19.1392 2.42307 19.008 1.97161 18.3151ZM21.2897 18.6012C21.3973 18.071 21.2608 17.0946 20.9379 16.1103C20.2424 13.979 17.909 10.0104 15.7672 7.31482L15.0927 6.46703L15.8223 5.7951C16.7751 4.91844 17.4365 4.39349 18.1505 3.94991C18.7148 3.59819 19.518 3.28848 19.8644 3.28848C20.077 3.28848 20.8277 4.06802 21.434 4.92106C22.3737 6.23868 23.064 7.83976 23.4131 9.50385C23.6388 10.58 23.6572 12.8819 23.4498 13.9528C23.2792 14.8321 22.917 15.9738 22.5653 16.7507C22.3002 17.3308 21.644 18.4568 21.3553 18.8243C21.2083 19.008 21.2083 19.008 21.2897 18.6012L21.2897 18.6012ZM10.817 2.88427C9.82744 2.38032 8.30247 1.84225 7.45993 1.69526C7.16334 1.64539 6.66201 1.61652 6.33917 1.63227C5.64362 1.66639 5.67511 1.63227 6.79063 1.1047C7.71716 0.666366 8.49145 0.409142 9.54135 0.188664C10.7225 -0.0606853 12.9404 -0.06331 14.1031 0.183415C15.3578 0.448513 16.8355 0.999707 17.6675 1.51153L17.9142 1.66377L17.3473 1.63489C16.2187 1.57715 14.5756 2.03385 12.8091 2.89477C12.2763 3.15461 11.8144 3.36197 11.7802 3.35409C11.7487 3.34884 11.313 3.13624 10.817 2.88427Z" id="path4148" fill="#107D0F" stroke="none" />
</svg>