<?xml version="1.0" encoding="utf-8"?>
<svg width="26px" height="20px" viewBox="0 0 26 20" version="1.1" xmlns:xlink="http://www.w3.org/1999/xlink" xmlns="http://www.w3.org/2000/svg">
  <desc>Created with Lunacy</desc>
  <path d="M25.0256 14.9157C24.5323 15.5379 23.3239 15.9819 23.3239 15.9819C23.3239 15.9819 14.3345 19.2108 14.3345 19.2108C14.3345 19.2108 14.3345 16.8295 14.3345 16.8295C14.3345 16.8295 20.9501 14.4723 20.9501 14.4723C21.7008 14.2034 21.8161 13.8231 21.2059 13.6235C20.5968 13.4234 19.4939 13.4807 18.7426 13.7508C18.7426 13.7508 14.3345 15.3034 14.3345 15.3034C14.3345 15.3034 14.3345 12.8321 14.3345 12.8321C14.3345 12.8321 14.5885 12.746 14.5885 12.746C14.5885 12.746 15.8623 12.2952 17.6535 12.0968C19.4446 11.8995 21.6377 12.1237 23.3595 12.7764C25.2997 13.3895 25.5182 14.2934 25.0256 14.9157ZM15.1902 10.8608C15.1902 10.8608 15.1902 4.77116 15.1902 4.77116C15.1902 4.05597 15.0583 3.39756 14.3872 3.21117C13.8734 3.04657 13.5545 3.52374 13.5545 4.23835C13.5545 4.23835 13.5545 19.4884 13.5545 19.4884C13.5545 19.4884 9.44173 18.183 9.44173 18.183C9.44173 18.183 9.44173 0 9.44173 0C11.1904 0.324616 13.738 1.09199 15.1076 1.55368C18.5906 2.74948 19.7715 4.23778 19.7715 7.59118C19.7715 10.8597 17.7538 12.0985 15.1902 10.8608L15.1902 10.8608ZM1.89529 16.5806C-0.0965635 16.0197 -0.428061 14.8509 0.479829 14.1775C1.3189 13.5558 2.74583 13.0878 2.74583 13.0878C2.74583 13.0878 8.64281 10.991 8.64281 10.991C8.64281 10.991 8.64281 13.3815 8.64281 13.3815C8.64281 13.3815 4.3993 14.9002 4.3993 14.9002C3.6497 15.1692 3.53442 15.55 4.14351 15.7496C4.75317 15.9492 5.85663 15.8924 6.60737 15.6228C6.60737 15.6228 8.64281 14.8841 8.64281 14.8841C8.64281 14.8841 8.64281 17.0228 8.64281 17.0228C8.51377 17.0457 8.36982 17.0687 8.23676 17.0911C6.20074 17.4237 4.03224 17.2849 1.89529 16.5806L1.89529 16.5806ZM23.7156 17.5275C23.9731 17.5275 24.2146 17.6273 24.3964 17.8114C24.5782 17.9926 24.6786 18.2347 24.6786 18.4916C24.6786 18.7497 24.5782 18.9906 24.3964 19.1718C24.2146 19.3548 23.9731 19.4545 23.7156 19.4545C23.4581 19.4545 23.2172 19.3548 23.0349 19.1718C22.853 18.9906 22.7533 18.7497 22.7533 18.4916C22.7533 17.9605 23.1845 17.5275 23.7156 17.5275ZM22.915 18.4916C22.915 18.7055 22.9981 18.9068 23.1496 19.0571C23.3004 19.2097 23.5023 19.2922 23.7156 19.2922C24.1578 19.2922 24.5163 18.9332 24.5163 18.4916C24.5163 18.2771 24.4337 18.0758 24.2817 17.925C24.1309 17.7724 23.929 17.6904 23.7156 17.6904C23.5023 17.6904 23.3004 17.7724 23.1496 17.925C22.9981 18.0758 22.915 18.2771 22.915 18.4916L22.915 18.4916ZM24.0064 17.9726C24.1119 18.019 24.1653 18.1085 24.1653 18.2358C24.1653 18.3012 24.1515 18.3562 24.1234 18.3993C24.1033 18.4302 24.0747 18.4555 24.0425 18.4773C24.0678 18.4922 24.0901 18.51 24.1068 18.5306C24.1297 18.5604 24.1429 18.608 24.1446 18.6728C24.1446 18.6728 24.1498 18.8099 24.1498 18.8099C24.1515 18.8466 24.1538 18.8747 24.1595 18.8919C24.1653 18.9172 24.1762 18.9332 24.1899 18.9384C24.1899 18.9384 24.2043 18.9453 24.2043 18.9453C24.2043 18.9453 24.2043 18.9607 24.2043 18.9607C24.2043 18.9607 24.2043 18.9843 24.2043 18.9843C24.2043 18.9843 24.2043 19.0078 24.2043 19.0078C24.2043 19.0078 24.1808 19.0078 24.1808 19.0078C24.1808 19.0078 24.0104 19.0078 24.0104 19.0078C24.0104 19.0078 23.9967 19.0078 23.9967 19.0078C23.9967 19.0078 23.9898 18.9957 23.9898 18.9957C23.984 18.9843 23.98 18.9711 23.976 18.9539C23.9731 18.9384 23.9703 18.9114 23.9686 18.8701C23.9686 18.8701 23.9599 18.6998 23.9599 18.6998C23.9577 18.6407 23.9376 18.604 23.8997 18.5845C23.8762 18.5736 23.8372 18.5685 23.7845 18.5685C23.7845 18.5685 23.4925 18.5685 23.4925 18.5685C23.4925 18.5685 23.4925 18.9843 23.4925 18.9843C23.4925 18.9843 23.4925 19.0078 23.4925 19.0078C23.4925 19.0078 23.4684 19.0078 23.4684 19.0078C23.4684 19.0078 23.3296 19.0078 23.3296 19.0078C23.3296 19.0078 23.3061 19.0078 23.3061 19.0078C23.3061 19.0078 23.3061 18.9843 23.3061 18.9843C23.3061 18.9843 23.3061 17.9594 23.3061 17.9594C23.3061 17.9594 23.3061 17.9359 23.3061 17.9359C23.3061 17.9359 23.3296 17.9359 23.3296 17.9359C23.3296 17.9359 23.8039 17.9359 23.8039 17.9359C23.8854 17.9359 23.9536 17.9479 24.0064 17.9726L24.0064 17.9726ZM23.4925 18.4044C23.4925 18.4044 23.7896 18.4044 23.7896 18.4044C23.8493 18.4044 23.8969 18.3935 23.9307 18.3712C23.9617 18.3488 23.9766 18.3081 23.9766 18.249C23.9766 18.1848 23.9554 18.1429 23.9106 18.1205C23.886 18.1085 23.8516 18.1016 23.808 18.1016C23.808 18.1016 23.4925 18.1016 23.4925 18.1016C23.4925 18.1016 23.4925 18.4044 23.4925 18.4044Z" id="ps-logo" fill="#1370B5" stroke="none" />
</svg>