<?xml version="1.0" encoding="utf-8"?>
<svg width="68px" height="42px" viewBox="0 0 68 42" version="1.1" xmlns:xlink="http://www.w3.org/1999/xlink" xmlns="http://www.w3.org/2000/svg">
  <desc>Created with Lunacy</desc>
  <g id="ps-small-card">
    <path d="M3.136 4.44089e-16L64.6931 0C66.4251 -3.18157e-16 67.8291 1.40404 67.8291 3.136L67.8291 38.1147C67.8291 39.8467 66.4251 41.2507 64.6931 41.2507L3.136 41.2507C1.40404 41.2507 4.05784e-15 39.8467 0 38.1147L0 3.136C-2.12105e-16 1.40404 1.40404 3.18157e-16 3.136 4.44089e-16ZM27.2765 2.44744C26.7938 2.44744 26.4024 2.83878 26.4024 3.32153C26.4024 3.80427 26.7938 4.19561 27.2765 4.19561L40.5526 4.19561C41.0354 4.19561 41.4267 3.80427 41.4267 3.32153C41.4267 2.83878 41.0354 2.44744 40.5526 2.44744L27.2765 2.44744Z" id="Shape" fill="#080607" stroke="none" />
  </g>
</svg>