<?xml version="1.0" encoding="utf-8"?>
<svg width="68px" height="42px" viewBox="0 0 68 42" version="1.1" xmlns:xlink="http://www.w3.org/1999/xlink" xmlns="http://www.w3.org/2000/svg">
  <desc>Created with Lunacy</desc>
  <g id="ps-small-card">
    <path d="M3.136 4.44089e-16L64.6931 0C66.4251 -3.18157e-16 67.8291 1.40404 67.8291 3.136L67.8291 38.1147C67.8291 39.8467 66.4251 41.2507 64.6931 41.2507L3.136 41.2507C1.40404 41.2507 4.05784e-15 39.8467 0 38.1147L0 3.136C-2.12105e-16 1.40404 1.40404 3.18157e-16 3.136 4.44089e-16ZM27.2765 2.44744C26.7938 2.44744 26.4024 2.83878 26.4024 3.32153C26.4024 3.80427 26.7938 4.19561 27.2765 4.19561L40.5526 4.19561C41.0354 4.19561 41.4267 3.80427 41.4267 3.32153C41.4267 2.83878 41.0354 2.44744 40.5526 2.44744L27.2765 2.44744Z" id="Shape" fill="#107D0F" stroke="none" />
    <path d="M8.85228 19.6568C7.33868 19.5124 5.8054 18.9678 4.48647 18.106C3.3819 17.3842 3.13255 17.0889 3.13255 16.4962C3.13255 15.3085 4.43835 13.2262 6.66938 10.8552C7.938 9.50784 9.70313 7.92862 9.89343 7.97018C10.2653 8.0533 13.2334 10.9536 14.3445 12.3163C16.1031 14.4773 16.9124 16.2447 16.5012 17.0321C16.1884 17.6314 14.2527 18.8016 12.8309 19.25C11.6586 19.6218 10.1187 19.7793 8.85228 19.6568ZM1.64301 15.2626C0.726542 13.854 0.262839 12.465 0.0375489 10.4593C-0.0368185 9.79656 -0.0105712 9.41816 0.205969 8.05767C0.475005 6.36253 1.43741 4.40273 2.59666 3.19535C3.09099 2.68134 3.13474 2.66822 3.73624 2.87163C4.46679 3.1188 5.24546 3.65687 6.45502 4.75269L7.16151 5.39138L6.77655 5.86602C4.98517 8.06642 3.09755 11.1855 2.38669 13.1147C1.99954 14.1624 1.84424 15.2166 2.01047 15.6541C2.12203 15.9494 2.01922 15.84 1.64301 15.2626ZM17.7414 15.501C17.8311 15.0591 17.7173 14.2455 17.4483 13.4253C16.8687 11.6492 14.9242 8.34202 13.1393 6.09568L12.5772 5.38919L13.1853 4.82925C13.9793 4.0987 14.5305 3.66124 15.1254 3.29159C15.5957 2.9985 16.265 2.7404 16.5537 2.7404C16.7309 2.7404 17.3564 3.39002 17.8617 4.10088C18.6447 5.1989 19.22 6.53314 19.5109 7.91987C19.699 8.81666 19.7143 10.7349 19.5415 11.6273C19.3993 12.36 19.0975 13.3115 18.8044 13.9589C18.5835 14.4423 18.0367 15.3807 17.7961 15.6869C17.6736 15.84 17.6736 15.84 17.7414 15.501L17.7414 15.501ZM9.01414 2.40356C8.18954 1.9836 6.91873 1.53521 6.21661 1.41272C5.96945 1.37116 5.55168 1.3471 5.28264 1.36022C4.70301 1.38866 4.72926 1.36022 5.65885 0.920581C6.43096 0.555305 7.07621 0.340952 7.95112 0.15722C8.9354 -0.0505711 10.7836 -0.0527583 11.7526 0.152846C12.7981 0.373761 14.0296 0.833089 14.7229 1.25961L14.9285 1.38647L14.4561 1.36241C13.5156 1.31429 12.1463 1.69488 10.6743 2.4123C10.2303 2.62885 9.84531 2.80164 9.81687 2.79508C9.79062 2.7907 9.42754 2.61353 9.01414 2.40356Z" transform="translate(23.84593 10.86195)" id="path4148" fill="#FFFFFF" stroke="none" />
  </g>
</svg>