<?xml version="1.0" encoding="utf-8"?>
<svg width="68px" height="42px" viewBox="0 0 68 42" version="1.1" xmlns:xlink="http://www.w3.org/1999/xlink" xmlns="http://www.w3.org/2000/svg">
  <desc>Created with Lunacy</desc>
  <g id="ps-small-card">
    <g id="ps-small-card">
      <path d="M3.136 4.44089e-16L64.6931 0C66.4251 -3.18157e-16 67.8291 1.40404 67.8291 3.136L67.8291 38.1147C67.8291 39.8467 66.4251 41.2507 64.6931 41.2507L3.136 41.2507C1.40404 41.2507 4.05784e-15 39.8467 0 38.1147L0 3.136C-2.12105e-16 1.40404 1.40404 3.18157e-16 3.136 4.44089e-16ZM27.2765 2.44744C26.7938 2.44744 26.4024 2.83878 26.4024 3.32153C26.4024 3.80427 26.7938 4.19561 27.2765 4.19561L40.5526 4.19561C41.0354 4.19561 41.4267 3.80427 41.4267 3.32153C41.4267 2.83878 41.0354 2.44744 40.5526 2.44744L27.2765 2.44744Z" id="Shape" fill="#1370B5" stroke="none" />
      <path d="M20.8546 12.4297C20.4436 12.9483 19.4366 13.3182 19.4366 13.3182C19.4366 13.3182 11.9454 16.009 11.9454 16.009C11.9454 16.009 11.9454 14.0246 11.9454 14.0246C11.9454 14.0246 17.4584 12.0603 17.4584 12.0603C18.084 11.8361 18.1801 11.5193 17.6716 11.3529C17.164 11.1861 16.2449 11.2339 15.6188 11.459C15.6188 11.459 11.9454 12.7528 11.9454 12.7528C11.9454 12.7528 11.9454 10.6934 11.9454 10.6934C11.9454 10.6934 12.1571 10.6217 12.1571 10.6217C12.1571 10.6217 13.2186 10.246 14.7112 10.0807C16.2038 9.91625 18.0315 10.1031 19.4662 10.647C21.0831 11.1579 21.2652 11.9112 20.8546 12.4297ZM12.6585 9.05071C12.6585 9.05071 12.6585 3.97596 12.6585 3.97596C12.6585 3.37998 12.5486 2.8313 11.9894 2.67597C11.5611 2.5388 11.2954 2.93645 11.2954 3.53196C11.2954 3.53196 11.2954 16.2403 11.2954 16.2403C11.2954 16.2403 7.86811 15.1525 7.86811 15.1525C7.86811 15.1525 7.86811 0 7.86811 0C9.32534 0.270513 11.4483 0.909994 12.5897 1.29473C15.4922 2.29123 16.4762 3.53148 16.4762 6.32598C16.4762 9.04975 14.7949 10.0821 12.6585 9.05071L12.6585 9.05071ZM1.57941 13.8172C-0.0804696 13.3498 -0.356718 12.3757 0.399858 11.8146C1.09908 11.2965 2.28819 10.9065 2.28819 10.9065C2.28819 10.9065 7.20234 9.1592 7.20234 9.1592C7.20234 9.1592 7.20234 11.1512 7.20234 11.1512C7.20234 11.1512 3.66608 12.4168 3.66608 12.4168C3.04142 12.641 2.94535 12.9583 3.45292 13.1246C3.96097 13.291 4.88052 13.2437 5.50614 13.019C5.50614 13.019 7.20234 12.4034 7.20234 12.4034C7.20234 12.4034 7.20234 14.1857 7.20234 14.1857C7.09481 14.2048 6.97485 14.2239 6.86397 14.2425C5.16729 14.5197 3.3602 14.4041 1.57941 13.8172L1.57941 13.8172ZM19.763 14.6063C19.9776 14.6063 20.1788 14.6894 20.3303 14.8428C20.4818 14.9939 20.5655 15.1956 20.5655 15.4097C20.5655 15.6247 20.4818 15.8255 20.3303 15.9765C20.1788 16.129 19.9776 16.2121 19.763 16.2121C19.5484 16.2121 19.3477 16.129 19.1957 15.9765C19.0442 15.8255 18.961 15.6247 18.961 15.4097C18.961 14.9671 19.3205 14.6063 19.763 14.6063ZM19.0958 15.4097C19.0958 15.5879 19.1651 15.7557 19.2913 15.8809C19.417 16.008 19.5852 16.0769 19.763 16.0769C20.1315 16.0769 20.4302 15.7777 20.4302 15.4097C20.4302 15.2309 20.3614 15.0632 20.2347 14.9375C20.1091 14.8103 19.9408 14.742 19.763 14.742C19.5852 14.742 19.417 14.8103 19.2913 14.9375C19.1651 15.0632 19.0958 15.2309 19.0958 15.4097L19.0958 15.4097ZM20.0053 14.9771C20.0933 15.0158 20.1377 15.0904 20.1377 15.1965C20.1377 15.251 20.1263 15.2969 20.1028 15.3327C20.0861 15.3585 20.0622 15.3796 20.0354 15.3977C20.0565 15.4101 20.0751 15.425 20.089 15.4422C20.1081 15.467 20.1191 15.5067 20.1205 15.5607C20.1205 15.5607 20.1248 15.6749 20.1248 15.6749C20.1263 15.7055 20.1282 15.7289 20.133 15.7433C20.1377 15.7643 20.1468 15.7777 20.1583 15.782C20.1583 15.782 20.1702 15.7877 20.1702 15.7877C20.1702 15.7877 20.1702 15.8006 20.1702 15.8006C20.1702 15.8006 20.1702 15.8202 20.1702 15.8202C20.1702 15.8202 20.1702 15.8398 20.1702 15.8398C20.1702 15.8398 20.1506 15.8398 20.1506 15.8398C20.1506 15.8398 20.0087 15.8398 20.0087 15.8398C20.0087 15.8398 19.9972 15.8398 19.9972 15.8398C19.9972 15.8398 19.9915 15.8298 19.9915 15.8298C19.9867 15.8202 19.9834 15.8092 19.98 15.7949C19.9776 15.782 19.9752 15.7595 19.9738 15.7251C19.9738 15.7251 19.9666 15.5832 19.9666 15.5832C19.9647 15.5339 19.948 15.5034 19.9164 15.4871C19.8968 15.478 19.8643 15.4737 19.8204 15.4737C19.8204 15.4737 19.5771 15.4737 19.5771 15.4737C19.5771 15.4737 19.5771 15.8202 19.5771 15.8202C19.5771 15.8202 19.5771 15.8398 19.5771 15.8398C19.5771 15.8398 19.557 15.8398 19.557 15.8398C19.557 15.8398 19.4414 15.8398 19.4414 15.8398C19.4414 15.8398 19.4218 15.8398 19.4218 15.8398C19.4218 15.8398 19.4218 15.8202 19.4218 15.8202C19.4218 15.8202 19.4218 14.9661 19.4218 14.9661C19.4218 14.9661 19.4218 14.9466 19.4218 14.9466C19.4218 14.9466 19.4414 14.9466 19.4414 14.9466C19.4414 14.9466 19.8366 14.9466 19.8366 14.9466C19.9045 14.9466 19.9614 14.9566 20.0053 14.9771L20.0053 14.9771ZM19.5771 15.337C19.5771 15.337 19.8247 15.337 19.8247 15.337C19.8744 15.337 19.9141 15.3279 19.9423 15.3093C19.9681 15.2907 19.9805 15.2567 19.9805 15.2075C19.9805 15.154 19.9628 15.1191 19.9255 15.1004C19.905 15.0904 19.8763 15.0847 19.84 15.0847C19.84 15.0847 19.5771 15.0847 19.5771 15.0847C19.5771 15.0847 19.5771 15.337 19.5771 15.337Z" transform="translate(23.39367 12.47357)" id="ps-logo" fill="#FFFFFF" stroke="none" />
    </g>
  </g>
</svg>