<?xml version="1.0" encoding="utf-8"?>
<svg width="103px" height="103px" viewBox="0 0 103 103" version="1.1" xmlns:xlink="http://www.w3.org/1999/xlink" xmlns="http://www.w3.org/2000/svg">
  <desc>Created with Lunacy</desc>
  <g id="QR">
    <path d="M57.6 19.2L57.6 0L44.8 0L44.8 6.4L51.2 6.4L51.2 12.8L44.8 12.8L44.8 32L51.2 32L51.2 19.2L57.6 19.2ZM25.6 12.8L12.8 12.8L12.8 25.6L25.6 25.6L25.6 12.8ZM89.6 12.8L76.8 12.8L76.8 25.6L89.6 25.6L89.6 12.8ZM0 57.6L0 44.8L12.8 44.8L12.8 51.2L19.2 51.2L19.2 57.6L0 57.6ZM25.6128 44.8L19.2064 44.8L19.2064 51.2L25.6 51.2L25.6 57.6L38.4 57.6L38.4 51.2L44.8 51.2L44.8 44.8L32 44.8L32 51.2L25.6128 51.2L25.6128 44.8ZM89.6 51.2L89.6 44.8L102.4 44.8L102.4 57.6L96 57.6L96 51.2L89.6 51.2ZM44.8 57.6L51.2 57.6L51.2 64L44.8 64L44.8 57.6ZM44.8 76.8L44.8 70.4L51.2064 70.4L51.2064 64L57.6064 64L57.6064 89.6L51.2064 89.6L51.2064 76.8L44.8 76.8ZM12.8 89.6L12.8 76.8L25.6 76.8L25.6 89.6L12.8 89.6ZM51.2 89.6L44.8 89.6L44.8 96L51.2 96L51.2 102.4L57.6 102.4L57.6 96L51.2 96L51.2 89.6Z" id="Combined-Shape" fill="#331D34" fill-rule="evenodd" stroke="none" />
  </g>
</svg>