<?xml version="1.0" encoding="utf-8"?>
<svg width="51px" height="17px" viewBox="0 0 51 17" version="1.1" xmlns:xlink="http://www.w3.org/1999/xlink" xmlns="http://www.w3.org/2000/svg">
  <desc>Created with Lunacy</desc>
  <path d="M27.7579 11.5585L27.8477 11.0541C27.9115 10.6979 28.0137 10.6095 28.3764 10.6095L28.5041 10.6095C28.8744 10.6095 28.9383 10.6979 28.8744 11.0541L28.6957 12.0443C28.5373 12.9435 28.9741 13.2921 29.9216 13.2921L41.1189 13.2921C42.064 13.2896 42.6233 12.9435 42.7842 12.0443L42.9605 11.0541C43.0243 10.6979 43.1291 10.6095 43.4892 10.6095L43.6271 10.6095C43.9872 10.6095 44.0588 10.7029 43.9949 11.0541L43.8187 12.0443C43.5505 13.5624 42.5007 14.2495 40.9478 14.2495L29.7505 14.2495C29.1458 14.2495 28.6711 14.1511 28.3247 13.9543L28.2385 14.439C28.0341 15.5782 27.319 16.1491 26.0853 16.1491C26.0216 16.1551 25.9575 16.1551 25.8938 16.1491C25.5771 16.1112 25.503 16.0329 25.5643 15.6944L25.5873 15.5606C25.6435 15.2397 25.7252 15.1741 26.0572 15.2221C26.1218 15.2279 26.1868 15.2279 26.2514 15.2221C26.9078 15.2221 27.1376 14.9695 27.2449 14.3708L27.7302 11.683C27.7386 11.6371 27.7477 11.5957 27.7579 11.5585ZM24.7214 11.0591C24.7853 10.7105 24.8874 10.6246 25.2323 10.6246L25.36 10.6246C25.7124 10.6246 25.7839 10.7105 25.7227 11.0591L25.1275 14.439C24.9232 15.5791 24.2055 16.1491 22.9744 16.1491C22.9098 16.155 22.8449 16.155 22.7803 16.1491C22.4661 16.1112 22.3921 16.0329 22.4508 15.6944L22.4764 15.5606C22.5325 15.2397 22.6117 15.1741 22.9463 15.2221C23.0109 15.228 23.0759 15.228 23.1404 15.2221C23.7943 15.2221 24.0267 14.9695 24.1314 14.3708L24.7214 11.0591ZM46.6231 15.3155C46.973 15.3155 47.0471 15.4014 46.9832 15.75L46.9628 15.8763C46.8989 16.2249 46.7968 16.3108 46.452 16.3108L46.3192 16.3108C45.9692 16.3108 45.8952 16.2249 45.959 15.8763L45.9795 15.75C46.0433 15.4014 46.1455 15.3155 46.4903 15.3155L46.6231 15.3155ZM35.8958 15.3155C36.2457 15.3155 36.3197 15.4014 36.2559 15.75L36.2355 15.8763C36.1716 16.2249 36.0694 16.3108 35.7246 16.3108L35.5944 16.3108C35.2419 16.3108 35.1678 16.2249 35.2317 15.8763L35.2547 15.75C35.316 15.4014 35.4181 15.3155 35.7655 15.3155L35.8958 15.3155ZM34.3888 15.3155C34.7413 15.3155 34.8128 15.4014 34.7515 15.75L34.7285 15.8763C34.6672 16.2249 34.5625 16.3108 34.2177 16.3108L34.0849 16.3108C33.7324 16.3108 33.6609 16.2249 33.7222 15.8763L33.7452 15.75C33.8065 15.4014 33.9112 15.3155 34.256 15.3155L34.3888 15.3155ZM25.692 8.80333C26.0445 8.80333 26.116 8.89174 26.0547 9.23781L26.0317 9.36412C25.9704 9.71271 25.8657 9.7986 25.5209 9.7986L25.3881 9.7986C25.0356 9.7986 24.9641 9.71271 25.0254 9.36412L25.0484 9.23781C25.1097 8.89174 25.2144 8.80333 25.5592 8.80333L25.692 8.80333ZM45.3282 8.30822C45.392 7.95205 45.4942 7.86364 45.8569 7.86364L45.9846 7.86364C46.3447 7.86364 46.4162 7.95205 46.3549 8.30822L45.6857 12.0493C45.5274 12.9486 45.9641 13.2972 46.9117 13.2972C47.8593 13.2972 48.4187 12.9486 48.5796 12.0493L48.7558 11.0591C48.8197 10.7029 48.9244 10.6145 49.2845 10.6145L49.4224 10.6145C49.7826 10.6145 49.8566 10.7029 49.7928 11.0591L49.6165 12.0493C49.3458 13.565 48.2935 14.2546 46.7406 14.2546C45.0881 14.2546 44.3985 13.5195 44.6615 12.0493L45.3282 8.30822ZM27.3113 1.23524C28.8234 1.23524 29.3163 1.9678 29.0813 3.27883C28.8259 4.63785 28.006 5.32242 26.5834 5.32242L24.9845 5.32242L24.6755 7.07298C24.6116 7.42915 24.5069 7.51504 24.1468 7.51504L24.0216 7.51504C23.6589 7.51504 23.5874 7.42915 23.6513 7.07298L24.4916 2.33408C24.6295 1.57626 25.0203 1.23524 25.7993 1.23524L27.3113 1.23524ZM25.9219 2.1901C25.8138 2.18027 25.7062 2.21337 25.6229 2.28208C25.5395 2.35079 25.4872 2.44948 25.4775 2.55638L25.1531 4.37009L26.752 4.37009C27.5821 4.37009 27.9218 4.05181 28.0597 3.27883C28.1976 2.50585 27.9703 2.1901 27.1402 2.1901L25.9219 2.1901ZM32.933 6.06255C32.744 7.1336 32.0237 7.60598 30.5832 7.60598C29.2652 7.60598 28.6906 7.11339 28.8668 6.12065C29.043 5.12791 29.8297 4.66564 31.117 4.66564L32.182 4.66564L32.2663 4.19326C32.3659 3.6249 32.0109 3.46071 31.2447 3.46071C30.8962 3.45686 30.5481 3.48562 30.2052 3.54659C29.914 3.59459 29.8476 3.54659 29.9012 3.23841L29.9242 3.10201C29.9753 2.82414 30.0672 2.73573 30.3507 2.68773C30.6777 2.63698 31.0082 2.61164 31.3392 2.61195C32.7516 2.61195 33.4642 3.04643 33.2599 4.19326L32.933 6.06255ZM32.0543 5.41841L30.9816 5.41841C30.3099 5.41841 29.96 5.61039 29.8757 6.10297C29.7914 6.59555 30.1311 6.76732 30.7134 6.76732C31.4439 6.76732 31.8398 6.62334 31.9471 6.0095L32.0543 5.41841ZM35.3951 6.25958C35.4156 6.64355 35.5254 6.73196 35.837 6.73196C36.072 6.73196 36.2252 6.63597 36.381 6.25958L37.6581 3.15505C37.7986 2.80646 37.9135 2.72057 38.2813 2.72057L38.4065 2.72057C38.7691 2.72057 38.8202 2.80646 38.6619 3.15505L36.851 7.50241C36.2942 8.82354 35.528 9.5081 34.3863 9.6243C34.1308 9.65209 34.0261 9.5662 34.0108 9.26813L34.0108 9.14182C33.9929 8.87153 34.0823 8.79575 34.3531 8.75534C35.0325 8.66945 35.4718 8.27286 35.8319 7.51251C35.6851 7.5664 35.5285 7.58962 35.3722 7.58072C34.6417 7.58072 34.4859 7.19423 34.4144 6.34547L34.1589 3.15505C34.1334 2.80646 34.2177 2.72057 34.5778 2.72057L34.7055 2.72057C35.0657 2.72057 35.1576 2.80646 35.1832 3.15505L35.3951 6.25958ZM43.0243 5.03444C42.9222 5.39062 42.8072 5.47651 42.4471 5.47651L39.7372 5.47651L39.6989 5.69122C39.5737 6.39347 39.9338 6.67386 40.9172 6.67386C41.3533 6.67115 41.7878 6.61946 42.2121 6.51977C42.539 6.44146 42.6131 6.51977 42.5518 6.85574L42.5314 6.98204C42.4726 7.30032 42.4037 7.36853 42.0461 7.45441C41.623 7.56073 41.1877 7.61252 40.7512 7.6085C39.114 7.6085 38.4524 7.00225 38.7078 5.54471L38.8585 4.70606C39.1054 3.30999 39.9509 2.61279 41.3948 2.61448C42.751 2.61448 43.341 3.29904 43.1061 4.61007C43.0805 4.75405 43.0473 4.89046 43.0116 5.03444L43.0243 5.03444ZM39.87 4.66817L42.1508 4.66817L42.1942 4.41556C42.3066 3.78152 41.9822 3.46323 41.2135 3.46323C40.4447 3.46323 40.0258 3.78152 39.9108 4.41556L39.87 4.66817ZM44.6411 7.07298C44.5798 7.42157 44.4751 7.50746 44.1303 7.50746L44.0026 7.50746C43.6526 7.50746 43.5811 7.42157 43.6424 7.07298L44.1328 4.32715C44.3338 3.18873 45.0489 2.61953 46.2783 2.61953C46.3429 2.6137 46.4078 2.6137 46.4724 2.61953C46.7866 2.65742 46.8606 2.73573 46.7993 3.07169L46.7763 3.2081C46.7202 3.52386 46.6384 3.59206 46.3064 3.54407C46.2418 3.53808 46.1768 3.53808 46.1123 3.54407C45.461 3.54407 45.2285 3.79667 45.1238 4.39282L44.6411 7.07298ZM46.6972 6.84816C46.7585 6.50967 46.8504 6.43136 47.1493 6.50967C47.6017 6.63355 48.0693 6.69476 48.5387 6.69154C49.2028 6.69154 49.4633 6.58545 49.5195 6.27727C49.5629 6.02466 49.4556 5.92109 49.0087 5.6988L48.0177 5.23653C47.4047 4.95614 47.162 4.63027 47.2872 3.9255C47.4455 3.02875 48.0866 2.61448 49.3816 2.61448C49.7552 2.61074 50.1275 2.65922 50.4875 2.75846C50.8093 2.86456 50.8681 2.92266 50.8119 3.24094L50.7914 3.35714C50.7301 3.6931 50.628 3.77141 50.3317 3.68553C49.9644 3.57827 49.5831 3.52549 49.2002 3.52891C48.5668 3.52891 48.3216 3.64511 48.2705 3.9255C48.2296 4.1579 48.3293 4.264 48.6409 4.41809L49.6855 4.89804C50.3445 5.19864 50.6178 5.53461 50.4875 6.25959C50.3215 7.18412 49.6523 7.6085 48.2782 7.6085C47.8368 7.61168 47.397 7.55646 46.9705 7.44431C46.664 7.35842 46.6103 7.29022 46.6665 6.97194L46.6972 6.84816ZM20.4177 1.37176L20.3947 0.764757C20.3947 0.572711 20.3769 0.339511 20.3769 0.168041C20.3411 0.329223 20.3002 0.510981 20.2466 0.69274L20.0653 1.37862L19.9631 1.37862L19.7945 0.716746C19.7448 0.540488 19.7021 0.360755 19.6668 0.178329C19.6668 0.349799 19.6668 0.57957 19.6464 0.788763L19.6259 1.37176L19.4982 1.37176L19.5697 0L19.7409 0L19.9222 0.685881C19.9656 0.853922 19.9988 1.00482 20.0269 1.14885C20.055 1.01167 20.0933 0.860781 20.1393 0.685881L20.3181 0L20.4867 0L20.5505 1.37176L20.4177 1.37176ZM19.0972 1.37176L18.9644 1.37176L18.9644 0.150894L18.6452 0.150894L18.6452 0L19.4114 0L19.4114 0.150894L19.0972 0.150894L19.0972 1.37176ZM6.25856 12.8169L6.37963 12.1502L6.49515 11.4911L6.49934 11.4911L6.50026 11.486L7.25373 11.486L7.25281 11.4911L11.6366 11.4911C14.2444 11.4911 16.7525 9.38938 17.1995 6.81279C17.6465 4.23621 15.9122 2.13705 13.3045 2.13705L3.63964 2.13705L4.62042 1.39691L13.4373 1.39691C16.4588 1.39691 18.4842 3.84214 17.9504 6.83048C17.4166 9.81881 14.5253 12.2489 11.5064 12.2489L7.11518 12.2489L6.55135 15.3534L6.48238 15.7298L5.73147 15.7298L5.79946 15.3534L5.79788 15.3534L6.09563 13.7139L6.25762 12.8172L6.25856 12.8169ZM4.90123 8.74271L11.869 8.74271C12.9884 8.70214 13.9332 7.90676 14.1524 6.82037C14.2658 6.34454 14.1483 5.84366 13.8348 5.46573C13.5213 5.0878 13.0475 4.87603 12.5536 4.89298L0 4.89298L0.978232 4.15285L12.6864 4.15285C14.1678 4.15285 15.1639 5.34515 14.9008 6.82037C14.6042 8.32761 13.3002 9.43642 11.749 9.50052L4.76606 9.50052L3.65496 15.7298L2.90149 15.7298L4.15046 8.72755L4.90393 8.72755L4.90123 8.74271ZM5.94201 10.8191L5.05718 15.7298L4.30371 15.7298L5.32281 10.0739L6.07628 10.0739L6.07582 10.0765L11.749 10.0765C13.5752 10.0765 15.3171 8.60882 15.6364 6.81027C15.9557 5.01171 14.7373 3.54912 12.9188 3.54912L1.78789 3.54912L2.7508 2.81151L13.0516 2.81151C15.2839 2.81151 16.7781 4.60754 16.3847 6.81532C15.9914 9.0231 13.8562 10.8191 11.6238 10.8191L5.94201 10.8191ZM8.23196 13.6256L7.86161 15.7298L7.10815 15.7298L7.47957 13.6195L7.61131 12.8678L11.5217 12.8678C14.9136 12.8678 18.1497 10.1447 18.7448 6.80521C19.3399 3.46576 17.0718 0.742663 13.6876 0.742663L5.48372 0.742663L6.46451 0L13.8178 0C17.6235 0 20.1623 3.04138 19.4931 6.80521C18.8239 10.569 15.1894 13.6256 11.3889 13.6256L8.23196 13.6256Z" id="Shape" fill="#001247" stroke="none" />
</svg>